<svg xmlns="http://www.w3.org/2000/svg" viewBox="0 0 1600 1600"><style>path {fill: #000;} @media (prefers-color-scheme: dark) { path {fill: #fff;} }</style><path d="M1293.42,1288.64c-2.62,3-6.6,6.16-12.18.92-.87-.82-3.32.13-5,.12-7.32,0-14.67-.41-22,0-5.36.32-10.63,2.34-16,2.52-17,.56-34.23,2.75-50.78.3-17.67-2.61-31.35,4.07-45.43,11.75-2.27,1.23-4.86,4.24-5,6.59-1.54,21.08-3.25,42.19-3.51,63.31-.16,13.06,2.13,26.14,3.33,39.2,1.3,14.23,2.07,28.54,4.1,42.66a79.88,79.88,0,0,0,6.89,23.08c5.64,11.66,18.57,17.05,31.39,14.6,17.64-3.37,28.93,2.24,34.91,17.36,5.43,13.74-.24,33-13,40-6,3.35-13.22,5.14-20.1,6.19-13.7,2.08-27.55,4.35-41.34,4.36-16.23,0-33.13-16.3-36-32.84q-5.92-33.9-11.18-67.93c-1.13-7.39-1.06-15-1.69-22.42-1.84-22.09-4-44.16-5.56-66.27-1.19-16.52-1.23-33.13-2.61-49.63-1.36-16.31-3.08-32.65-5.86-48.76-5.12-29.67-11.34-59.15-16.69-88.78-3.8-21-6-42.4-10.65-63.23-3.84-17.17-10.29-33.75-15.49-50.61-1.42-4.58-3.1-9.19-3.56-13.89-.47-4.9-2.82-5.77-7-5.62s-5.91,2.11-5.71,6.19c.76,15.14,1.72,30.27,2.13,45.41.61,22.46.64,44.93,1.26,67.39.25,9.31,1.87,18.59,2,27.9.2,15.34,1.33,31-1,46-2.45,15.86,2.73,30.21,4.21,45.26a20.44,20.44,0,0,1-1,8.91c-4.35,11.36-4.78,23-4.59,35.06.39,25,.27,50-.16,75.07-.12,6.67.91,14.41-6.55,18.83-.29,12.34-9.81,12.59-18.41,14-4.72.76-9.46,1.92-14.2,2-23.53.22-47.07.56-70.59,0-12.73-.32-25.4-3-38.15-3.48-8.13-.32-16.34,1.37-24.52,2.09-3.7.32-7.75,1.54-11.08.52-21.4-6.56-43.31-6.57-65.36-6.43-17.66.11-35.33-1-53-1.26-5.8-.08-11.31-.7-17.34,2.86-4.21,2.48-11.57-.65-17.54-.87-18.42-.67-36.86-1.08-55.28-1.72-32.79-1.13-65.58-2.41-98.37-3.52-6.07-.2-12.17.36-18.23,0-7.53-.38-15-1.55-22.54-1.91-4.75-.23-9.54.47-14.31.61-5.64.17-11.63,1.46-16.88.06-23.4-6.24-46.81-10.24-71.16-6.83-6.09.85-12.57-.55-18.79-1.42-10-1.41-19.77-2.15-29.42,2.54-2.55,1.24-6.59-.54-9.93-1-1.14-.15-2.53-1-3.34-.55-6.25,3.17-8.92-1.28-10-5.62a79.39,79.39,0,0,1-2.48-20.1c.21-11.83.32-23.18-2.74-35.1-3.13-12.15-1.35-25.55-1.91-38.4-.23-5.35-1-10.67-1.49-16-.1-1-.51-2-.54-3-.5-17.54-.86-35.08-1.46-52.61-.51-15.07-1.82-30.12-1.8-45.17,0-16.13,1.35-32.25,1.75-48.38.26-10.63-.9-21.34,0-31.89s3.64-21.16,5.55-31.73c.35-2,.76-3.91.94-5.89.76-8.53,1.83-17.06,2-25.6.15-6.76-1.16-13.53-1.22-20.31-.45-44.78-1.08-89.57-.9-134.35.07-17.34,2.59-34.65,3.08-52,.37-13.18-3.63-17.46-16.2-20.62a11.12,11.12,0,0,0-3.6-.18c-6.64.59-13.68,2.95-19.82,1.48a166.94,166.94,0,0,0-29.74-4.12c-1.26-.07-2.81-.53-3.74,0-8.36,4.89-15.08,0-22.59-2.82-6.49-2.43-13.77-3-20.77-3.76-5.73-.61-12,2.27-16.75-3.53-.56-.69-2.51-.71-3.64-.4-11.76,3.27-18.68-3.62-25-11.77-2-2.6-3.25-6.23-5.81-7.91-10.13-6.63-10.08-16.45-9.92-26.8.11-7-.87-14.1-1.56-21.13-.95-9.59,2.7-17.47,7.63-25.47a373.9,373.9,0,0,0,18.24-34.09c1.13-2.33.41-6.94-1.29-9A107.13,107.13,0,0,0,144.33,672c-12.86-10.11-26-19.82-39.23-29.48-14.47-10.58-29.18-20.83-43.66-31.4-13.17-9.63-15.24-35.31-3.29-46.62,2.74-2.59,8.38-4.22,12-3.4a89.17,89.17,0,0,1,41.71,21.78c11,10.11,25.08,16.87,37.52,25.5,4,2.75,6.73,7.23,10.63,10.1,9.49,7,19.21,13.66,29.17,19.93,1.52,1,6-.13,7.15-1.7,6.87-9,13.22-18.45,19.61-27.83,2.79-4.1,1.65-7-2.35-10.2-14-11.1-27.25-23.08-41.41-33.92-10.8-8.27-23.05-14.66-33.7-23.09a205.26,205.26,0,0,1-27.78-26.48c-3.72-4.29-4.25-11.4-6-17.29-.4-1.36.14-3,.2-4.51.12-3.34-.9-9,.51-9.66,8.55-4.2,16.72-10.75,27.59-5.85,18.65,8.41,34.27,20.88,49.2,34.52,18.63,17,37.55,33.72,56.26,50.65,4.06,3.68,8.22,4,12.31.71,9.41-7.54,18.6-15.35,27.92-23,4.56-3.74,3.51-7.57-.09-10.92C267,519,255.23,508.39,243.47,497.73c-7.1-6.44-14.21-12.88-21.44-19.18-12.31-10.73-24.38-21.77-37.2-31.87-9.2-7.26-12.68-16.26-11.12-27.24.62-4.37,3.32-8.45,5.16-12.62.39-.89,1.62-1.59,1.68-2.42.73-10.86,8.93-8.77,15-7.82,21,3.3,40.43,10.63,56.23,25.69,17.91,17.05,36.05,33.88,53.85,51.05,4.46,4.3,8,9.54,12,14.35s9.64,4.31,13.76-.49q16.26-18.93,33.14-37.3c4.73-5.14,5.07-9.7-.33-13.88-17.58-13.59-35.45-26.8-52.75-40.71-19.41-15.6-40.28-29.32-56.76-48.64-10.82-12.67-10.51-26-7.48-40.2.54-2.54,5-4.37,7.76-6.27,2-1.34,4.46-1.95,6.35-3.38,11.83-8.91,30-8.76,40.44,1.76,18.12,18.24,35.9,36.83,54.35,54.74,14.32,13.91,29.45,27,44.21,40.47a59,59,0,0,1,5.4,5.32c3.59,4.22,7.14,4,11.11.51,8.91-7.7,17.65-15.63,27-22.78,5.19-4,5.71-8,2.68-12.95-9.63-15.73-19.09-31.57-29.27-46.94-15.33-23.16-31.69-45.65-46.63-69.06-6.52-10.24-12.62-21.21-11.48-34.56,1.11-13,17.06-30,28.54-28.34,10.05,1.44,19.13,6.53,24.72,14.84,13.51,20.11,26,40.91,38.94,61.37,9.85,15.53,19.89,30.93,29.75,46.45,2.44,3.83,4.26,8.06,6.82,11.79,3.08,4.49,6.67,8.63,9.95,12.81,14.36-9.14,27.8-17.46,41-26.17,6.6-4.37,6.66-8.81,2.22-15.19a119.61,119.61,0,0,1-9.74-17c-6.68-14.16-13-28.51-19.43-42.77-5-11-10.21-21.88-14.93-33-1-2.22-.14-5.18-.14-8-8.68-5.41-9.89-15.89-14.42-24.29-5.59-10.36-5.36-21.88-5.14-33.22a18.3,18.3,0,0,1,2.34-7.88c5.31-9.9,20.58-16.31,31.11-12.62,3.26,1.13,5.88,4.32,8.55,6.84,15.07,14.22,27.91,30.73,36,49.37,12,27.51,20.79,56.41,30.93,84.73a6.72,6.72,0,0,1,.24,1.49c1.79,15.23,7.49,18,21.5,11.12,8.48-4.19,17.23-7.86,26-11.42,5.33-2.17,7.22-5.75,6.36-11.25-4.21-26.6-8.59-53.17-12.45-79.82-2.08-14.36-3.7-28.83-4.71-43.3-1.34-19.16-1.54-38.39-2.85-57.55-1.22-17.82,13-31.47,31.09-31.72,10.66-.15,21,9.8,23.75,24.08a243,243,0,0,1,4.05,34.25c1.4,27.78,2.23,55.59,3.08,83.4.12,3.95-1,7.94-1.47,11.91-2.21,18-1.81,35.38,10.86,50.08a13.43,13.43,0,0,0,5.32,4c7.1,2.41,14.24,4.95,21.57,6.37s13.25-1.26,18.27-7.77c10.58-13.7,12.68-29.81,15.49-45.95,2.94-16.89,5.9-33.8,13.92-49.37,1.47-2.84.91-7.37-.07-10.72-3.38-11.55,2.05-29.39,12.44-34.95,3.59-1.92,9.37-1,13.73.18,3.4.91,6.26,4.09,9.15,6.51s5.59,5.15,8.34,7.77c17.52,16.71,17.94,18,9,40.65-15.37,39-31,77.93-46.35,117-.87,2.21-.93,6.8.15,7.35a169,169,0,0,0,22,9.29c.92.32,4.24-2.87,4.59-4.77,3.24-17.69,12.66-32.39,22.25-47,7.9-12,16.43-23.66,24-35.88,3.45-5.56,5.5-12,7.88-18.21,4.49-11.7,13.18-25.49,28.57-23.27,3.77.55,7.45,2.4,10.89,4.2a12,12,0,0,1,4.78,4.79c4.66,8.82,13.43,18.29,12.53,26.64-1.65,15.31-10.13,29.29-22.55,40A61.57,61.57,0,0,0,875.44,245c-8.51,13.73-16.43,27.83-24.39,41.89-2.23,3.94-4.52,8.12-5.4,12.47-.69,3.37-.56,8.88,1.5,10.48,7.58,5.91,16.11,10.59,24.31,15.69.37.23,1,0,1.49.1,13.73,2.52,13.66,2.49,19.65-9.31,11.5-22.7,21.68-46.18,38.68-65.63,7.93-9.08,15.45-18.61,24.2-26.84,9.48-8.91,25-2.32,28.12,10.38,2.7,11,.74,19.54-6.12,28.86-8.46,11.48-14.22,24.9-21.62,37.2q-13.11,21.76-27.07,43c-6.86,10.4-7.24,12.4,2.08,19.94,5.74,4.64,12.61,7.84,18.55,12.26,3,2.18,4.56,6.18,7.52,8.33,1.68,1.22,6.32,1.44,7.15.3,12.79-17.55,25.78-35,37.47-53.29,11-17.21,19.92-35.76,31-52.92,5.92-9.17,13.92-17.24,22-24.71s14.4-6.24,19.62,3.39c9.43,17.39,9.9,34.69-1.12,52.12-13.39,21.15-25.83,42.89-38.92,64.23-3.13,5.1-7.46,9.45-10.73,14.47-2.15,3.29-3.23,7.25-5.08,10.76a22.11,22.11,0,0,1-3.68,4.51c-5.07,5.42-5.21,12,.07,17.16q11.84,11.6,24,22.85c4.55,4.2,8,3.55,11.5-2.08,3.06-4.88,7.81-8.66,11.69-13.05,5.48-6.2,11.22-12.22,16.19-18.82q24.83-33,49.08-66.35c4.2-5.82,7.76-11.67,15.4-13.5,10.29-2.46,17.68,1.07,21.88,10.53,5.16,11.62,8.49,24.27,5.66,36.21-2.45,10.36-8.48,20.72-15.42,29-15.06,18-31.68,34.66-47.7,51.84-5.84,6.25-11.7,12.49-17.74,18.56-3,3-3.07,5.46,0,8.32,9,8.34,17.9,16.91,27.08,25.1,5.45,4.85,16.61,2.9,22.33-4.38,9-11.39,18.31-22.07,30.49-30.32,3.9-2.64,5.11-8.94,8.63-12.5,12-12.2,24.41-24.1,37-35.78,9-8.35,25.8-3,32.13,9.78,10.37,21-2.19,49.82-23.76,59.47-9.75,4.37-17.47,13.44-25.81,20.72-4.18,3.64-7.31,8.53-11.61,12-8.5,6.85-8.8,17.35-12.38,26.33-.77,1.94.9,5.48,2.4,7.61,9,12.74,18.32,25.28,27.51,37.9,2.68,3.68,5.13,7.53,8,11,4.07,5,8.62,9.68,12.6,14.78,8.62,11,17,22.25,25.5,33.4,3.2,4.21,6,8.81,9.66,12.57,8.07,8.31,13,17.77,13.59,29.5.17,3.14,1.92,6.23,3.18,9.25,10.19,24.48,6.56,47-13.34,64.23-11.62,10.09-26.13,17.17-40,24.28-26.32,13.48-53.5,25.24-82.44,31.87-12.66,2.9-25.88,3.25-38.81,5.06-20.22,2.83-40.45,5.71-60.58,9.14-2.71.46-6,3.78-7.09,6.54-6.38,16.35-5,32.9,1.37,48.82,1.94,4.88,6.7,8.78,10.58,12.73,14.18,14.44,14.27,32.87,13.89,51-.15,7-3.81,13.87-5.47,20.89a19,19,0,0,0,.06,8.16c1.5,6.89,4.58,13.64,4.95,20.56.68,12.7,9.23,16.3,19.1,19.17,15.93,4.64,31.27,5,47.34-1.46a76.63,76.63,0,0,1,33.25-5.46c15.21,1.17,24.08-9.06,34.65-15.61,9.11-5.64,6.64-18.21-3-23.6-30-16.75-40-48.07-33.26-79.15,2.78-12.87,12.19-20,22.72-26.55,13.87-8.67,29-14.6,44.84-12.16,9.48,1.47,18,9.29,26.88,14.48,14.47,8.52,19.7,23.63,26.15,37.74,1.27,2.79,1.33,6.54.84,9.67-2.75,17.35-6.46,34.28-22.29,45.34-3.26,2.29-5.94,5.47-8.68,8.43-8.71,9.38-6.74,19.18,5.53,22.55,12.59,3.47,25.73,4.91,38.55,7.56,22.52,4.67,45.23,4.26,67.88,2.05,6.55-.64,13-4,19.15-6.79,11.24-5.19,22.25-10.89,33.31-16.46a34.85,34.85,0,0,0,7.74-4.7c17.07-15.38,37.72-25.06,57.25-36.58,7.53-4.44,14-10.69,21.31-15.5,11.05-7.24,20.78-17.27,35.34-17.6,10-.23,16.83,4.09,20.66,13.46,10.79,26.36,1.79,47.4-25.89,58.23-15.75,6.16-32.82,9.3-48,16.54a515.92,515.92,0,0,0-63.28,35.56c-13.89,9.23-19.71,24.71-22.32,41.56-4.91,31.68.69,63,1.78,94.44,1.23,35.5,8.66,70,16.27,104.52q9.43,42.78,17.92,85.76c1.24,6.24.35,12.88,1.29,19.21,3.49,23.43,7.27,46.82,11.05,70.22,1.87,11.62,3.57,23.3,6.07,34.8s5.6,12.53,17,9.7a192.9,192.9,0,0,1,27.5-4.78c9-.87,16,4.44,23.6,8.58,17,9.2,14.21,24.57,14,39.2-.13,7.38-11.31,16.16-19.89,17.38-13.43,1.9-26.79,4.31-40.22,6.25a26.64,26.64,0,0,1-10.42-.2c-11-3-21.62-7.11-32.67-9.56-9.7-2.15-14.93-8.32-19.72-16.13-11.75-19.21-13.83-40.91-16.81-62.38-2.64-19-4.83-38.07-7.31-57.1-2.87-22-5-44.17-9-66a504.87,504.87,0,0,0-14.21-57.76c-4.89-15.85-16.16-20.64-32.21-16.44-7.1,1.86-14.22,3.74-21.44,5C1303.17,1289.21,1299,1288.64,1293.42,1288.64Zm-632-926.23c-.81-10.56-1.31-23.71-3-36.71-1.4-11-6.71-13.65-16.58-9-11.46,5.36-22.85,10.92-34,17-9.92,5.43-19.35,11.73-29.08,17.51-5.72,3.4-11.26,8-17.49,9.42-7.43,1.72-12.53,5.77-17.91,10.39-5.85,5-12.19,9.48-18.47,14-12.21,8.7-26.37,14.7-34.89,28.36a35.4,35.4,0,0,1-14.72,12.63c-10.06,4.59-17.51,11.78-24.68,19.62-2,2.23-3.48,5.11-5.77,7-12.47,10.24-25.35,20-37.66,30.45-10,8.48-17.71,19.74-16.51,32.69.76,8.3-.79,15.68-1.42,23.47-.25,3-.14,6.07-.11,9.1.1,10.51.82,21.06.26,31.53-1.35,25.37-4,50.68-4.83,76.06q-1.62,48.09-1.13,96.25c.22,21.62,12.57,32.23,34.15,32.28,10.34,0,20.7.78,31,1.63,25.68,2.11,51.31,4.33,77.07.76a196.85,196.85,0,0,1,29.48-2.19c31.92.4,63.84,3.16,95.7-.74,2-.25,5.09-3.66,5.25-5.78,1.55-20.88,2.58-41.79,3.76-62.7.16-2.77.35-5.55.42-8.32.29-11.72,1.54-23.52.57-35.13-1.3-15.51-6-30.87.08-46.34a9.08,9.08,0,0,0,.31-3c.46-28.8,1.25-57.61,1.2-86.41,0-16.31-1.37-32.63-2.2-48.94-1.2-23.42-.06-46.87-1.25-70.31-.4-7.87,1.89-15.84,2.26-23.8C661.76,383.73,661.43,374.35,661.43,362.41Zm77.85-35.17c-2,18.39-4.54,34.6-5.33,50.9-.57,11.76-5,23.69.2,35.54.71,1.59-.27,3.94-.51,5.94-1.49,12.49-3.65,24.94-4.26,37.47-.47,9.66,1.37,19.4,1.46,29.11,0,4.45-2.44,8.9-2.45,13.36-.1,31.69.1,63.38.28,95.08.1,17,1,34,.33,50.9-.82,19.87-3,39.68-4.6,59.52-1.3,16.29-2.81,32.56-3.82,48.87a206.14,206.14,0,0,0-.15,26.42c.41,6.16,6.15,9.49,10.87,6.32,7.6-5.1,15.53-4.62,23.2-2.16,17.13,5.5,34.36,4.12,51.71,2.36,3.66-.37,7.38-1.29,11-1,5,.43,9.86,2.59,14.77,2.55,9.33-.07,18.63-1.44,28-1.74,6.79-.22,13.61.8,20.4.59,9.59-.3,19.16-1.62,28.75-1.76,8.5-.13,17,.88,25.53,1.11,6,.16,12.31-1.44,17.91,0,13.45,3.44,18.44-.44,19.29-14,1.06-17,2.07-34.39,6.27-50.79a120.3,120.3,0,0,0,3.49-40.35,276.86,276.86,0,0,1-.44-38.64c1.19-19.6,4.29-39.1,5.2-58.71.93-20.14-1.31-40.43,5-60.18a24,24,0,0,0,.29-12.58c-4.71-18.5-14.64-33.55-30.75-44.33a193.12,193.12,0,0,1-18.07-13.48c-10.88-9.29-21.32-19.1-32.2-28.4-2.16-1.84-5.57-2.16-8.27-3.46-5.32-2.54-11.5-4.26-15.65-8.11-14.1-13.09-29.56-23.45-47.77-30.09-7.12-2.59-13.35-7.79-19.74-12.16-4.95-3.38-9.22-7.83-14.32-10.92-16.42-9.94-32.94-19.72-49.73-29C750.86,329.06,745.45,328.79,739.28,327.24ZM903,1376.3l.1-2.47c10.39,0,20.78.28,31.16-.06,19.17-.64,19.54,3.9,24.52-20.87.48-2.37,0-5-.29-7.45-1.28-10.74-3.23-21.42-3.85-32.19-.82-14.15-.63-28.36-.86-42.54-.2-12.06-.67-24.13-.45-36.18.12-7-.2-14.66,2.61-20.67,2-4.37,1.76-7.13.68-11-1.28-4.56-2.87-9.33-2.69-13.94.54-13.56,1.57-27.12,3-40.62,1.21-11.4-4.74-21.09-16.2-22.3-20.55-2.17-41.2-3.61-61.84-4.72-10.35-.55-20.77.34-31.15.47-2,0-5,.27-5.72-.79-3.65-5.63-9.1-4.59-14.25-4.49-10.9.19-21.56,2.78-32.17,4.12-18.68,2.38-38-.25-57.06-.87-1.48,0-2.94-1-4.41-1-16.68-.12-21.66-1.31-25.85,17.87-2.34,10.72-2.22,22-2.76,33.07-1.18,23.91-2.12,47.84-3,71.77-.09,2.4,0,6.06,1.49,7,4.54,3.09,2.43,6.37,1.69,10-2.12,10.38-7.54,20.22-4.11,31.52a53.13,53.13,0,0,1,1.94,16.44c-.36,15.36-1.65,30.69-1.9,46-.15,9.19,3.5,13.68,12.59,15.29,11.6,2,23.37,4,35.11,4.25,23.5.58,47,0,70.54-.08,3.8,0,7.61-.3,11.39-.08C855.2,1373.31,879.11,1374.82,903,1376.3ZM606.5,1360.2l0,1.14c6.33,0,12.69.34,19-.09,8.29-.56,10.84-3.84,11.08-12.13.23-7.54.77-15.07,1.29-22.6s1.6-14.9,1.66-22.35c0-4.68-2.14-9.39-2-14.05.34-12.13,1.45-24.23,2.15-36.36,1.19-20.59,2.46-41.18,3.36-61.79.28-6.29-.83-12.62-.75-18.93.16-11.84.94-23.68,1.05-35.53.09-10.62-2.89-13.76-13.53-13.29-4.64.21-9.16,3.76-13.78,3.87-14.14.3-28.31,0-42.45-.67-12.74-.59-25.44-2.05-38.18-2.84-3.73-.24-7.53.52-11.3.8-10.93.83-21.85,1.92-32.8,2.4-15.76.7-30.75-7.33-46.79-4.29a45.63,45.63,0,0,1-9,.36c-14.41-.16-28.82-.65-43.22-.51-9.85.1-14.73,3.48-15.28,10.38-1.48,18.33-2.88,36.68-3.58,55-.21,5.73,2.62,11.52,2.85,17.33.57,14.28-.43,28.65.79,42.85,1.72,20.07,4.81,40,7.49,60,.23,1.69,1.81,3.18,2.7,4.81,1.81,3.3,5,6.63,5,10,0,6.2-2.21,12.37-2.66,18.62-.16,2.16,1.93,6.26,3.46,6.5,20.6,3.25,41.22,6.56,62,8.57,9.58.92,19.52-5.66,29.13.91.7.47,2,.06,3,.09,16.82.6,33.63,1.51,50.44,1.73C560.6,1360.43,583.55,1360.2,606.5,1360.2Zm10-296.55c6.58,0,13.2.35,19.73-.22,2-.17,5.16-2.8,5.31-4.51,1.65-18.84,3.29-37.71,4-56.6.73-20.12,0-40.29.71-60.41,1-26.42,3-52.8,4-79.22.51-13.18-1.48-15.65-14.79-16.85-18.53-1.67-37.18-2.12-55.78-3.09-7.31-.38-14.63-1.15-21.93-.94-3.8.11-7.61,3.06-11.3,2.82-8.57-.56-17.08-2.23-25.61-3.54-5-.75-9.9-2.47-14.82-2.36-17.46.41-34.89,1.43-52.34,2.15a8.92,8.92,0,0,1-4.45-.62c-9.27-5-18.58-1.62-28-.7-6.64.64-13.74.82-20.1-.83-9.57-2.48-14.21-.37-15.7,9.74a56.29,56.29,0,0,0-.11,7.58c-.13,24,0,48-.5,72-.25,12.82-1.3,25.64-2.42,38.43-.43,4.93-3,9.75-3,14.62,0,15.61,1,31.2,1.23,46.81a33.32,33.32,0,0,1-1.85,10.41c-3.55,11.16-3.07,12.35,7.95,15.36a42.07,42.07,0,0,0,8.89,1.72c15.37.76,30.74,1.35,46.12,1.94,11.35.43,22.71.63,34.05,1.17,19.39.91,38.76,2.63,58.15,2.83,14.91.16,29.85-1.52,44.78-2.33,1.5-.08,3.31-.36,4.48.31C593.71,1065.44,605.09,1064.79,616.51,1063.65Zm148-220.94c-10.89.95-19.93,2.1-29,2.42-6.41.22-12.66,0-15.82,7-2.65,5.81-6.75,11.69-7,17.69-.58,11.78,1.08,23.67,1.74,35.51.85,15.14,1.66,30.28,2.35,45.42a33.84,33.84,0,0,1-.83,6.74c-1,6.35-2.65,12.66-2.89,19-.86,22.7-1.32,45.42-1.72,68.14-.08,4.49,1.55,9.11,1,13.48-.76,6,1.63,8,7,8,31.58.35,63.17,1,94.75.94,13.36,0,26.74-2,40.09-1.84,17.31.27,34.6,1.9,51.9,2.89,11.58.66,23.17,1.63,34.76,1.72,11,.08,20.82-2.63,21.15-14.77q1.09-39.36,3.2-78.69c.49-9.19,2.5-18.29,3.43-27.48a86.2,86.2,0,0,0,0-13.25c-.4-8-1.68-16.12-1.4-24.14.63-18.09,2.22-36.14,3-54.23.3-7.57-4.45-12-12-12.69-8.54-.74-17.08-1.57-25.64-2.09a10.87,10.87,0,0,0-5.6,1.54c-7.21,4-15.31,2.93-21.75-2.27-2.21-1.78-6.38-3.28-8.72-2.41-12.47,4.66-25.93,4.33-38.62,6.29-20.38,3.15-41.73.31-62.65-.44C784.29,844.81,773.54,843.46,764.56,842.71Zm359.73,242.81c-3.87,3.8-6.43,6.15-8.79,8.69-1.46,1.55-3.6,3.29-3.76,5.09-1.29,14.52-2.92,29.07-2.87,43.61,0,7.42,3.84,14.74,5,22.25,2.17,14.2,2.22,28.89,5.89,42.65,3,11.09,9.63,21.29,15.44,31.44,1.07,1.86,5.92,2.29,9,2.16,14.13-.63,28.31-1.14,42.36-2.7,23.29-2.59,46.63-5.17,69.69-9.23,18.27-3.22,37.21-5.32,53-17,2.07-1.54,5.13-2.15,7.81-2.38,15.44-1.31,21.85-7.81,21.64-23.38-.12-8.81-1.64-17.6-1.87-26.43-.63-23.75-.91-47.51-1.33-71.27-.23-12.93-8.6-21.86-21.23-22.87a155,155,0,0,1-16.54-1.9c-10.75-2.07-21.46-5.59-31.08,3.37-1.23,1.14-3.86.83-5.85,1.1-3.49.46-7,1-10.51,1.24-16.83,1.34-33.78,4.39-50.47,3.34a121.56,121.56,0,0,0-38.82,3.31C1148,1079.93,1135,1082.92,1124.29,1085.52Zm-54.86-299.47.51,2.38c5.68-2,12.14-2.94,16.87-6.3,11.76-8.33,25.43-11,38.7-14.93,3.62-1.08,7.74-1,11-2.65,22.27-11.38,44.47-22.9,66.47-34.77,8.33-4.5,9.06-7.56,3.62-15q-21.91-29.89-44.58-59.26c-10.38-13.37-21.3-26.31-32.27-39.2-10-11.69-15.43-27.5-31.1-34-1.53-.64-2.78-2.19-3.91-3.53-9.59-11.37-18.93-23-28.8-34.08-2.23-2.52-7.22-5.55-9.21-4.63-3.27,1.53-6.89,5.88-7.29,9.4-2.25,19.75-4.09,39.59-5.12,59.45-1.49,28.73-1.53,57.54-3.37,86.24-1.76,27.42-4.94,54.75-7.69,82.1-.64,6.31,5.45,12.79,11.81,11.94C1053.19,788.13,1061.31,787.1,1069.43,786.05Zm-792.74-3.89.3-2.57h22.79c10.63-.57,14.86-4.49,14.29-14.72-.83-14.85-2.67-29.65-3.38-44.51-.26-5.36,2-10.8,2.27-16.24.83-18,1.29-36.09,1.82-54.15.4-13.62,1-27.26.81-40.88,0-3.38-2.06-9.1-4.14-9.59-4.47-1.06-11-1.11-14.11,1.51-5.57,4.75-9.23,11.76-13.68,17.82-2,2.73-3.48,6.14-6.07,8.07a158.77,158.77,0,0,0-42.35,47c-9,15.33-15.28,32.32-24.32,47.65-5.8,9.82-5.77,18.92-2.91,29,.83,2.92,1.76,5.81,2.54,8.74,3.2,12.1,6.29,14.78,18.55,16,1,.1,2,.34,3,.49Z"/></svg>