<svg xmlns="http://www.w3.org/2000/svg" viewBox="0 0 1600 1600"><style>path, polygon, rect {fill: #000;}</style><path d="M1189.72,1021.86c-2.06,2.34-5.2,4.85-9.6.72-.68-.64-2.61.1-4,.1-5.77,0-11.56-.33-17.31,0-4.22.25-8.37,1.84-12.58,2-13.36.45-27,2.17-40,.24-13.92-2.05-24.7,3.21-35.79,9.26-1.79,1-3.83,3.34-4,5.2-1.22,16.61-2.57,33.24-2.77,49.88-.12,10.29,1.68,20.59,2.62,30.89,1,11.21,1.63,22.49,3.24,33.61a62.92,62.92,0,0,0,5.42,18.19c4.45,9.19,14.64,13.43,24.74,11.5,13.9-2.66,22.8,1.77,27.51,13.68,4.28,10.82-.2,26-10.21,31.55-4.73,2.64-10.41,4-15.84,4.88-10.79,1.64-21.71,3.43-32.57,3.43-12.79,0-26.1-12.84-28.38-25.87q-4.66-26.71-8.81-53.53c-.89-5.82-.84-11.78-1.33-17.67-1.45-17.4-3.14-34.79-4.39-52.21-.93-13-1-26.1-2.05-39.11-1.07-12.85-2.43-25.72-4.62-38.42-4-23.38-8.93-46.6-13.15-69.95-3-16.58-4.72-33.41-8.39-49.82-3-13.53-8.11-26.59-12.21-39.89-1.11-3.6-2.44-7.24-2.8-10.94-.37-3.86-2.22-4.55-5.49-4.43s-4.66,1.67-4.5,4.88c.6,11.93,1.36,23.85,1.68,35.79.48,17.69.5,35.4,1,53.09.2,7.34,1.48,14.65,1.57,22,.16,12.08,1,24.38-.78,36.22-1.93,12.49,2.15,23.8,3.31,35.66a15.84,15.84,0,0,1-.76,7c-3.42,9-3.76,18.16-3.61,27.62.31,19.72.22,39.44-.13,59.16-.09,5.26.72,11.35-5.15,14.83-.23,9.73-7.73,9.93-14.51,11-3.72.6-7.45,1.51-11.19,1.54-18.54.18-37.09.45-55.62,0-10-.25-20-2.34-30.06-2.74-6.41-.26-12.87,1.08-19.32,1.64-2.92.26-6.11,1.22-8.73.41-16.87-5.17-34.13-5.18-51.5-5.07-13.92.09-27.84-.8-41.76-1-4.57-.06-8.92-.55-13.67,2.26-3.31,2-9.12-.52-13.82-.69-14.52-.53-29-.85-43.56-1.35-25.83-.9-51.67-1.9-77.5-2.78-4.79-.16-9.6.29-14.37,0-5.93-.3-11.83-1.22-17.76-1.5-3.74-.18-7.52.37-11.28.48-4.45.13-9.16,1.14-13.3,0-18.43-4.92-36.88-8.07-56.07-5.38-4.8.67-9.9-.43-14.81-1.12-7.91-1.11-15.57-1.69-23.18,2-2,1-5.19-.43-7.82-.77-.9-.12-2-.75-2.63-.43-4.93,2.49-7-1-7.88-4.43a62.37,62.37,0,0,1-2-15.84c.16-9.32.25-18.26-2.17-27.65-2.46-9.58-1.06-20.14-1.5-30.26-.18-4.22-.75-8.41-1.18-12.62-.07-.78-.4-1.55-.42-2.33-.39-13.82-.68-27.64-1.15-41.46-.4-11.87-1.43-23.73-1.42-35.59,0-12.71,1.07-25.41,1.38-38.12.21-8.37-.71-16.82,0-25.13s2.86-16.67,4.37-25c.28-1.54.6-3.08.74-4.64.6-6.72,1.45-13.44,1.6-20.17.12-5.32-.91-10.66-1-16-.35-35.29-.85-70.58-.71-105.86.06-13.67,2.05-27.31,2.43-41,.29-10.39-2.86-13.76-12.76-16.25a8.45,8.45,0,0,0-2.84-.14c-5.23.46-10.78,2.32-15.62,1.16a132.25,132.25,0,0,0-23.43-3.25c-1-.05-2.22-.41-2.95,0-6.59,3.85-11.88,0-17.8-2.22-5.11-1.92-10.85-2.37-16.37-3-4.51-.48-9.48,1.78-13.2-2.78-.44-.55-2-.57-2.86-.32-9.27,2.57-14.72-2.85-19.69-9.28-1.58-2-2.55-4.91-4.57-6.23-8-5.22-7.95-13-7.82-21.12.08-5.54-.69-11.11-1.23-16.65-.75-7.55,2.13-13.76,6-20.07A299.3,299.3,0,0,0,297.61,555c.88-1.83.32-5.47-1-7.06a84.23,84.23,0,0,0-12.29-12c-10.13-8-20.52-15.61-30.92-23.22-11.4-8.34-23-16.42-34.39-24.75-10.39-7.59-12-27.82-2.6-36.73a12.14,12.14,0,0,1,9.48-2.68,70.2,70.2,0,0,1,32.86,17.16c8.69,8,19.76,13.29,29.57,20.09,3.13,2.17,5.3,5.7,8.38,8,7.48,5.49,15.13,10.77,23,15.71,1.19.75,4.69-.1,5.64-1.35,5.4-7.11,10.41-14.53,15.45-21.92,2.2-3.23,1.3-5.53-1.86-8-11-8.75-21.47-18.19-32.63-26.73-8.51-6.51-18.16-11.55-26.55-18.19a162.38,162.38,0,0,1-21.89-20.86c-2.93-3.39-3.34-9-4.73-13.63-.31-1.07.11-2.36.16-3.55.1-2.64-.71-7.06.4-7.61,6.74-3.31,13.18-8.48,21.75-4.61,14.68,6.62,27,16.45,38.76,27.19,14.68,13.41,29.59,26.58,44.33,39.92,3.2,2.89,6.48,3.14,9.7.56,7.42-5.94,14.65-12.1,22-18.12,3.6-2.95,2.76-6-.07-8.61-9.16-8.52-18.44-16.9-27.7-25.3-5.6-5.08-11.2-10.15-16.9-15.11-9.7-8.46-19.21-17.16-29.31-25.12-7.25-5.72-10-12.81-8.76-21.46.48-3.44,2.61-6.66,4.06-10,.31-.7,1.28-1.24,1.32-1.9.58-8.55,7.05-6.91,11.86-6.16,16.57,2.6,31.85,8.37,44.3,20.24,14.12,13.44,28.41,26.69,42.43,40.22,3.52,3.4,6.33,7.52,9.46,11.31s7.59,3.4,10.84-.39q12.81-14.91,26.12-29.39c3.72-4,4-7.64-.27-10.93-13.84-10.71-27.92-21.12-41.56-32.08-15.29-12.3-31.74-23.11-44.72-38.32-8.53-10-8.28-20.47-5.9-31.68.43-2,3.91-3.45,6.12-4.94,1.56-1.05,3.51-1.54,5-2.66,9.32-7,23.64-6.91,31.87,1.38,14.27,14.38,28.28,29,42.82,43.13,11.29,11,23.21,21.28,34.84,31.89a46.71,46.71,0,0,1,4.25,4.19c2.83,3.33,5.62,3.12,8.75.41,7-6.07,13.91-12.32,21.27-18,4.09-3.13,4.5-6.31,2.12-10.2-7.6-12.39-15-24.87-23.07-37-12.08-18.26-25-36-36.74-54.42-5.14-8.07-9.95-16.71-9.05-27.23.88-10.28,13.45-23.63,22.49-22.33a27.87,27.87,0,0,1,19.48,11.69c10.64,15.84,20.46,32.24,30.68,48.36,7.76,12.23,15.67,24.37,23.45,36.6,1.91,3,3.35,6.35,5.37,9.29,2.43,3.53,5.25,6.8,7.83,10.1,11.33-7.21,21.91-13.77,32.29-20.63,5.2-3.44,5.24-6.94,1.75-12a94.23,94.23,0,0,1-7.68-13.42c-5.26-11.16-10.2-22.47-15.3-33.71-3.94-8.65-8-17.24-11.77-26-.75-1.75-.11-4.08-.11-6.33-6.84-4.27-7.8-12.53-11.37-19.15-4.4-8.16-4.22-17.23-4-26.17a14.27,14.27,0,0,1,1.84-6.21c4.19-7.8,16.22-12.85,24.52-10,2.56.9,4.63,3.41,6.73,5.39,11.88,11.21,22,24.22,28.39,38.9,9.44,21.68,16.37,44.46,24.36,66.77a5.1,5.1,0,0,1,.19,1.18c1.41,12,5.9,14.2,16.94,8.75,6.69-3.29,13.58-6.19,20.49-9,4.2-1.7,5.69-4.53,5-8.86-3.31-21-6.77-41.89-9.81-62.89-1.64-11.32-2.91-22.72-3.71-34.12-1.05-15.09-1.21-30.25-2.25-45.34-1-14.05,10.26-24.8,24.5-25,8.4-.12,16.53,7.72,18.71,19a191,191,0,0,1,3.2,27c1.1,21.89,1.76,43.81,2.42,65.72.1,3.11-.77,6.25-1.15,9.38-1.74,14.15-1.43,27.88,8.56,39.46a10.54,10.54,0,0,0,4.19,3.19,129.49,129.49,0,0,0,17,5c5.85,1.13,10.44-1,14.4-6.12,8.33-10.79,10-23.48,12.2-36.2,2.32-13.32,4.65-26.64,11-38.9,1.16-2.25.71-5.81-.06-8.46-2.66-9.09,1.62-23.15,9.81-27.53,2.83-1.51,7.38-.79,10.82.14,2.67.72,4.93,3.23,7.21,5.13s4.4,4.06,6.57,6.12c13.8,13.17,14.13,14.15,7.09,32-12.11,30.74-24.44,61.4-36.52,92.16-.69,1.73-.73,5.35.11,5.78a133.79,133.79,0,0,0,17.32,7.33c.73.25,3.34-2.27,3.61-3.77,2.56-13.93,10-25.52,17.54-37,6.22-9.48,12.94-18.64,18.92-28.27,2.72-4.38,4.34-9.48,6.21-14.34,3.54-9.23,10.39-20.09,22.51-18.34a28,28,0,0,1,8.59,3.31,9.47,9.47,0,0,1,3.76,3.77c3.67,6.95,10.59,14.41,9.88,21-1.31,12.07-8,23.08-17.78,31.52a48.68,48.68,0,0,0-9.54,10.92c-6.71,10.82-13,21.93-19.23,33-1.75,3.11-3.55,6.4-4.25,9.82-.54,2.66-.44,7,1.19,8.26,6,4.66,12.69,8.34,19.15,12.36.29.19.79,0,1.18.08,10.81,2,10.76,2,15.47-7.34C883,237.79,891,219.29,904.37,204c6.25-7.15,12.18-14.66,19.07-21.14,7.47-7,19.7-1.83,22.16,8.17,2.13,8.66.58,15.4-4.82,22.74-6.67,9.05-11.21,19.62-17,29.31q-10.32,17.15-21.32,33.88c-5.41,8.2-5.71,9.77,1.64,15.71,4.51,3.65,9.93,6.18,14.61,9.66,2.32,1.72,3.59,4.87,5.93,6.56,1.32,1,5,1.14,5.63.24,10.08-13.83,20.31-27.59,29.52-42,8.67-13.56,15.7-28.18,24.43-41.7,4.66-7.22,11-13.58,17.33-19.47s11.35-4.92,15.47,2.67c7.43,13.7,7.8,27.34-.89,41.07-10.55,16.67-20.35,33.8-30.67,50.61-2.46,4-5.88,7.45-8.45,11.4-1.69,2.6-2.55,5.71-4,8.48a17.48,17.48,0,0,1-2.9,3.55c-4,4.27-4.11,9.44,0,13.52q9.33,9.15,18.92,18c3.58,3.31,6.28,2.8,9.06-1.64,2.41-3.84,6.16-6.82,9.21-10.28,4.32-4.88,8.84-9.63,12.76-14.83q19.56-26,38.67-52.28c3.31-4.58,6.12-9.19,12.14-10.63,8.1-1.95,13.93.84,17.24,8.29,4.07,9.15,6.69,19.12,4.46,28.53-1.93,8.16-6.69,16.33-12.15,22.85-11.87,14.17-25,27.32-37.59,40.85-4.6,4.93-9.22,9.84-14,14.62-2.35,2.35-2.43,4.3,0,6.56,7.13,6.57,14.1,13.32,21.34,19.78,4.29,3.82,13.09,2.28,17.59-3.45,7-9,14.43-17.4,24-23.89,3.07-2.08,4-7.05,6.8-9.86,9.48-9.61,19.23-19,29.11-28.19,7-6.58,20.33-2.39,25.32,7.71,8.17,16.54-1.73,39.25-18.72,46.86-7.69,3.44-13.77,10.59-20.35,16.32-3.29,2.87-5.75,6.73-9.14,9.45-6.7,5.4-6.94,13.67-9.76,20.75-.61,1.53.71,4.32,1.9,6,7.1,10,14.43,19.92,21.68,29.86,2.1,2.9,4,5.93,6.29,8.71,3.2,4,6.79,7.63,9.92,11.64,6.8,8.7,13.41,17.53,20.1,26.32,2.52,3.32,4.73,6.94,7.61,9.91,6.36,6.54,10.2,14,10.71,23.24.13,2.47,1.51,4.91,2.5,7.29,8,19.28,5.17,37-10.51,50.6-9.16,8-20.59,13.54-31.54,19.14-20.74,10.62-42.16,19.88-65,25.11-10,2.28-20.39,2.56-30.57,4-15.94,2.23-31.88,4.5-47.74,7.2-2.14.36-4.74,3-5.59,5.16-5,12.88-3.91,25.91,1.08,38.46,1.53,3.85,5.28,6.92,8.33,10,11.18,11.38,11.25,25.9,10.95,40.21-.11,5.51-3,10.93-4.31,16.46a15,15,0,0,0,0,6.43c1.18,5.43,3.61,10.75,3.9,16.2.54,10,7.27,12.85,15.05,15.11,12.55,3.65,24.64,3.93,37.3-1.16a60.38,60.38,0,0,1,26.2-4.29c12,.92,19-7.15,27.31-12.31,7.17-4.44,5.22-14.34-2.4-18.59-23.66-13.2-31.52-37.88-26.21-62.37,2.19-10.14,9.61-15.74,17.9-20.92,10.93-6.83,22.85-11.5,35.34-9.58,7.47,1.15,14.21,7.32,21.17,11.41,11.41,6.71,15.53,18.62,20.61,29.73a14.12,14.12,0,0,1,.66,7.62c-2.17,13.68-5.09,27-17.56,35.73a45.62,45.62,0,0,0-6.84,6.64c-6.86,7.4-5.31,15.11,4.36,17.77,9.92,2.73,20.27,3.87,30.37,6,17.75,3.68,35.64,3.36,53.48,1.62,5.17-.51,10.25-3.12,15.09-5.36,8.86-4.08,17.54-8.57,26.25-13a27.28,27.28,0,0,0,6.1-3.7c13.45-12.12,29.72-19.75,45.11-28.82,5.93-3.5,11-8.42,16.79-12.21,8.71-5.71,16.37-13.61,27.85-13.87,7.91-.18,13.26,3.22,16.28,10.6,8.5,20.77,1.41,37.35-20.4,45.89-12.41,4.85-25.86,7.32-37.81,13a407.06,407.06,0,0,0-49.87,28c-10.94,7.27-15.53,19.47-17.59,32.74-3.86,25,.55,49.63,1.41,74.42,1,28,6.82,55.16,12.82,82.36q7.44,33.71,14.12,67.57c1,4.92.28,10.15,1,15.13,2.74,18.47,5.73,36.9,8.7,55.33,1.48,9.17,2.81,18.37,4.79,27.43s4.4,9.87,13.41,7.64a150,150,0,0,1,21.66-3.76c7.07-.69,12.58,3.49,18.6,6.75,13.38,7.25,11.19,19.37,11,30.89-.1,5.82-8.91,12.74-15.67,13.69-10.58,1.5-21.11,3.41-31.69,4.93a20.78,20.78,0,0,1-8.21-.16c-8.63-2.33-17-5.6-25.74-7.53-7.65-1.69-11.77-6.55-15.54-12.71-9.26-15.13-10.9-32.24-13.25-49.15-2.08-15-3.8-30-5.76-45-2.26-17.35-3.95-34.8-7.09-52a398.25,398.25,0,0,0-11.2-45.52c-3.85-12.48-12.73-16.26-25.38-12.95-5.59,1.46-11.2,2.95-16.89,3.94C1197.41,1022.31,1194.09,1021.86,1189.72,1021.86ZM691.74,292c-.63-8.32-1-18.68-2.33-28.93-1.11-8.64-5.29-10.74-13.07-7.11-9,4.22-18,8.61-26.75,13.39-7.82,4.28-15.25,9.24-22.91,13.8-4.51,2.67-8.88,6.28-13.78,7.42-5.86,1.35-9.87,4.55-14.12,8.19-4.61,3.95-9.6,7.46-14.55,11-9.62,6.86-20.78,11.59-27.49,22.35a27.91,27.91,0,0,1-11.6,10c-7.92,3.61-13.8,9.27-19.45,15.45-1.6,1.76-2.74,4-4.54,5.51-9.83,8.07-20,15.77-29.68,24-7.88,6.69-14,15.56-13,25.76.61,6.54-.62,12.36-1.12,18.5-.19,2.37-.11,4.78-.08,7.17.08,8.28.65,16.59.2,24.84-1.06,20-3.12,39.94-3.8,59.93q-1.29,37.9-.9,75.84c.18,17,9.91,25.4,26.92,25.44,8.14,0,16.3.61,24.43,1.28,20.23,1.67,40.43,3.41,60.72.6a154.87,154.87,0,0,1,23.24-1.72c25.15.31,50.3,2.49,75.4-.59,1.6-.2,4-2.88,4.14-4.56,1.22-16.45,2-32.93,3-49.4.13-2.18.28-4.37.33-6.55.23-9.24,1.22-18.54.45-27.69-1-12.22-4.72-24.32.06-36.51a6.86,6.86,0,0,0,.25-2.37c.36-22.69,1-45.39,1-68.09,0-12.85-1.08-25.71-1.74-38.56-1-18.45,0-36.93-1-55.4-.31-6.2,1.5-12.48,1.78-18.75C692,308.84,691.74,301.44,691.74,292Zm61.35-27.71c-1.59,14.49-3.58,27.27-4.2,40.11-.45,9.27-4,18.66.16,28,.56,1.25-.22,3.11-.41,4.68-1.17,9.84-2.88,19.65-3.36,29.53-.37,7.6,1.09,15.28,1.16,22.94,0,3.5-1.92,7-1.93,10.52-.08,25,.08,49.94.22,74.92.08,13.37.81,26.76.26,40.1-.65,15.66-2.37,31.27-3.62,46.9-1,12.84-2.22,25.66-3,38.51a164.38,164.38,0,0,0-.12,20.82c.32,4.85,4.85,7.48,8.57,5,6-4,12.24-3.65,18.28-1.71,13.5,4.34,27.07,3.25,40.74,1.87,2.89-.3,5.82-1,8.67-.78,3.91.33,7.76,2,11.64,2,7.34-.06,14.68-1.14,22-1.38,5.34-.17,10.72.64,16.07.47,7.55-.24,15.09-1.27,22.65-1.39,6.7-.1,13.41.7,20.12.88,4.72.12,9.7-1.14,14.11,0,10.6,2.71,14.53-.35,15.2-11,.84-13.42,1.63-27.1,4.94-40a94.55,94.55,0,0,0,2.75-31.8,219.34,219.34,0,0,1-.35-30.44c1-15.45,3.39-30.81,4.1-46.26.74-15.87-1-31.86,3.94-47.42a18.93,18.93,0,0,0,.23-9.91c-3.71-14.58-11.54-26.44-24.23-34.93a153.46,153.46,0,0,1-14.24-10.62c-8.57-7.32-16.79-15.06-25.37-22.38-1.7-1.46-4.39-1.71-6.52-2.73-4.19-2-9.06-3.35-12.33-6.39-11.11-10.32-23.29-18.48-37.64-23.71-5.61-2-10.52-6.14-15.55-9.58-3.91-2.67-7.27-6.17-11.29-8.61-12.93-7.83-26-15.53-39.18-22.85C762.21,265.76,758,265.54,753.09,264.32Zm129,826.61.09-2c8.18,0,16.37.22,24.55,0,15.1-.5,15.39,3.07,19.32-16.44a19.38,19.38,0,0,0-.23-5.87c-1-8.46-2.54-16.88-3-25.37-.65-11.14-.5-22.34-.68-33.52-.16-9.5-.53-19-.36-28.5.1-5.5-.15-11.56,2.06-16.29,1.61-3.44,1.39-5.61.54-8.67-1-3.6-2.26-7.35-2.12-11,.42-10.68,1.24-21.37,2.37-32,.95-9-3.73-16.62-12.76-17.57-16.2-1.71-32.47-2.84-48.73-3.71-8.15-.44-16.37.26-24.55.37-1.55,0-4,.21-4.51-.63-2.87-4.44-7.16-3.61-11.23-3.54-8.58.16-17,2.19-25.34,3.25-14.72,1.87-30-.2-45-.68-1.17,0-2.32-.78-3.48-.78-13.14-.1-17.07-1-20.37,14.08-1.84,8.44-1.74,17.34-2.17,26.05-.93,18.85-1.67,37.7-2.36,56.55-.07,1.9,0,4.78,1.17,5.56,3.57,2.43,1.92,5,1.33,7.9-1.67,8.17-5.94,15.93-3.24,24.83a41.54,41.54,0,0,1,1.53,13c-.28,12.1-1.3,24.18-1.49,36.28-.12,7.24,2.75,10.78,9.92,12,9.14,1.62,18.41,3.12,27.66,3.35,18.51.45,37.05,0,55.58-.07,3,0,6-.24,9-.06C844.43,1088.57,863.27,1089.76,882.1,1090.93Zm-233.63-12.69v.9c5,0,10,.27,15-.07,6.53-.45,8.54-3,8.73-9.56.17-5.94.6-11.87,1-17.8s1.26-11.75,1.3-17.62c0-3.68-1.68-7.39-1.57-11.06.26-9.56,1.14-19.1,1.69-28.65.94-16.23,1.93-32.46,2.65-48.7.22-4.95-.66-9.94-.59-14.91.12-9.33.74-18.66.82-28,.07-8.37-2.28-10.84-10.66-10.46-3.65.16-7.22,3-10.85,3-11.15.24-22.32,0-33.45-.53-10-.46-20-1.62-30.09-2.24-2.94-.18-5.93.41-8.9.64-8.62.65-17.22,1.5-25.85,1.89-12.41.55-24.23-5.78-36.87-3.38a36.31,36.31,0,0,1-7.08.28c-11.35-.13-22.7-.52-34.05-.4-7.76.08-11.61,2.74-12.05,8.18-1.16,14.44-2.27,28.9-2.81,43.38-.18,4.51,2.06,9.07,2.24,13.65.45,11.25-.34,22.57.62,33.76,1.36,15.81,3.79,31.53,5.9,47.28.18,1.33,1.43,2.51,2.13,3.79,1.43,2.6,4,5.22,4,7.84,0,4.88-1.74,9.75-2.1,14.67-.12,1.7,1.52,4.93,2.73,5.12,16.23,2.56,32.49,5.17,48.83,6.75,7.55.73,15.39-4.45,23,.72.55.38,1.56,0,2.36.08,13.25.47,26.49,1.18,39.75,1.36C612.3,1078.42,630.38,1078.24,648.47,1078.24Zm7.88-233.67c5.19,0,10.4.28,15.55-.17,1.54-.13,4.06-2.2,4.18-3.55,1.3-14.85,2.6-29.71,3.14-44.6.58-15.85,0-31.75.56-47.6.75-20.82,2.35-41.6,3.16-62.42.4-10.39-1.17-12.33-11.65-13.28-14.61-1.31-29.3-1.67-44-2.43-5.76-.3-11.53-.91-17.28-.74-3,.09-6,2.41-8.9,2.22-6.76-.44-13.46-1.76-20.18-2.79-3.9-.59-7.8-2-11.68-1.86-13.75.32-27.49,1.12-41.24,1.69a7,7,0,0,1-3.5-.48c-7.31-4-14.65-1.28-22.07-.56-5.23.51-10.82.65-15.84-.65-7.54-2-11.2-.29-12.37,7.67a44.12,44.12,0,0,0-.08,6c-.11,18.92,0,37.84-.4,56.75-.2,10.11-1,20.21-1.9,30.28-.34,3.89-2.36,7.69-2.35,11.53,0,12.29.75,24.58,1,36.88a26.33,26.33,0,0,1-1.46,8.2c-2.8,8.79-2.42,9.73,6.26,12.1a33.29,33.29,0,0,0,7,1.36c12.11.6,24.22,1.06,36.34,1.53,8.94.34,17.89.49,26.83.92,15.27.72,30.54,2.07,45.81,2.23,11.76.12,23.53-1.2,35.29-1.84,1.18-.06,2.61-.28,3.53.25C638.39,846,647.36,845.48,656.35,844.57ZM773,670.48c-8.59.76-15.71,1.66-22.85,1.91-5.06.18-10,0-12.47,5.48-2.08,4.58-5.31,9.21-5.55,13.94-.45,9.28.86,18.65,1.38,28,.66,11.93,1.3,23.85,1.85,35.79a27.72,27.72,0,0,1-.65,5.31c-.78,5-2.1,10-2.28,15-.68,17.89-1,35.79-1.36,53.69-.06,3.54,1.22,7.18.78,10.62-.61,4.71,1.27,6.27,5.48,6.32,24.88.27,49.77.75,74.66.73,10.53,0,21.07-1.61,31.58-1.45,13.65.22,27.27,1.5,40.9,2.28,9.13.52,18.25,1.29,27.39,1.35,8.63.07,16.4-2.07,16.67-11.63q.86-31,2.52-62c.38-7.25,2-14.42,2.7-21.66a70,70,0,0,0,0-10.44c-.32-6.34-1.33-12.7-1.11-19,.5-14.25,1.75-28.48,2.32-42.73.25-6-3.5-9.48-9.46-10-6.73-.58-13.46-1.24-20.2-1.64a8.55,8.55,0,0,0-4.41,1.21c-5.68,3.18-12.06,2.31-17.14-1.79-1.74-1.41-5-2.59-6.87-1.9-9.82,3.67-20.43,3.41-30.43,5-16.06,2.48-32.88.24-49.37-.35C788.56,672.14,780.08,671.08,773,670.48ZM1056.45,861.8c-3,3-5.06,4.86-6.92,6.85-1.15,1.23-2.84,2.6-3,4-1,11.44-2.31,22.9-2.26,34.36,0,5.84,3,11.61,3.93,17.53,1.71,11.19,1.75,22.77,4.64,33.61,2.33,8.74,7.59,16.78,12.17,24.77.84,1.47,4.66,1.8,7.06,1.7,11.14-.49,22.31-.89,33.38-2.12,18.35-2,36.75-4.08,54.91-7.28,14.4-2.54,29.32-4.19,41.73-13.39a12.49,12.49,0,0,1,6.15-1.88c12.18-1,17.22-6.15,17.06-18.42-.1-6.95-1.29-13.87-1.48-20.82-.49-18.72-.71-37.45-1-56.17-.18-10.18-6.78-17.22-16.73-18a118.08,118.08,0,0,1-13-1.5c-8.47-1.62-16.91-4.4-24.5,2.66-1,.9-3,.66-4.6.87-2.76.36-5.51.76-8.28,1-13.27,1.05-26.62,3.46-39.77,2.63a95.5,95.5,0,0,0-30.59,2.61C1075.16,857.4,1064.92,859.76,1056.45,861.8Zm-43.22-236c.13.63.27,1.25.4,1.87,4.47-1.59,9.57-2.32,13.3-5,9.26-6.57,20-8.63,30.49-11.76,2.85-.85,6.1-.78,8.67-2.09,17.55-9,35-18,52.38-27.4,6.57-3.54,7.13-6,2.85-11.79q-17.27-23.57-35.13-46.7c-8.17-10.53-16.78-20.73-25.42-30.88-7.85-9.22-12.16-21.67-24.5-26.82a9.25,9.25,0,0,1-3.09-2.78c-7.55-9-14.91-18.09-22.69-26.86-1.76-2-5.69-4.37-7.26-3.64-2.57,1.2-5.43,4.63-5.74,7.4-1.78,15.57-3.22,31.2-4,46.85-1.18,22.63-1.21,45.33-2.66,68-1.39,21.61-3.9,43.14-6.06,64.7-.5,5,4.29,10.07,9.3,9.4C1000.44,627.48,1006.83,626.67,1013.23,625.84Zm-624.64-3.07.24-2h17.95c8.38-.45,11.71-3.54,11.26-11.59-.65-11.71-2.1-23.37-2.66-35.08-.2-4.22,1.59-8.51,1.79-12.79.65-14.22,1-28.45,1.43-42.67.32-10.74.76-21.48.64-32.21,0-2.66-1.62-7.17-3.26-7.56-3.52-.84-8.7-.88-11.12,1.19-4.39,3.74-7.27,9.26-10.78,14-1.57,2.15-2.74,4.84-4.78,6.36a125,125,0,0,0-33.37,37c-7.12,12.08-12,25.47-19.17,37.55-4.56,7.74-4.54,14.91-2.29,22.81.66,2.3,1.39,4.57,2,6.89,2.52,9.53,4.95,11.64,14.61,12.59.8.08,1.57.28,2.36.39Z"/><path d="M324.32,1404.24c-3.1.55-6.45.52-9.24,1.76-6.28,2.79-10.27-.7-14.94-3.87-2.73-1.85-6.51-2.55-9.91-2.92a33.05,33.05,0,0,1-18.33-7.76c-5.43-4.53-12.41-7.23-17.73-11.86-11.94-10.41-24-20.85-34.61-32.56-9.39-10.39-17.45-22.13-25-34-9.09-14.29-12.31-30.88-15.9-47.2-1.8-8.14-4.74-16.24-5.13-24.45-.66-14-1.4-28.27.95-41.9a351.27,351.27,0,0,1,14.71-57.13c4.77-13.53,13.24-25.77,20.13-38.54.53-1,1.67-1.61,2.48-2.44,5.33-5.5,10.72-10.54,14.43-17.84,3-6,10.25-10,16-14.37,6.22-4.76,12.81-9,19.36-13.34,4.64-3,9.44-5.83,14.25-8.59a4.68,4.68,0,0,1,3.44-.64c4.46,1.62,8.68.54,13.05-.33a7,7,0,0,1,5.29,1.55c9.57,8.77,16.9,19,19.69,32,2.4,11.2-3.9,28.42-20.26,30.27-14.83,1.68-28.71,8.33-40.94,17.24-3.69,2.68-6.17,7.1-8.94,10.92s-4.8,8.33-7.92,11.85c-7.28,8.21-10,18.49-13.63,28.31-5,13.36-11.37,26.5-14.2,40.35-8.24,40.42,7,72.33,38.84,97.12,6.88,5.35,13.49,11.35,21.13,15.32,12.15,6.31,25.56,10.25,37.46,16.93,8.51,4.78,16.76,8,26.46,8.79,6.16.49,12,9.56,12.51,17.32.15,2.19,0,4.39,0,6.59,0,12-6.9,20.78-18.74,23.79a32.42,32.42,0,0,1-4.65.5Z"/><path d="M390.92,1243.93c7.37-3.14,12.84-5.81,18.54-7.8,4.58-1.61,9.44-2.44,14.2-3.52.95-.22,2,.11,3-.09,14.91-3,25,3.33,34,15.09,10,13,18.24,26.77,19.43,42.93,1.61,21.87-.05,43.82-9.3,64.27a67.7,67.7,0,0,1-10.67,17c-5.62,6.32-11.63,5.65-17.4-.48-13.72-14.58-15.76-33.48-3.82-50.77,8-11.56,8.88-24.56,7.77-36.87-.91-10.16-6.16-20.59-19.58-22.52-12.85-1.85-21.36,4.36-28.28,13.66a46.46,46.46,0,0,0-9,29.73c.66,19.71,1.94,39.41,2.93,59.11.49,9.88,1.2,19.77,1.13,29.65,0,2.53-2.67,5-4,7.56-2,3.66-4.35,2.1-6.9.76a4.13,4.13,0,0,0-2.9,0c-5.54,1.92-8.62-1.39-11.32-5.29-6.2-8.95-7.93-19.28-8.39-29.79-.51-11.56-.53-23.15-.53-34.73,0-14.45.9-28.93.15-43.33-.74-14-3.15-28-4.71-42-.87-7.86-1.52-15.75-2.25-23.62-1.59-17.22-3.59-34.42-4.63-51.68-.9-14.84-.69-29.75-1-44.63a24.16,24.16,0,0,0-.82-5.87c-3.06-11.17,5.49-22.26,12.87-26.63a7.12,7.12,0,0,1,5-.65c7.23,2.07,14.38,4.42,21.51,6.83a5.24,5.24,0,0,1,2.47,2.45c5.92,11,9.45,22.52,8.3,35.34s-1.44,25.82-2.26,38.72c-1.06,16.61-2.35,33.19-3.35,49.8C390.64,1232,390.92,1237.4,390.92,1243.93Z"/><path d="M694,1360.21c2.54-.29,5.92-.51,9.23-1.09,6-1,11.93-1.31,15.78,4.14,4.19,6,4.1,12.78,1.35,19.36-3.06,7.31-9.42,9.92-16.76,10.26-11,.49-21.84,3.82-33,.09-3.26-1.09-7.61,1.44-11.52,1.85-9.24,1-17.88-.45-24.78-7.44-4.52-4.58-5.12-10-2.38-15.86C642,1349.72,652,1327.85,662,1306q9.81-21.4,19.55-42.84c.58-1.26.8-2.69,1.41-3.93,2.34-4.82.84-7.74-4.13-9.54-9.91-3.59-19.74-7.39-29.6-11.14-5-1.9-10.49-3.15-14.83-6.07-2.92-2-5.79-6.26-6-9.64a267.64,267.64,0,0,1,.59-32.78c.38-5.18,5.53-7.12,9.81-7,6,.17,12.62.67,17.9,3.23,11.2,5.44,21.7,12.33,32.52,18.56,8.57,4.93,16.77,9.7,27.69,8.85,15.5-1.22,25,14.16,17.62,28.16-6.45,12.3-14.77,23.62-21,36-6.31,12.57-15.76,23.2-20.52,36.84-3,8.61-9.59,16-14.58,23.89a26.19,26.19,0,0,0-2,3c-3.78,8.23-3.68,15.87,8.31,18.13C687.51,1360.23,690.35,1360,694,1360.21Z"/><path d="M602.61,1240.46c2.29,19.6-5.73,35.67-20.15,49.32-6.19,5.85-11.47,12.68-17.72,18.46-5.6,5.17-12,4.9-17.53-.23-6.11-5.68-9.42-12.85-9-21.32a11.65,11.65,0,0,1,2.23-6c5.73-7.71,12.22-14.34,21.12-18.92,7.55-3.88,13.16-10.46,12.55-20-.2-3-1.28-6-5.22-6.07-3.65,0-7.76-3.12-10.71,2-.79,1.36-3,2.28-4.73,2.64-7.74,1.64-13.51,5.07-16,13.33-1.7,5.67-4.66,11-7,16.44-.32.72-.86,1.59-.7,2.24,2,8.32-2.73,15.45-3.76,23.15-.93,6.91.12,14.35,1.66,21.25,2.18,9.79,4.37,19.67,11.77,27.54,6.9,7.33,14.25,12.23,24.87,11.84,6.82-.25,13.71,1,20.56,1.66,10.92,1,16.55,8,20.08,17.62,2.15,5.87-2.61,12.37-10.69,13.56-7,1-14.07,1.83-21.14,2.25-17.42,1-31.65-6.7-44.64-17.18a79.57,79.57,0,0,1-12.41-12.06c-9.83-12.34-14.29-27-15.52-42.41-1-12.25-2.2-24.8-.56-36.85,2.94-21.47,4.81-43.35,17.06-62.62,12.6-19.8,40.51-27.74,60.44-19.92,13.14,5.16,26.73,17.87,25.15,34.88C602.48,1236.57,602.61,1238.18,602.61,1240.46Z"/><rect x="185.24" y="1419.65" width="126.35" height="30.99"/><rect x="185.24" y="1437.18" width="30.99" height="33.37"/><rect x="280.59" y="1437.18" width="30.99" height="33.37"/><rect x="229.26" y="1441.1" width="38.29" height="124.28"/><rect x="214.98" y="1535.46" width="66.86" height="30.2"/><rect x="596.38" y="1535.46" width="65.93" height="30.2"/><rect x="597.41" y="1419.65" width="65.76" height="30.2"/><rect x="680.33" y="1419.65" width="66.45" height="30.2"/><rect x="756.77" y="1535.46" width="68.19" height="30.2"/><rect x="757.25" y="1419.65" width="67.24" height="30.2"/><rect x="831.82" y="1419.65" width="53.93" height="30.2"/><rect x="833.81" y="1534.63" width="50.41" height="30.2"/><rect x="679.28" y="1535.46" width="69.05" height="30.2"/><rect x="959.78" y="1535.46" width="67.81" height="30.2"/><rect x="1047.14" y="1535.46" width="64.14" height="30.2"/><rect x="1121.11" y="1535.46" width="66.66" height="30.2"/><rect x="994.31" y="1419.65" width="56.24" height="31.45"/><rect x="1122.31" y="1419.65" width="52.58" height="31.45"/><rect x="1208.97" y="1419.65" width="65.93" height="31.45"/><rect x="1285.22" y="1535.46" width="68.76" height="30.2"/><rect x="1361.42" y="1535.46" width="65.7" height="30.2"/><rect x="1282.98" y="1419.65" width="52.02" height="31.45"/><rect x="772.17" y="1437.46" width="37.39" height="107.94"/><rect x="848.01" y="1437.11" width="38.26" height="107.94"/><rect x="613.57" y="1476.67" width="115.47" height="34.54"/><rect x="609.88" y="1433.21" width="39.31" height="110.25"/><rect x="693.41" y="1433.21" width="39.31" height="110.25"/><rect x="1296.59" y="1430.22" width="35.64" height="111.68"/><rect x="1323.44" y="1495.22" width="50.1" height="28.36"/><polygon points="1299.35 1419.65 1335.01 1419.65 1418.19 1540.65 1382.53 1540.65 1299.35 1419.65"/><rect x="1134.6" y="1439.83" width="40.29" height="106.85"/><rect x="1224.47" y="1427.83" width="37.35" height="135.37"/><polygon points="1174.89 1419.65 1129.62 1419.65 1224.47 1563.2 1261.82 1563.2 1261.82 1551.79 1174.89 1419.65"/><rect x="1005.36" y="1497.52" width="62.95" height="28.3"/><polygon points="997.94 1565.67 961.81 1565.67 1012.67 1419.65 1048.81 1419.65 997.94 1565.67"/><polygon points="1070.83 1565.67 1106.96 1565.67 1050.55 1419.65 1014.41 1419.65 1070.83 1565.67"/><rect x="296.09" y="1535.46" width="67.81" height="30.2"/><rect x="383.45" y="1535.46" width="64.14" height="30.2"/><rect x="330.62" y="1419.65" width="56.24" height="31.45"/><rect x="341.67" y="1497.52" width="62.95" height="28.3"/><polygon points="334.25 1565.67 298.12 1565.67 348.99 1419.65 385.12 1419.65 334.25 1565.67"/><polygon points="407.14 1565.67 443.27 1565.67 386.86 1419.65 350.73 1419.65 407.14 1565.67"/><path d="M907.72,1475H868.81v89.8h38.91C970.55,1564.83,970.55,1475,907.72,1475Zm-7.06,61.09H886.27v-33.2h14.39C923.89,1502.92,923.89,1536.12,900.66,1536.12Z"/><path d="M910.53,1419.65H878.86v68.68h31.67C959.42,1488.33,959.42,1419.65,910.53,1419.65ZM898.71,1475H886.27v-26.35h12.44C918.79,1448.68,918.79,1475,898.71,1475Z"/><rect x="552.98" y="1419.65" width="34.09" height="55.47"/><path d="M549,1512.55a39.57,39.57,0,1,1,.81-37.43h37.27v-6.18a76.39,76.39,0,1,0,1.4,43.61Z"/></svg>