<svg xmlns="http://www.w3.org/2000/svg" viewBox="0 0 1600 1600"><style>path {fill: #000;}</style><path d="M1154.91,1109c.76,15.14-1.22,41.93-.81,57.08.6,22.45.64,44.92,1.25,67.38.26,9.31,1.88,18.59,2,27.9.2,15.34,1.33,31-1,46-2.45,15.86,2.72,30.21,4.2,45.26a20.14,20.14,0,0,1-1,8.91c-4.35,11.37-4.77,23-4.58,35.06.38,25,.27,50-.17,75.07-.11,6.68.92,14.41-6.54,18.83-.29,12.34-9.81,12.6-18.41,14-4.72.76-9.46,1.92-14.2,2-23.53.22-47.07.56-70.59,0-12.74-.32-25.41-3-38.15-3.48-8.13-.32-16.34,1.37-24.52,2.09-3.71.32-7.76,1.55-11.08.52-21.41-6.56-43.31-6.57-65.36-6.43-17.66.11-35.33-1-53-1.26-5.8-.08-11.31-.7-17.35,2.86-4.2,2.48-11.57-.65-17.53-.87-18.43-.67-36.86-1.08-55.28-1.72-32.79-1.13-65.58-2.4-98.37-3.52-6.07-.2-12.17.36-18.24,0-7.52-.38-15-1.55-22.53-1.91-4.75-.23-9.54.47-14.31.62-5.65.16-11.63,1.45-16.89.05-23.39-6.24-46.8-10.24-71.16-6.83-6.08.85-12.56-.55-18.79-1.42-10-1.41-19.76-2.15-29.42,2.54-2.55,1.24-6.58-.54-9.93-1-1.13-.15-2.52-1-3.33-.55-6.25,3.17-8.92-1.28-10-5.62a78.94,78.94,0,0,1-2.48-20.1c.2-11.83.32-23.18-2.75-35.1-3.12-12.15-1.34-25.55-1.9-38.4-.24-5.35-1-10.67-1.5-16-.1-1-.51-2-.53-3-.5-17.54-.86-35.08-1.46-52.61-.52-15.06-1.82-30.12-1.81-45.17,0-16.13,1.36-32.25,1.76-48.38.26-10.63-.91-21.34,0-31.89s3.63-21.16,5.55-31.73c.35-2,.76-3.91.94-5.89.76-8.53,1.83-17.06,2-25.6.16-6.76-1.15-13.53-1.22-20.31-.44-44.78-1.08-89.57-.89-134.35.07-17.34,2.59-34.65,3.08-52,.37-13.18-3.63-17.46-16.2-20.62a11.12,11.12,0,0,0-3.6-.18c-6.64.59-13.68,2.95-19.82,1.49a166.18,166.18,0,0,0-29.74-4.13c-1.26-.07-2.81-.53-3.74,0-8.37,4.89-15.08,0-22.59-2.82-6.49-2.43-13.77-3-20.78-3.76-5.72-.61-12,2.27-16.75-3.53-.56-.69-2.51-.71-3.63-.4-11.76,3.27-18.68-3.62-25-11.77-2-2.6-3.24-6.23-5.8-7.91-10.13-6.62-10.09-16.44-9.93-26.8.11-7-.86-14.1-1.56-21.13-.94-9.59,2.7-17.47,7.64-25.47a377.55,377.55,0,0,0,18.24-34.09c1.12-2.33.4-6.94-1.3-9a107.06,107.06,0,0,0-15.59-15.18c-12.86-10.11-26-19.82-39.24-29.48-14.46-10.58-29.18-20.83-43.65-31.4-13.18-9.63-15.24-35.31-3.3-46.62,2.74-2.59,8.38-4.22,12-3.4a89.12,89.12,0,0,1,41.71,21.78c11,10.11,25.08,16.87,37.53,25.5,4,2.75,6.72,7.23,10.63,10.1,9.49,7,19.2,13.66,29.16,19.93,1.52.95,6-.13,7.16-1.7,6.86-9,13.22-18.45,19.61-27.83,2.79-4.1,1.65-7-2.36-10.2-14-11.1-27.25-23.08-41.41-33.92-10.79-8.27-23-14.66-33.69-23.09A205.26,205.26,0,0,1,245,578c-3.72-4.29-4.25-11.4-6-17.29-.41-1.36.14-3,.19-4.51.13-3.34-.9-9,.51-9.65,8.56-4.21,16.73-10.76,27.6-5.86,18.64,8.41,34.26,20.88,49.2,34.52,18.63,17,37.54,33.72,56.26,50.65,4.06,3.68,8.22,4,12.31.71,9.41-7.54,18.59-15.35,27.92-23,4.56-3.75,3.5-7.58-.1-10.93-11.61-10.81-23.39-21.45-35.15-32.11-7.1-6.44-14.21-12.88-21.44-19.18-12.31-10.73-24.39-21.77-37.2-31.87-9.2-7.26-12.69-16.26-11.13-27.24.63-4.37,3.33-8.45,5.16-12.62.4-.89,1.63-1.59,1.68-2.42.74-10.85,8.94-8.77,15.05-7.81,21,3.29,40.42,10.62,56.23,25.68,17.91,17.05,36,33.88,53.84,51.05,4.47,4.3,8,9.54,12,14.35s9.64,4.31,13.77-.49q16.25-18.93,33.14-37.3c4.72-5.14,5.07-9.7-.34-13.88C480.88,485.19,463,472,445.7,458.07c-19.4-15.6-40.27-29.32-56.75-48.64-10.82-12.67-10.51-26-7.48-40.2.54-2.54,5-4.37,7.76-6.27,2-1.34,4.46-1.95,6.34-3.38,11.83-8.91,30-8.76,40.45,1.76,18.11,18.24,35.9,36.83,54.34,54.74,14.33,13.91,29.46,27,44.22,40.47a60.27,60.27,0,0,1,5.4,5.32c3.59,4.23,7.13,3.95,11.11.51,8.9-7.7,17.65-15.63,27-22.78,5.19-4,5.71-8,2.68-13-9.64-15.72-19.09-31.57-29.27-46.94-15.33-23.16-31.7-45.65-46.63-69.06-6.53-10.24-12.63-21.21-11.49-34.56,1.12-13,17.07-30,28.55-28.34,10,1.44,19.13,6.53,24.71,14.84,13.51,20.11,26,40.91,39,61.37,9.85,15.53,19.89,30.93,29.75,46.45,2.43,3.83,4.25,8.06,6.82,11.79,3.08,4.49,6.66,8.63,9.94,12.81,14.37-9.14,27.8-17.46,41-26.17,6.6-4.37,6.66-8.81,2.22-15.19a118.6,118.6,0,0,1-9.73-17c-6.68-14.16-12.95-28.51-19.43-42.77-5-11-10.21-21.88-14.94-33-.94-2.22-.13-5.18-.13-8-8.69-5.41-9.9-15.89-14.43-24.29-5.58-10.36-5.36-21.88-5.13-33.22a18.29,18.29,0,0,1,2.33-7.88c5.32-9.9,20.59-16.31,31.12-12.62,3.25,1.13,5.88,4.32,8.55,6.84,15.07,14.22,27.9,30.73,36,49.37,12,27.51,20.78,56.41,30.92,84.73a6.73,6.73,0,0,1,.25,1.49c1.78,15.23,7.49,18,21.49,11.12,8.49-4.18,17.24-7.86,26-11.42,5.34-2.17,7.23-5.75,6.36-11.25-4.2-26.6-8.58-53.17-12.45-79.82-2.08-14.36-3.69-28.83-4.7-43.3-1.34-19.16-1.54-38.39-2.85-57.54-1.22-17.83,13-31.48,31.09-31.73,10.65-.15,21,9.8,23.74,24.08a244.54,244.54,0,0,1,4.06,34.25c1.4,27.78,2.23,55.59,3.07,83.4.12,3.95-1,7.94-1.46,11.91-2.21,18-1.81,35.38,10.86,50.08a13.43,13.43,0,0,0,5.32,4c7.1,2.41,14.24,5,21.57,6.37s13.24-1.26,18.27-7.77c10.57-13.7,12.67-29.81,15.48-46,2.94-16.89,5.9-33.8,13.93-49.37,1.47-2.84.9-7.37-.08-10.72-3.37-11.55,2.06-29.39,12.45-35,3.59-1.92,9.37-1,13.73.18,3.39.91,6.25,4.1,9.15,6.51s5.59,5.15,8.34,7.77c17.51,16.71,17.94,18,9,40.65-15.38,39-31,77.93-46.36,117-.86,2.2-.92,6.79.15,7.34a169.68,169.68,0,0,0,22,9.29c.92.32,4.23-2.87,4.58-4.77,3.25-17.69,12.67-32.39,22.26-47,7.9-12,16.42-23.66,24-35.88,3.45-5.56,5.5-12,7.87-18.2,4.5-11.71,13.19-25.5,28.58-23.28,3.77.55,7.45,2.4,10.89,4.2a12,12,0,0,1,4.77,4.79c4.67,8.82,13.44,18.29,12.54,26.64-1.66,15.31-10.13,29.29-22.55,40a61.57,61.57,0,0,0-12.12,13.86c-8.51,13.73-16.44,27.83-24.4,41.89-2.23,3.94-4.51,8.12-5.4,12.47-.68,3.37-.56,8.88,1.51,10.48,7.58,5.91,16.11,10.59,24.3,15.69.38.23,1,0,1.5.1,13.72,2.52,13.66,2.49,19.64-9.31,11.51-22.7,21.69-46.18,38.68-65.63,7.93-9.08,15.46-18.61,24.2-26.84,9.48-8.91,25-2.32,28.12,10.38,2.7,11,.75,19.54-6.12,28.86-8.45,11.48-14.22,24.9-21.62,37.2Q1077,384.79,1063,406c-6.86,10.4-7.24,12.4,2.08,19.94,5.74,4.64,12.61,7.84,18.55,12.26,2.95,2.18,4.56,6.18,7.52,8.33,1.68,1.22,6.32,1.44,7.15.3,12.79-17.55,25.77-35,37.47-53.29,11-17.21,19.92-35.76,31-52.92,5.92-9.17,13.92-17.24,22-24.71s14.4-6.24,19.62,3.39c9.43,17.39,9.9,34.69-1.13,52.12-13.38,21.15-25.82,42.89-38.91,64.23-3.13,5.1-7.46,9.45-10.74,14.47-2.14,3.29-3.23,7.25-5.07,10.76a22.44,22.44,0,0,1-3.68,4.51c-5.07,5.42-5.21,12,.07,17.16q11.82,11.6,24,22.85c4.55,4.2,8,3.55,11.5-2.08,3-4.88,7.81-8.66,11.68-13.05,5.48-6.2,11.22-12.22,16.19-18.82q24.84-33,49.08-66.35c4.21-5.82,7.77-11.67,15.41-13.5,10.28-2.46,17.68,1.07,21.88,10.53,5.16,11.62,8.49,24.27,5.66,36.21-2.45,10.36-8.49,20.72-15.42,29-15.06,18-31.68,34.66-47.71,51.84-5.84,6.25-11.7,12.49-17.73,18.56-3,3-3.08,5.46,0,8.32,9,8.34,17.89,16.91,27.08,25.1,5.44,4.85,16.61,2.9,22.33-4.38,8.94-11.39,18.31-22.07,30.49-30.32,3.9-2.64,5.11-8.94,8.63-12.5,12-12.2,24.4-24.1,36.94-35.78,9-8.35,25.81-3,32.14,9.78,10.37,21-2.19,49.82-23.76,59.47-9.75,4.37-17.47,13.44-25.82,20.72-4.18,3.64-7.3,8.53-11.6,12-8.5,6.85-8.81,17.35-12.38,26.33-.78,1.94.89,5.49,2.4,7.61,9,12.75,18.32,25.28,27.51,37.9,2.68,3.68,5.13,7.53,8,11.06,4.07,5,8.61,9.67,12.59,14.77,8.63,11,17,22.25,25.5,33.4,3.21,4.21,6,8.81,9.67,12.57,8.06,8.31,12.94,17.78,13.59,29.5.17,3.14,1.92,6.23,3.18,9.25,10.19,24.48,6.56,47-13.34,64.23-11.63,10.09-26.14,17.17-40,24.28-26.32,13.48-53.51,25.24-82.44,31.87-12.66,2.9-25.88,3.25-38.81,5.06-20.23,2.83-40.45,5.71-60.58,9.14-2.72.46-2.19,5.49-7.09,6.54C1156.82,916,1154.91,1109,1154.91,1109ZM795.64,425.19c-.8-10.56-1.3-23.71-3-36.71-1.4-11-6.72-13.64-16.58-9-11.46,5.36-22.86,10.92-34,17-9.91,5.43-19.35,11.73-29.07,17.51-5.72,3.4-11.27,8-17.49,9.42-7.43,1.72-12.53,5.78-17.92,10.39-5.85,5-12.18,9.48-18.46,14-12.22,8.7-26.38,14.7-34.89,28.36a35.39,35.39,0,0,1-14.72,12.63c-10.06,4.59-17.51,11.78-24.68,19.62-2,2.23-3.48,5.11-5.77,7-12.48,10.24-25.35,20-37.66,30.45-10,8.48-17.71,19.74-16.52,32.69.77,8.3-.79,15.68-1.42,23.47-.24,3-.14,6.07-.11,9.1.11,10.51.83,21.06.27,31.53-1.35,25.37-4,50.68-4.83,76.06q-1.64,48.09-1.14,96.25c.23,21.62,12.58,32.23,34.16,32.28,10.34,0,20.7.78,31,1.63,25.67,2.12,51.3,4.33,77.06.76a197.08,197.08,0,0,1,29.49-2.19c31.91.4,63.84,3.16,95.69-.74,2-.25,5.1-3.66,5.25-5.78,1.55-20.88,2.59-41.79,3.77-62.7.16-2.77.35-5.55.42-8.32.29-11.72,1.54-23.52.57-35.13-1.31-15.51-6-30.87.07-46.34a8.8,8.8,0,0,0,.32-3c.45-28.8,1.24-57.61,1.2-86.41,0-16.31-1.37-32.63-2.21-48.94-1.2-23.42-.06-46.87-1.25-70.31-.4-7.87,1.9-15.84,2.26-23.8C796,446.52,795.64,437.13,795.64,425.19ZM873.5,390c-2,18.39-4.55,34.6-5.34,50.9-.57,11.76-5,23.69.21,35.54.71,1.59-.28,3.94-.51,5.94-1.49,12.49-3.66,24.94-4.27,37.47-.47,9.66,1.37,19.4,1.46,29.12.05,4.44-2.43,8.89-2.44,13.35-.11,31.69.1,63.38.28,95.08.1,17,1,34,.32,50.9-.82,19.87-3,39.68-4.59,59.52-1.3,16.29-2.81,32.56-3.82,48.87a206.14,206.14,0,0,0-.15,26.42c.4,6.16,6.15,9.49,10.86,6.32,7.6-5.1,15.54-4.62,23.2-2.16,17.13,5.5,34.37,4.12,51.71,2.36,3.67-.37,7.39-1.29,11-1,5,.42,9.86,2.58,14.77,2.54,9.32-.06,18.63-1.44,28-1.74,6.79-.22,13.61.8,20.39.59,9.6-.3,19.16-1.61,28.75-1.76,8.51-.13,17,.89,25.54,1.11,6,.16,12.3-1.44,17.9,0,13.46,3.44,18.45-.44,19.3-14,1.06-17,2.07-34.39,6.27-50.79a120.56,120.56,0,0,0,3.49-40.35,275.34,275.34,0,0,1-.44-38.64c1.19-19.6,4.29-39.1,5.2-58.7.93-20.15-1.31-40.44,5-60.19a24.07,24.07,0,0,0,.29-12.58c-4.71-18.5-14.64-33.55-30.75-44.33A191.82,191.82,0,0,1,1077,516.34c-10.89-9.29-21.32-19.1-32.2-28.4-2.16-1.84-5.57-2.16-8.28-3.46-5.32-2.54-11.49-4.25-15.64-8.11-14.1-13.09-29.56-23.45-47.78-30.09-7.11-2.59-13.35-7.79-19.74-12.16-5-3.38-9.21-7.83-14.32-10.92-16.41-9.94-32.93-19.72-49.72-29C885.08,391.84,879.66,391.57,873.5,390Zm163.73,1049.06.11-2.47c10.39,0,20.78.28,31.15-.06,19.18-.64,19.54,3.9,24.53-20.87.47-2.37,0-5-.29-7.45-1.28-10.73-3.23-21.42-3.85-32.19-.82-14.15-.64-28.36-.87-42.54-.19-12.06-.66-24.12-.45-36.18.13-7-.19-14.66,2.61-20.67,2-4.37,1.77-7.13.68-11-1.27-4.56-2.86-9.33-2.68-13.94.53-13.56,1.57-27.12,3-40.62,1.22-11.4-4.73-21.09-16.19-22.3-20.55-2.17-41.2-3.61-61.84-4.72-10.35-.55-20.77.34-31.16.47-2,0-5,.27-5.72-.79-3.64-5.63-9.09-4.59-14.25-4.49-10.9.19-21.56,2.78-32.16,4.12-18.69,2.38-38-.25-57.06-.86-1.48,0-2.94-1-4.42-1-16.68-.12-21.66-1.31-25.84,17.87-2.34,10.72-2.22,22-2.77,33.07-1.17,23.91-2.11,47.84-3,71.77-.09,2.4,0,6.06,1.49,7,4.53,3.09,2.43,6.37,1.68,10-2.12,10.38-7.54,20.22-4.1,31.52a53.13,53.13,0,0,1,1.94,16.44c-.37,15.36-1.65,30.69-1.9,46-.15,9.19,3.5,13.68,12.59,15.29,11.6,2.05,23.37,4,35.1,4.25,23.5.58,47,0,70.54-.08,3.8,0,7.61-.3,11.4-.08C989.42,1436.09,1013.32,1437.6,1037.23,1439.08ZM740.72,1423l0,1.14c6.33,0,12.69.34,19-.09,8.29-.56,10.84-3.84,11.08-12.13.22-7.54.76-15.07,1.29-22.6s1.6-14.9,1.65-22.35c0-4.68-2.13-9.39-2-14,.34-12.13,1.45-24.23,2.15-36.36,1.19-20.59,2.45-41.18,3.36-61.79.28-6.29-.83-12.62-.75-18.93.16-11.84.94-23.68,1-35.53.09-10.62-2.89-13.76-13.52-13.28-4.64.2-9.16,3.76-13.78,3.86-14.14.31-28.32,0-42.45-.67-12.74-.59-25.44-2-38.18-2.84-3.74-.24-7.53.52-11.3.8-10.93.83-21.86,1.92-32.8,2.4-15.76.7-30.75-7.33-46.8-4.29a44.85,44.85,0,0,1-9,.36c-14.4-.16-28.81-.65-43.21-.51-9.85.1-14.73,3.48-15.28,10.38-1.48,18.33-2.89,36.68-3.58,55.06-.22,5.72,2.62,11.51,2.85,17.32.56,14.28-.43,28.65.79,42.85,1.72,20.07,4.81,40,7.49,60,.22,1.69,1.81,3.18,2.7,4.81,1.8,3.3,5,6.63,5,10,0,6.2-2.22,12.37-2.67,18.62-.15,2.16,1.93,6.26,3.46,6.5,20.6,3.25,41.23,6.56,62,8.57,9.57.92,19.52-5.66,29.13.91.69.47,2,.06,3,.09,16.81.6,33.62,1.51,50.44,1.73C694.82,1423.21,717.77,1423,740.72,1423Zm10-296.55c6.59,0,13.2.35,19.74-.22,2-.17,5.16-2.79,5.31-4.51,1.65-18.84,3.29-37.71,4-56.6.73-20.12,0-40.29.71-60.41.95-26.42,3-52.8,4-79.22.51-13.18-1.47-15.65-14.78-16.85-18.53-1.67-37.18-2.12-55.78-3.09-7.31-.37-14.64-1.15-21.93-.94-3.8.11-7.62,3.07-11.3,2.82-8.58-.56-17.09-2.23-25.61-3.54-4.95-.75-9.91-2.47-14.83-2.36-17.45.41-34.89,1.43-52.33,2.15a8.89,8.89,0,0,1-4.45-.62c-9.28-5-18.58-1.62-28-.7-6.64.64-13.73.82-20.09-.83-9.57-2.48-14.22-.37-15.7,9.74a54.69,54.69,0,0,0-.11,7.58c-.14,24,0,48-.5,72-.26,12.82-1.3,25.64-2.42,38.43-.43,4.93-3,9.75-3,14.62,0,15.61,1,31.21,1.23,46.81a33.32,33.32,0,0,1-1.85,10.41c-3.56,11.16-3.08,12.35,8,15.36a42,42,0,0,0,8.89,1.72c15.37.77,30.74,1.35,46.11,1.94,11.35.43,22.71.63,34.06,1.17,19.38.91,38.75,2.63,58.14,2.83,14.92.16,29.86-1.52,44.78-2.33,1.51-.08,3.32-.36,4.49.31C727.93,1128.22,739.31,1127.57,750.72,1126.43ZM898.78,905.49c-10.9,1-19.93,2.11-29,2.42-6.42.22-12.66,0-15.82,7-2.65,5.81-6.75,11.69-7,17.69-.58,11.78,1.08,23.67,1.74,35.51.84,15.14,1.66,30.28,2.35,45.42a34.59,34.59,0,0,1-.83,6.74c-1,6.35-2.65,12.67-2.89,19-.86,22.7-1.32,45.42-1.72,68.14-.08,4.49,1.54,9.11,1,13.48-.77,6,1.62,7.95,7,8,31.58.35,63.16.95,94.75.94,13.36,0,26.74-2,40.09-1.84,17.31.27,34.6,1.9,51.9,2.89,11.58.66,23.17,1.63,34.75,1.72,11,.08,20.83-2.63,21.16-14.77q1.08-39.36,3.2-78.69c.49-9.19,2.49-18.29,3.43-27.48a87.49,87.49,0,0,0,0-13.25c-.4-8-1.68-16.12-1.4-24.14.63-18.09,2.21-36.14,2.94-54.23.31-7.57-4.44-12-12-12.69-8.55-.74-17.09-1.57-25.64-2.09a10.85,10.85,0,0,0-5.6,1.54c-7.22,4-15.31,2.93-21.75-2.27-2.21-1.78-6.39-3.28-8.73-2.41-12.46,4.66-25.93,4.33-38.61,6.29-20.38,3.15-41.73.31-62.66-.43C918.51,907.59,907.75,906.25,898.78,905.49Zm304.87-56.66c.17.8.33,1.59.5,2.38,5.68-2,12.15-2.94,16.88-6.3,11.76-8.33,25.43-11,38.69-14.93,3.62-1.08,7.75-1,11-2.65,22.27-11.38,44.48-22.9,66.48-34.77,8.33-4.5,9-7.56,3.62-15q-21.91-29.9-44.59-59.26C1285.87,705,1275,692,1264,679.13c-10-11.69-15.43-27.49-31.1-34-1.53-.64-2.79-2.19-3.92-3.53-9.58-11.37-18.92-23-28.79-34.08-2.23-2.51-7.22-5.55-9.21-4.63-3.27,1.53-6.89,5.88-7.29,9.4-2.25,19.75-4.09,39.59-5.12,59.45-1.49,28.73-1.53,57.54-3.37,86.24-1.76,27.42-5,54.75-7.7,82.11-.63,6.3,5.46,12.78,11.82,11.93C1187.41,850.91,1195.53,849.88,1203.65,848.83ZM410.9,844.94c.1-.86.21-1.71.31-2.57H434c10.62-.57,14.86-4.49,14.29-14.72-.83-14.85-2.68-29.65-3.38-44.51-.26-5.36,2-10.8,2.27-16.24.82-18,1.29-36.09,1.82-54.15.39-13.62,1-27.25.8-40.88,0-3.37-2.05-9.1-4.14-9.59-4.46-1.06-11-1.11-14.1,1.51-5.58,4.75-9.23,11.76-13.69,17.82-2,2.73-3.48,6.14-6.07,8.07a158.6,158.6,0,0,0-42.34,47c-9,15.33-15.28,32.32-24.33,47.65-5.79,9.82-5.77,18.92-2.91,29,.84,2.92,1.77,5.81,2.55,8.74,3.2,12.1,6.29,14.78,18.55,16,1,.1,2,.34,3,.49Z"/></svg>