<svg xmlns="http://www.w3.org/2000/svg" viewBox="0 0 1600 1600"><style>path {fill: #000;}</style><path d="M229.67,68.87c30.13-49.7,104.47,9.43,104.47,9.43C338.05,88.13,347.63,96,355.45,104c28.57,29.08,28.74,66.19,28,102.77-.3,14.08-7.68,27.93-11,42.08a38.22,38.22,0,0,0,.12,16.42c3,13.89,22.33,106.92,23.07,120.85,1.37,25.6,18.58,32.84,38.46,38.62,32.09,9.33,63,10.06,95.34-2.95,20.63-8.29,44.92-12.67,67-11,30.64,2.35,48.51-18.26,69.8-31.45,18.33-11.37,13.36-36.67-6.12-47.53-60.49-33.73-80.56-96.81-67-159.41,5.61-25.93,24.56-40.23,45.76-53.48,27.94-17.46,58.41-29.4,90.32-24.48,19.09,3,36.33,18.7,54.12,29.17,29.16,17.15,39.69,47.59,52.67,76,2.57,5.62,2.69,13.17,1.69,19.48-5.54,34.95-13,69.05-44.88,91.33-6.58,4.59-12,11-17.49,17-17.53,18.89-13.58,38.62,11.15,45.42,25.35,7,51.8,9.88,77.63,15.23,45.36,9.39,91.1,8.57,136.7,4.12,13.2-1.28,26.19-8,38.57-13.68,22.65-10.44,44.82-21.92,67.09-33.15,5.42-2.74,11.15-5.46,15.59-9.46,34.38-31,76-50.48,115.3-73.68,15.16-8.94,28.14-21.52,42.92-31.21,22.26-14.58,41.85-34.78,71.17-35.45,20.23-.46,33.91,8.24,41.63,27.1,21.72,53.09,3.6,95.48-52.16,117.29-31.72,12.41-66.09,18.73-96.64,33.31-43.92,21-87,44.7-127.45,71.62-28,18.59-39.71,49.77-45,83.69-9.88,63.81,1.39,126.85,3.59,190.21,2.48,71.5,17.44,141,32.77,210.51q19,86.14,36.09,172.72c2.51,12.56.71,25.93,2.61,38.68,7,47.2,14.63,94.31,22.23,141.42,3.78,23.43,7.2,47,12.24,70.11s11.27,25.23,34.28,19.53a386.45,386.45,0,0,1,55.38-9.63c18-1.75,32.14,8.94,47.53,17.27,34.21,18.54,28.61,49.5,28.1,79-.26,14.86-22.78,32.55-40.06,35-27,3.83-54,8.7-81,12.6-6.87,1-14.41,1.37-21-.41-22.06-6-43.54-14.31-65.8-19.24-19.53-4.33-30.08-16.75-39.71-32.5-23.66-38.67-27.85-82.39-33.86-125.63-5.32-38.28-9.73-76.67-14.72-115-5.78-44.34-10.1-89-18.13-132.89a1015.51,1015.51,0,0,0-28.62-116.33c-9.86-31.92-32.54-41.58-64.88-33.11-14.29,3.74-28.63,7.53-43.16,10.06-8,1.4-16.53.25-27.69.25-5.27,6-13.28,12.4-24.53,1.85-1.75-1.64-6.68.26-10.14.25-14.75,0-29.54-.83-44.24,0-10.78.64-21.4,4.7-32.16,5.06-34.13,1.15-68.93,5.54-102.28.62-35.58-5.26-63.13,8.19-91.49,23.65-4.57,2.49-9.79,8.54-10.14,13.28-3.11,42.46-6.56,85-7.07,127.52-.32,26.28,4.29,52.63,6.7,78.94,2.61,28.66,4.16,57.48,8.27,85.92a161.1,161.1,0,0,0,13.86,46.48c11.37,23.49,37.42,34.33,63.22,29.4,35.53-6.79,58.28,4.52,70.31,35,10.94,27.67-.49,66.37-26.08,80.64-12.1,6.75-26.62,10.36-40.48,12.47-27.59,4.2-55.49,8.77-83.27,8.78-32.68,0-66.71-32.82-72.53-66.13Q474,1356.52,463.41,1288c-2.28-14.87-2.14-30.11-3.4-45.15-3.71-44.49-8-88.94-11.21-133.46-2.38-33.28-2.47-66.73-5.24-100-2.75-32.84-6.21-65.75-11.81-98.21-10.3-59.75-22.83-119.12-33.61-178.8-7.65-42.36-12.07-85.4-21.45-127.35-7.74-34.57-20.73-68-31.21-101.93-2.84-9.21-6.24-18.51-7.16-28-.95-9.86-13.57-28-26.15-58.77-14.63-35.81-32.55-91.55-52.2-124.66-13.64-23-29.85-26.24-39.18-40.85C190,202.75,198.94,119.55,229.67,68.87ZM527.35,532c-7.8,7.65-12.94,12.4-17.7,17.5-2.93,3.13-7.25,6.63-7.58,10.27-2.58,29.23-5.88,58.54-5.77,87.81.05,14.94,7.73,29.69,10.05,44.83,4.38,28.6,4.47,58.18,11.87,85.89,5.95,22.34,19.39,42.89,31.09,63.32,2.14,3.75,11.91,4.61,18.06,4.34,28.47-1.25,57-2.28,85.33-5.43,46.9-5.21,93.91-10.41,140.34-18.59,36.8-6.49,74.94-10.71,106.66-34.24,4.17-3.09,10.34-4.34,15.73-4.79,31.11-2.65,44-15.72,43.59-47.08-.24-17.76-3.3-35.46-3.77-53.23-1.27-47.84-1.83-95.7-2.68-143.55-.46-26-17.31-44-42.76-46.07-11.13-.89-22.35-1.72-33.29-3.82-21.66-4.16-43.23-11.26-62.62,6.79-2.47,2.3-7.75,1.68-11.76,2.21-7,.94-14.1,2-21.17,2.51-33.91,2.69-68.05,8.85-101.66,6.71-27-1.71-52.42.05-78.18,6.68C575.15,520.74,549,526.75,527.35,532Z"/></svg>