<svg xmlns="http://www.w3.org/2000/svg" viewBox="0 0 1600 1600"><style>path {fill: #000;} .st0 {fill: #fff;}</style>
<circle class="st0" cx="784.5" cy="800" r="639.3"/>
<path d="M777.9,137.6c-1.1,0-2.3-0.1-3.6-0.2h-3.8l3.7,0.1L777.9,137.6z"/>
<path d="M510.2,494.8l-0.1,0.5C510.2,495.1,510.2,494.9,510.2,494.8z"/>
<path d="M758,1069.9c0-0.1,0-0.3,0-0.4C757.9,1069.7,757.9,1069.8,758,1069.9z"/>
<path d="M815.2,1462.3h0.1H815H815.2z"/>
<path d="M1097.3,483.6c0,0.1,0.1,0.3,0.1,0.5C1097.4,483.9,1097.3,483.7,1097.3,483.6z"/>
<path d="M1022,478.2l-0.3,0.1C1021.8,478.4,1021.9,478.3,1022,478.2z"/>
<path d="M587.2,1117.6l0.3-0.1C587.4,1117.5,587.3,1117.5,587.2,1117.6z"/>
<path d="M536.5,780.7h0.4C536.7,780.7,536.6,780.7,536.5,780.7z"/>
<path d="M1456,813.7c-0.3,5.9-0.5,11.8-0.7,17.5C1455.6,825.9,1455.7,819.8,1456,813.7z"/>
<path d="M1456.2,766.7c-0.1-2-0.3-3.8-0.4-5.3s-0.4-3-0.7-4.2c-0.3-11.1,0.2-10.5,0.7-10.5c0.2,0,0.4-0.1,0.6-1.9s0-5.3-0.4-12
	c-0.4-4.8-1.2-9.8-1.9-15.2c-0.4-2.7-0.7-5.4-1.2-8.1s-0.9-5.5-1.3-8.3s-0.8-5.7-1.3-8.5s-1-5.7-1.4-8.5s-0.8-5.7-1.3-8.4
	s-0.9-5.5-1.3-8.2l0.3,0.3c-1-6.6-2.2-12.8-3.4-18.6c-0.3-1.5-0.6-2.9-0.9-4.3s-0.7-2.8-1-4.2c-0.7-2.8-1.3-5.5-2-8.1
	c-2.8-10.5-5.8-20.2-9-29.5c-0.8-2.3-1.6-4.7-2.4-7s-1.7-4.7-2.5-7s-1.7-4.7-2.5-7.1s-1.8-4.7-2.7-7.1s-1.8-4.9-2.8-7.3
	s-1.9-5-2.9-7.6s-2-5.2-3-7.9s-2.1-5.4-3.3-8.3l2.5,4.6c-1.5-4-3.4-9-5.9-14.6c-1.3-2.8-2.6-5.7-4-8.8c-0.7-1.5-1.4-3.1-2.2-4.7
	l-2.4-4.8l-5-10l-5.4-10.2c-1.8-3.5-3.7-6.9-5.6-10.3s-3.7-6.9-5.6-10.3c0.5,1,1,1.9,1.5,2.8s0.9,1.8,1.2,2.5c0.5,1,0.9,2,1.2,3
	c0,0.4-0.4,0-1.3-1.5s-2.5-4.1-5-8c-2.2-3.9-4.3-7.6-6.4-11.1l-6.3-10.1c-2-3.3-4.1-6.3-6.1-9.3s-3.9-5.9-6-8.7
	c-4-5.6-7.7-11-11.6-16.2c-1.9-2.6-3.8-5.2-5.7-7.8s-3.8-5.1-5.8-7.8l-4.1-4.7l-4.2-4.6l-4.2-4.6c-1.4-1.5-2.8-3-4.3-4.5l-8.3-9.5
	l-9.8-10.7c-3.5-3.8-7.4-7.7-11.4-11.8s-8.4-8.3-12.9-12.7c-9.2-8.7-19.2-18-30.2-27.3c-5.4-4.8-11.3-9.4-17.2-14.3
	c-6-4.7-12.1-9.7-18.6-14.4s-13.1-9.6-19.8-14.5l-10.4-7.1l-2.6-1.8l-2.7-1.8c-1.8-1.2-3.6-2.3-5.4-3.5
	c-14.4-9.4-29.6-18.7-45.4-27.5s-32.2-17.2-49.1-25.1s-34.2-15.3-51.8-21.7s-35.5-12.3-53.5-17.3c-4.5-1.2-9-2.5-13.5-3.6l-13.4-3.2
	c-9-2-17.9-4-26.8-5.7l-6.7-1.3l-6.6-1.1l-6.6-1.1l-3.3-0.6l-3.3-0.5l-13.1-1.9l-12.9-1.6c-4.3-0.6-8.5-0.9-12.8-1.3
	s-8.4-0.8-12.6-1.1l-12.4-0.8l-12.2-0.5c-2-0.1-4-0.2-6-0.2l-5.9-0.1c-3.9-0.1-7.8-0.2-11.6-0.2h-0.2l-1.2-0.1
	c-1.9-0.2-3.9-0.3-5.8-0.2c-1.9,0-3.8,0-5.3,0.1l-0.2,0.3c-3.2,0-6.4,0.1-9.6,0.2l-4.8,0.1c1-0.2,2.3-0.4,3.7-0.6
	c5.3-0.6,10.5-0.9,15.8-0.8l-3.7-0.1l-1.8-0.1h-1.8c-2.4,0-4.7,0.1-6.8,0.1c-4.2,0.2-7.7,0.8-9.6,1.6l-0.8,0.1h-0.6l-1.4,0.1
	c-1.8,0-1.7-0.2-1.7-0.5s-0.3-0.7-6-0.1c-1.5,0.4-3.2,0.8-4.9,1.2l-1.3,0.1l-4.9,0.4l-9.6,0.8c-25.1,2.2-45.8,5.4-60.9,8.2l4.7-1
	c-25.9,4.5-51.4,10.5-76.6,18c-6.9,2.1-14,4.2-21,6.7s-14.3,4.9-21.6,7.6c-14.5,5.5-29.4,11.5-44.3,18.3s-30,14.4-45,22.6
	s-30,17.3-44.7,27c-14.7,9.7-29.3,20.1-43.5,31.2s-28.1,22.7-41.5,35s-26.2,25.1-38.5,38.4l-4.6,5c-1.5,1.7-3.1,3.3-4.5,5l-8.9,10.2
	l-8.6,10.4c-2.9,3.4-5.6,7-8.4,10.5c-11,14.1-21.3,28.5-30.9,43s-18.4,29.3-26.5,44s-15.4,29.5-22.1,44c-3.2,7.3-6.4,14.5-9.3,21.7
	l-2.2,5.3c-0.4,0.9-0.7,1.8-1.1,2.7s-0.7,1.8-1,2.7c-1.3,3.6-2.7,7.1-4,10.6c-9.5,25.7-17.3,52-23.4,78.7
	c-4.9,16.5-8.8,33.4-11.7,50.4c-0.8,4.5-1.4,9-2.1,13.5c-0.3,2.3-0.7,4.5-1,6.7s-0.6,4.5-0.8,6.7c-0.5,4.4-1.1,8.8-1.5,13
	s-0.8,8.3-1.2,12.3c2.3-17.6,3.1-11.4,1.8,2.3c-0.4,6-0.7,11.3-1,16c-0.2,2.3-0.2,4.5-0.3,6.5s-0.2,3.9-0.2,5.6
	c-0.1,3.5-0.2,6.4-0.2,8.9s0,4.5,0,6.2c0.1,6.7,0.2,7.5,0.5,8.4s0.5,1.8,0.8,8.6c0.1,1.7,0.2,3.8,0.3,6.3c0,1.3,0.1,2.6,0.2,4.2
	s0.2,3.1,0.3,4.9c0.2,3.5,0.5,7.6,0.8,12.3s0.8,10.1,1.3,16.1c0.4,3.5,0.8,7.3,1.3,11.4c0.2,2,0.4,4.2,0.7,6.3s0.6,4.4,0.9,6.7
	c0.6,4.6,1.2,9.5,2.1,14.7s1.6,10.5,2.7,16.1c4.6,25.5,10.7,50.8,18.2,75.6c9.1,29.4,20.2,58.1,33.3,85.9
	c6.9,14.6,14.4,29.2,22.6,43.6c2,3.6,4.1,7.2,6.2,10.8s4.2,7.2,6.4,10.7l6.6,10.6l6.9,10.4c9.3,13.8,19,27.2,29.1,40.1
	c10.1,12.9,20.5,25.2,31.2,37c36.6,40.4,77.8,76.4,122.7,107.3c4.4,3,8.5,5.8,12.5,8.5l11.4,7.4c3.6,2.3,7,4.3,10.1,6.3l4.5,2.8
	l4.2,2.4l8.9,4.7c3,1.6,6.1,3.1,9.1,4.7c6.1,3.3,12.5,6.3,18.9,9.6c12.9,6.2,26.3,12.6,39.8,18.2c25.9,11.1,52.5,20.3,79.8,27.5
	l-5.1-1.1c3.3,0.9,7.6,2.2,12.8,3.5s11.2,3,18,4.5l10.7,2.5l11.8,2.5c4.1,0.9,8.4,1.6,12.8,2.4l6.7,1.2l7,1.1
	c18.8,3.1,39.7,5.7,61.8,7.2c17.5,1.2,35.8,1.8,54.2,1.6c2.6,0.6,5.2,1,7.9,1.3c1,0.1,2.1,0.3,3.2,0.3l3.3,0.1
	c2.3,0.1,4.6,0.2,6.8,0.1c-3.6-0.4-7.2-0.9-11.2-1.2c-2-0.2-4-0.4-6.2-0.7h-0.3c3.1-0.1,6.2-0.1,9.3-0.2l-0.4,0.6
	c1.6,0,3.1,0,4.7-0.1s3.1-0.1,4.7-0.2c2.8,0,5.3-0.2,7.3-0.4s3.7-0.6,5-0.8l1.6-0.3l1.7-0.1c0.2,0,0.2,0.2,0.2,0.3
	c-2.6,0.3-5.1,0.6-7.7,0.9c-2.6,0.2-5.2,0.3-7.7,0.5c11.3-0.5,3.6,0.7-0.7,1.5l7-0.2c2.2,0,4.3-0.2,6.3-0.3c2.1-0.7-1.8-0.3-3.6-0.3
	c1.5-0.3,3.2-0.6,4.9-1s3.6-0.8,5.4-1.3c1-0.2,1.9-0.5,2.9-0.7c13.1-1,26.1-2.4,38.7-4.1c22.3-3,43.4-7.1,62.5-11.6
	s36.2-9.5,50.3-14c3.5-1.2,6.9-2.2,10-3.3l8.8-3.1c5.5-1.9,10.2-3.8,13.9-5.2l-8.2,2.8c26.1-10.3,37.1-15.3,47-19.2l7.3-3
	c2.5-1,5.1-2.1,8-3.4s6.2-2.8,9.9-4.5s7.9-3.9,12.9-6.4c-1.5,0.2,0-1,3.3-3.2s8.4-5.4,14.2-9.1s12.1-7.6,18-11.5
	c2.9-1.9,5.8-3.7,8.3-5.4l6.7-4.5l-0.3,0.7c11.5-7.7,29.7-20.9,48.8-36.8s38.8-34.2,54.7-50.4l-0.4,2.1c3.2-3.5,6.8-7.3,10.7-11.4
	s7.9-8.6,12-13.2s8.4-9.5,12.6-14.5l6.3-7.5l6.2-7.6c4.1-5,8-10.2,11.8-15c1.9-2.4,3.7-4.9,5.4-7.3l5.1-6.9
	c3.2-4.5,6.2-8.8,8.8-12.6s4.8-7.3,6.7-10.1c8.7-13,18.2-28,27.6-44.7l0,0c1.4-2.2,2.7-4.3,4.1-6.6c2.4-4,4.8-8.1,7.2-12.2
	c9.5-16.4,17.9-33.4,24.6-48.1l4.6-10.6c1.5-3.3,2.7-6.5,3.9-9.5s2.3-5.6,3.2-8s1.7-4.5,2.4-6.4l-0.2,1.2c4.2-11,9-25,13.8-40.8
	c1.1-4,2.3-8,3.4-12.1c0.6-2.1,1.1-4.2,1.7-6.3s1.1-4.2,1.6-6.4s1.1-4.3,1.6-6.5l1.5-6.5c1-4.4,2-8.8,2.8-13.2l1.3-6.7
	c0.4-2.2,0.9-4.4,1.2-6.7c0.7-4.5,1.5-8.9,2.2-13.2c1.2-8.8,2.4-17.4,3.2-25.7c0.2-2.1,0.4-4.1,0.6-6.1c0.2-2,0.4-4,0.4-6
	c0.3-4,0.6-7.8,0.8-11.5c0.3-7.4,0.7-14.2,0.5-20.3c0.8-3.9,1.3-7.8,1.5-11.7c0.2,0.3,0.4,0.4,0.6,0.4c-0.5,13.7-1.6,27.3-2.1,31.5
	c0.5-1.7,1.3-9.3,2-18.3c0.2-4.5,0.5-9.3,0.6-13.9s0.1-9,0-12.6l-0.6-0.8c0-0.1,0-0.3,0-0.4c0,0.1,0,0.2-0.1,0.3l-1.1-1.6
	c0-4.1-0.1-7.3-0.1-9.8s0-4.4,0-5.8c0-1.6,0.1-3.1,0.3-4.6c0.3-1.5,0.4-3,0.4-4.5c0-2.7,0-7.1-0.3-15.2c0.7-0.9,1.4,6,2,16.5
	c0.3,5.2,0.3,11.3,0.5,17.8c0,3.2-0.1,6.5-0.1,9.8s0,6.6-0.1,9.9c0.2-5.9,0.4-11.8,0.6-17.4s0.1-11.1,0.2-16.1
	S1456.4,770.6,1456.2,766.7z M1237.8,1206.7c-2-0.8-3.9-1.8-5.7-3c-5.7-3.2,0.3-1.4-6.3-5.2c-34.6-20-71-36.7-108.7-50
	c-0.7-0.7,0.3-0.3,1.4,0c-2.9-1-5.7-1.9-8.5-2.8s-5.5-1.7-8.2-2.6l-6.8-2.1c0.6-1.9,1.3-3.8,2-5.7c1.2-3.4,2.5-6.9,3.4-9.8
	c0.8-2.3,1.4-4.6,1.7-7c0.2,0.2,2.8-8.2,3.4-7.4c-0.7-3,2.2-8.7,3.3-14.1c0.1-2-0.8,1.3-1.7,2.6l2.8-12.3c1.8-4.6,2.9-5.6,1.7-0.4
	c1.2-4,2.7-9.8,4.7-17.1c0.9-3.7,2-7.7,3-12s2.2-9,3.3-13.8c4.6-19.5,9.4-43,13.3-66.7s7.1-47.6,9-67.9c1-10.1,1.7-19.3,2.3-27
	s0.9-14.1,1-18.5c-1.4,4.5-1.4,15.4-3.6,19.5c-0.4-9.4,1.3-13.7,0.4-17.9c1.5-1.7,1.9-6.8,2.4-12.4s0.8-11.6,2.4-15.1l-1.5-2.7
	c0.4-1.5,0.8-3.1,1.1-4.6c0-2.1-0.1-3.9-0.1-5.7c28.5,0.3,56.7,0.8,66.5,0.6l-2.7-0.3c17.6-1,15.2,1.1,29.1,2
	c-1.8-2.3,13.3-3.3,19.1-3.4l-0.2,0.5c8.7-0.2,28.4-1.9,42.7-1.8l-0.6,1.3c12-1.1,34.5,0.3,43.1,0.7c9.8,0.7,22.3,2.2,35.7,3.6
	l8.1,0.8c0,0.3,0,0.6,0,0.9c0,1.6-0.1,3.2-0.3,4.8c0.2-1.2,1.3-3.1,1.6-0.2c-1.7,0.5,0.7,8.7-1,10.2c0,3.2-1,13.5,1.4,10.2
	c-1.2,1.7-2.5,10.8-2.9,5.2c-0.3,3.1-0.9,6-0.7,8.3l1-3.9c-0.6,10.5-3.1,16-1.8,23l1.3-3.8c-0.2,1.6-0.3,3.1-0.4,4.5
	s-0.4,2.7-0.7,3.9c-0.5,2.4-1.3,4.2-2.5,5.3l0.2-6.5c-0.7,5.2-1.1,9.3-1.6,13.2s-0.7,7.7-0.8,12.1l0.5-3.1c0,1.8,0,3.6-0.2,5.4
	c-0.3,1.5-0.6,3.1-1,4.6c-1.1,4.6-2.1,9-3.1,12.9c-0.3,2.4,0,1.5,0.6-0.3s1.2-4.8,1.7-6.7c-0.6,3.2-1.1,6.8-1.9,10.5
	s-1.4,7.7-2.3,11.7s-1.8,8.1-2.9,12.1s-2.3,8-3.5,11.8c-1,3.6-2.2,7.2-3.6,10.6c-0.3,0.9-0.8,1.6-1.4,2.2c-0.4,0.4-0.8,0.8-1.7,3
	s-2.3,5.8-4.7,12.7c-12.7,35.9-28.7,70.5-47.8,103.4c-19,32.7-41,63.6-65.7,92.2c-2.4,2.8-4.7,5.5-7.2,8.2
	C1238.8,1207.1,1238.3,1206.9,1237.8,1206.7z M1092.8,885.8c-1.3,20.9-3.6,45.3-6.7,69.4s-7.2,47.9-11.2,67.8
	c-4,19.9-7.9,35.9-10.3,44.7c-0.6,4.8-1.7,9.9-2.8,15s-2.6,10.4-4,15.7l-4.4,15.4c-1.3,4.5-2.5,9-3.6,13.2h-0.1h-0.1l0.1-0.5
	l-0.2,0.5l-2.6-0.6l-5.5-1.4l-9.9-2.4c-5.8-1.5-9.8-2.5-10.1-2.6l-1.1,1.4l-3.5-0.9c-0.7-0.2-1.4-0.4-2.1-0.7
	c-0.6-0.2-1.2-0.6-1.7-1c-0.7-0.6-1.2-1-6.7-2c-2.3,0.7-6.8-0.4-11.2-1.5s-8.7-2.4-10.7-2.1c0.1-0.2-5.2-1.2-4.7-1.8
	c-1.9,0.9-5.5-0.7-9-1c-1.3,0.1,0.8,0.5,1.7,1l-7.8-0.9c-2.9-0.9-3.6-1.8-0.3-1.3c-2.5-0.5-6.2-1.3-10.8-2.1l-16.3-2.6l-9.6-1.5
	l-5.1-0.8c-1.7-0.3-3.5-0.4-5.2-0.7l-21.9-2.7c-7.4-1-14.8-1.5-22-2.2s-14-1.2-20.3-1.7c-12.6-0.6-22.8-1.1-28.3-1.2
	c2.8,1.1,9.6,0.8,12.1,2.3c-5.8,0.5-8.5-0.7-11.1,0c-1.1-1.1-4.3-1.5-7.7-1.7h-0.6c-0.2-6.3-0.4-11.7-0.5-15.7l0.3,1.5
	c-0.5-14.3-1.2-32.4-1.7-52.5c-0.2-5-0.2-10.1-0.3-15.3s-0.2-10.5-0.1-15.9c0-10.7,0-21.7,0.1-32.7c0.3-22,1.1-44.1,1.8-64.3
	c0.3-10.1,0.6-19.8,0.7-28.8s0.1-17.3,0-24.7c1.2-5.7,1.5-12.8,1.7-19.6c2.3-0.1,5.8-0.2,10.8-0.3c17.3-0.5,59.2-0.5,100.5-0.3
	s82.2,0.3,97.6,0.7c16.5-2.1,37.2-0.8,53.4-2.2l-1.6,0.5c2.8-0.2,7.9-0.2,14.4-0.3c0,0.7,0,1.5,0,2.5c0,2.6,0.1,5.9,0,10.4
	C1094.6,847.5,1094.1,864.9,1092.8,885.8L1092.8,885.8z M987.4,1268.2c-2.4,4.5-4.3,7.6-5.9,10c-1.2,1.9-2.6,3.7-4.1,5.5
	c-2.5,2.9-4.8,5.4-9.8,11.6c2.9-0.6-6.5,14-10.7,19.1l-0.2-0.5l-2.5,3.4l-3.2,4.1c-2.2,3-4.9,6.3-7.7,9.8c-1.4,1.8-2.8,3.4-4.3,5.2
	s-2.9,3.5-4.5,5.2c-3,3.3-6,6.6-9,9.4l-0.4-1.3c-4.4,5.1-11.5,11.7-18.5,17.5l-5.2,4.2c-1.7,1.3-3.4,2.5-4.9,3.7
	c-3.1,2.4-5.8,4.2-7.7,5.6c-10.8,7.1-22.1,13.2-33.9,18.5c-6.5,3.1-13.2,5.8-19.9,8.5c-1.7,0.7-3.4,1.3-5,2c-1,0.4-2,0.8-3.1,1.2
	c-0.9-4.1-1.7-8.5-1.4-12.5l0.3,0.1c0.5-16.1-4.4-24.6-3.4-39.3l0.6,1.6c0.7-5.2-1.1-15.4-0.5-24.8c-0.2,2.7-1.3,5-1.7-0.6
	c0.3-5.4,0.1-9.9,0-14.1c-0.2-4-0.1-7.9,0.3-11.9l-1.8-7.6c-0.1-9.4-0.5-25.6-0.6-45.4s0-42.9,0.1-66.1c0-5.8,0-11.6,0-17.3
	s-0.1-11.4-0.1-17s-0.2-11.1-0.2-16.4c0-1.4,0-2.9-0.1-4.3c0.9,0,1.7,0,2.7,0.1l17.7,0.7l10.2,0.5l2.7,0.1l2.7,0.2l5.4,0.5l22.5,1.9
	c1.9,0.1,3.8,0.4,5.7,0.6l5.6,0.7l11,1.3l10.5,1.3c3.4,0.4,6.7,1,9.8,1.5l16.8,2.7l6.5,1.1l5,1c12.2,0.7,26.9,4.3,38.7,6l-1.2,0.1
	c3.2,0.5,9.9,2,18.5,3.8l26.9,6.9c-4,10.4-8.6,21.8-13.6,33.1c-1.8,3.9-3.5,7.8-5.3,11.6s-3.6,7.6-5.4,11.3s-3.6,7.3-5.4,10.7
	s-3.5,6.8-5.2,9.9s-3.3,6.1-4.8,8.9l-4.4,7.7c-2.7,4.7-5,8.3-6.4,10.9L987.4,1268.2z M731.7,1410.1c-0.2-0.4-0.6-1-5.5-2.9
	c-13-5.3-25.5-11.9-37.1-19.9c-11.7-8.1-22.8-17.1-33-27c-2.6-2.5-5.1-5-7.7-7.6s-5-5.2-7.4-7.9c-4.8-5.4-9.6-10.9-14.2-16.6
	c-9.3-11.5-18-23.6-25.9-36.1c-0.4-1.4,0.5,0,1.5,1.4c-10.1-15-17.7-29.3-25.4-44c-0.9-2.3-1.5-4.8-1.7-7.3
	c0.2,1.5-9.9-19.1-18.6-40.9c-4.5-10.9-8.7-22-11.8-30.5c-0.5-1.3-1-2.6-1.4-3.8c19.2-5,35.8-8.5,44.4-10.4l-1,0.4l4-0.9l4.3-0.8
	l9.3-1.7l10.1-1.9c3.5-0.6,7.1-1.4,10.8-1.9l23.1-3.5c2-0.3,4-0.6,6-0.8l6.1-0.7l12.2-1.4l12.2-1.5l12.2-1.1l11.9-1.1l5.8-0.5
	l2.9-0.2l2.9-0.2l21.6-1.4c3.4-0.2,6.6-0.5,9.7-0.6l5.5-0.2c0,7.6,0.1,15.3,0.1,23.1c0.2,19.3,0.5,38.6,0.6,54.6s0.1,28.4-0.2,34.2
	c-0.9,9.4-2.8,1.7-3,1.6c0.7,11.4,1.8,4.9,1.7,14.6c-0.3,2.6-1.4-0.6-1.6-2c0.2,4.2-0.4,8.2,0.4,8.5c0.7-5.3,2.8-3.1,4.2-5.3
	l-0.3,12.4l-1.4-0.6c-0.1,2.8,3.7,7,2.8,19.3c-0.9,20.6-1,43.1-2,63.8c-0.9-0.3-1.2-4.7-1.6-9c-0.2,2.8-0.1,7-0.8,9.6
	c1.8-5,0.7,8.7,1.5,4.8c1.5,7.6,1.3,16.3,0.8,24.8c-0.4,7.5-1,14.8-0.5,21.1c-1,0-1.9-0.1-2.9-0.1l-9.6-0.6l-4.6-0.3l-4.4-0.4
	l-5.2-0.4C731.9,1410.3,731.8,1410.2,731.7,1410.1L731.7,1410.1z M519,1095.2c-2.3-2-2.9-8-4.9-12.8c-1-1.7-0.1,1.4-0.1,2.9
	c-1.4-3.7-2.7-7.5-4-11.3c-0.9-4.6-0.3-5.9,1.3-1.1c-1.1-3.7-2.5-9.3-4.5-16.2s-3.9-15.2-6.1-24.4s-4.3-19.5-6.2-30.2
	c-1-5.4-1.9-10.9-2.8-16.5s-1.7-11.2-2.4-16.9c-6.1-45.3-7.1-91.4-8-108.2c-1.1,4.4,0.1,14.8-1.6,18.8c-1.3-8.9-0.1-13.2-1.3-17
	c2.7-3.6,0.2-19.7,2.9-26.5l-1.6-2.5c0.3-1.5,0.6-3,0.9-4.5c-0.1-1.5-0.2-3-0.2-4.3h0.6c20.2-0.5,36.8-1,46.5-1.1l-1.5,0.2
	c14.7-0.3,33.2-0.7,53.6-1l31.9-0.4c11-0.2,22.2-0.3,33.4-0.2s22.5,0.5,33.5,1s21.8,1.2,32.2,1.7l15.2,0.8l14.3,0.6l4.6,0.2
	c0.6,16.1,3.5,24,2.9,33c0.2-1.6,1.2-4.1,1.8-0.2c-1.8,0.7,1.7,11.6,0,13.7c0.3,4.3,0.8,18.1,3,13.4c-1.1,2.3-1,14.7-2.4,7.3
	c0.1,4.2,0,8.2,0.7,11.2l0.4-5.3c1,14-0.4,21.7,2,30.9l0.7-5.2c0.2,4.2,0.5,8,0.4,11.3s-0.5,5.8-1.6,7.5c-0.3-2.9-0.6-5.8-1-8.6
	c0.5,13.9,1,22.3,2.3,33.9v-4.2c1.2,7.4,2.5,30.4,3.3,53.3c0.8,22.9,1.3,45.6,2.6,52.5l1.8-6.3l1.2,11.7c0-1.3-4.5-4.9-4.9-6.4
	c-0.1,5-0.2,13.9-0.3,25.1c-2.7,0.3-5.4,0.4-8.2,0.3c1.2,0.1,3,0.7,0.1,1c-0.6-1-9,1.2-10.7,0.2c-3.3,0.3-14.1,0.7-10.4,2
	c-1.9-0.7-11.5-0.5-5.8-1.4c-3.2,0.1-6.4,0-8.7,0.5c1.4,0,2.8,0.1,4.2,0.2l-7.3,0.4l-6.1,0.3c-3.5,0.1-7.1,0.6-10.5,1.5l4.1,0.3
	c-6.5,0.6-11.9,1.2-14.6-0.1l6.7-1c-5.4,0.4-9.8,0.8-13.8,1.4s-7.9,1.2-12.4,2.1l3.2-0.3c-2.8,0.7-8.7,1.7-16,2.8
	c-3.7,0.5-7.7,1.4-11.9,2.1l-13,2.4l-6.5,1.2c-2.2,0.4-4.3,0.8-6.4,1.3l-11.7,2.7c-7.1,1.7-12.7,3.1-15.2,4l5,0.3
	c-2.9,0.9-5.8,1.6-8.8,2.6c1-0.2,3.2-3.7,4.3-4.2c-1.2,0.2-2.6,0.4-4.2,0.8l-6.1,1.3l-16.2,3.6c-3.1,0.7-6.3,1.3-9.6,2.2l-10.2,2.5
	l-10.7,2.7l-0.3,0.1c-3.8-8-6.8-23.8-9.6-28C520.4,1102.8,518,1095,519,1095.2z M477.8,737.5c-0.1-3.7-0.2-7.6,0.5-8.8
	c-0.1-5.1,0.8-21.7-1.2-16.2c0.5-1.4,1-5.8,1.5-8.7s0.8-4.4,1,0c0.3-5,0.8-9.8,0.7-13.4l-0.8,6.4c0.3-8.4,1.1-14.9,1.6-20.7
	c0.6-5.4,0.9-10.9,0.7-16.3l-1.2,6.1c0.8-10.1,1.7-18.5,3.7-22.2l-0.6,10.4c0.4-4.2,0.8-7.9,1.2-11.4s0.8-6.7,1.1-9.9s0.6-6.2,1-9.4
	s0.6-6.4,0.9-9.9l-0.8,4.9c0.5-8.9,4-36.4,9.2-63.5c2.6-13.5,5.5-26.9,8-38s4.6-19.7,5.3-23.7l-3.4,7l3-13.8
	c-0.5,1.5,1.5,6.6,1.3,8.4c0.5-1.7,1.1-3.9,1.9-6.3c0.8-2.7,1.8-5.8,2.9-9.2l0.7-2.2l1.5,0.4c1.8,0.5,3.8,1,5.8,1.5l6,1.5
	c8,2,16.2,4.2,22.4,5.7s10.5,2.4,10.7,2.5l1.2-1.7c12.4,2.7,3.2,3,14.7,5.1c1.7-0.4,3.5-0.4,5.2-0.1c2.1,0.3,4.5,0.8,6.8,1.4
	c4.7,1.1,9.3,2.4,11.4,2c-0.1,0.2,5.5,1.3,5,2.1c2-1.2,5.9,0.8,9.5,0.9c1.4-0.2-0.9-0.6-1.8-1.2l8.3,0.7c3.1,1,3.8,2,0.3,1.6l11.5,2
	l8,1.4l4.5,0.8l4.8,0.6c13.1,1.7,28.7,4.1,44.5,5.4c21.1,2.2,42.3,3.3,57.6,3.7c-0.2,9.8-2.5,2.1-1.8,15c1.7,2.8,1.6,8.7,1.3,14.5
	s-0.7,11.5,0.1,14c-0.2-0.1-0.4,6.8-1.4,6.4c1.7,2.1,0.4,7.1,0.8,11.5c0.5,1.6,0.5-1.2,1.1-2.3l0.5,10c-0.6,3.9-1.7,4.9-1.8,0.6
	c-0.2,6.5-0.6,19.3-1.1,35.2c-0.3,8-0.5,16.7-0.8,25.8s-0.7,18.7-1.2,28.2c-0.9,19.1-2.1,38.3-3,54.4c-0.4,8.1-0.8,15.4-1,21.6
	s-0.3,11.2-0.3,14.8c1.7-3.6,1-12.3,3.5-15.6c1.1,7.5-0.9,11,0.4,14.3c-2,1.5-2.3,5.8-2.6,10.4l-0.9,0.1c-3.1,0.5-6.5,0.9-7.5,0.2
	c-4.4,0.4-18.5,1.2-13.7,2.7c-2.4-0.8-15-0.3-7.5-1.6c-4.2,0.2-8.4,0.3-11.4,0.9l5.5,0.1c-14.4,1.2-22.2,0.5-31.5,2.5l5.3,0.4
	c-4.3,0.3-8.2,0.5-11.5,0.5s-5.9-0.3-7.6-1c2.9-0.3,5.9-0.6,8.8-0.9c-14.2,0.7-22.8,1.1-34.7,2h4.2c-1.9,0.2-4.8,0.5-8.4,0.7
	s-8,0.4-12.9,0.5L589,780c-23.4,0.6-46.7,1.2-53.6,2.1l6.4,1.3l-12,1c1.3,0,5-3.3,6.6-3.6c-9.2,0-31-0.2-56.6-0.4
	c-0.2-7.7-0.6-13.7-1-18.9c-0.5-5.5-0.5-11-0.2-16.6c-0.2,1.9-1.1,5-1.3,0.3C478.1,744.7,477.9,741.2,477.8,737.5z M608.8,295.9
	c0.5-1.1,0.8-2,4.3-6.4c2.1-2.3,0.6,1.2-0.3,2.7c2.9-4,6.1-7.2,5.8-8c-4.3,4.5-4.1,1.3-6.7,2.6c3-3.8,6.1-7.5,9.2-11.2l0.5,1.3
	c1-1.2,1.7-3.3,3.4-6.4c2.5-4.5,5.6-8.6,9.3-12.2c8.3-8.6,17.1-17.4,26.3-25.5l7-6c2.4-1.9,4.8-3.8,7.1-5.7s4.8-3.6,7.2-5.4
	s4.9-3.4,7.3-5c0,0.7-3.7,3.9-7.5,7.1l4.5-3.1c1.4-1,2.9-1.9,4.5-2.7c-5.3,2,7.7-6,3.8-4.1c6.5-5.8,15-10.7,23.7-14.7
	c2.2-1,4.3-2,6.4-2.9s4.2-1.7,6.3-2.6c4.1-1.6,8-3.2,11.5-4.7c0.3-0.8,13-3.4,16.1-3.5c-3.4,2.9-5.8,6.8-7,11.1l-1.2,6.2
	c-0.5,8.1,1.4,11.8-0.2,11.2l-0.2-11.1c-0.2,8.1,0.5,16.7,0,22c0.1,8.3-2,110.7-0.5,162.3c-0.5,1.2-0.6-0.2-0.8-1.7
	c1,15.5,1.1,29.4,2,43.5c-0.2,2.2-0.8,4.3-1.8,6.2c0.5-1,1,13.6,1.5,30.5H750l-5.4-0.2l-11.3-0.5c-7.7-0.4-15.7-0.7-23.7-1.5
	l-23.5-2c-7.6-0.9-14.8-1.8-21.4-2.6l-9.4-1.2c-3-0.4-5.7-0.9-8.2-1.3c-5-0.8-9.2-1.5-12.1-2.1c-3.2,0-6.6-0.2-10.1-0.5l-2.6-0.3
	l-2.6-0.4l-5.3-0.9c-7-1.2-14-2.4-20.3-2.9l1.3-0.2c-3.4-0.3-10.5-1.8-19.5-3.7l-14.8-3.1l-16.1-4l-8.2-2l-4-1h-0.2
	c0.5-1.2,1-2.5,1.5-3.7c2.1-5.1,4.2-10.4,6.5-15.6l3.5-7.9c1.2-2.6,2.4-5.2,3.6-7.9c9.1-19.6,19.4-38.6,30.6-57
	c2.5-4,4.8-7.8,7.1-11.2s4.3-6.6,6.3-9.4s3.7-5.3,5.2-7.5l3.9-5.2c3.5-4.2,4.3-4.2,4.2-3.2s-1,3.1-1,3.2
	C607.8,298.3,608.3,297,608.8,295.9L608.8,295.9z M1065.2,545.3c5.3,23.3,10.3,49.1,14.2,75.2c8,52.1,11.6,105.1,13.5,140.6
	c-0.2,2.4-0.3,5-0.4,7.7l-2.5,0.1c-5.7,3-24-0.5-29,1c0.1-0.2-7-0.4-6.5-1.4c-2.2,1.7-7.3,0.3-11.8,0.7c-1.6,0.5,1.2,0.5,2.4,1
	l-10.2,0.5c-4-0.6-5-1.6-0.6-1.7c-13.4-0.4-52.1-1.5-91.2-2.2c-9.8-0.2-19.5-0.4-28.9-0.5l-26.7-0.2c-16.5-0.1-29.9-0.1-37.1,0.2
	c1.8,0.7,5,0.7,8.1,0.9s6.2,0.5,7.9,1.5c-7.6,1.1-11.2-0.4-14.6,0.8c-2.9-3.1-16.7-0.7-22.5-3.8l-2.2,1.8l-3.8-1l-8.2,0.5
	c-0.3-7.2-0.6-15.7-1-25.1c-0.6-17.4-1.4-37.8-1.9-58c-0.1-5.1-0.2-10.1-0.3-15.1s-0.1-9.9-0.1-14.8c-0.1-9.7-0.1-18.9-0.1-27.4
	s0.1-16.1,0.1-22.6s0.2-11.8,0.3-15.6c-2.3-16.2-0.8-36.4-2-52.2l0.5,1.6c-0.2-4.3-0.2-13.7,0-25.6c0.4,0,0.9,0,1.5,0.1
	c0.9,0,2.2,0.1,4,0.1h3.1c1.2,0,2.5-0.1,4-0.1c13.7-0.9,20.2-3.3,27.8-3c-1.3-0.1-3.6-0.8-0.3-1.3c0.3,0.6,2.7,0.4,5.2-0.1
	s5.2-0.9,6.1-0.3c3.5-0.5,14.9-1.2,10.9-2.8c2,0.8,12.2,0.3,6.2,1.6c3.4-0.2,6.8-0.2,9.2-0.9l-4.5-0.1c1.5-0.2,2.8-0.3,4.1-0.4
	l3.7-0.3l6.4-0.5c3.8-0.2,7.5-0.9,11.1-2.1l-4.3-0.2c6.9-0.9,12.6-1.7,15.6-0.2l-7,1.4l7.8-1c2.4-0.4,4.6-0.8,6.8-1.1
	c4.3-0.8,8.4-1.7,13-2.9l-3.4,0.5c3-0.9,9.1-2.3,16.8-3.9c7.7-1.9,17-4,26.2-6.1c2.3-0.5,4.6-1,6.9-1.6l6.7-1.8
	c4.3-1.2,8.5-2.3,12.2-3.4s7.1-2,9.8-2.9c2.1-0.7,4.1-1.4,6.1-2.3l-5.3-0.1l9.1-3.5c-1,0.2-3,4.7-4.2,5.3c4.5-1.2,12.9-3.3,23.4-6.1
	c0.6,1.7,1.1,3.4,1.6,4.9c1.1,3.6,2.1,6.8,2.9,9.5l-0.7-1.6C1054.1,501.2,1059.9,522,1065.2,545.3L1065.2,545.3z M1017.7,430
	l1.1-0.5c-10.8,3-24.8,5.7-40.1,9c-15.5,2.8-32.4,6-49.5,8.3l-12.8,1.9c-4.3,0.6-8.5,1-12.7,1.5l-12.5,1.5c-4.1,0.5-8.1,1-12.1,1.4
	c-7.9,0.7-15.5,1.5-22.6,2.2l-5.2,0.5l-5,0.4l-9.2,0.7c-4.1-0.4-8.2-0.6-12.2-0.4l-6.4,0.2c-2.1,0-4.1,0-6-0.1
	c4.2,0.5,2.8,1.4-0.5,1.4c0.6-23.5,1.1-45,1-53.2l-0.4,2.7c-1-17.2,1.3-14.9,2.4-28.5c-2.5,1.8-3.7-13-3.8-18.6l0.5,0.2
	c-0.3-8.5-2.1-27.8-2.2-41.8l1.4,0.5c-1.3-11.7-0.2-33.7-0.2-42.1c0.9-19.2,4.5-48.9,3.1-74.7c1.3-4.6,2.7-9.2,4.2-13.8
	c0.6,0.2,1.5,0.5,2.8,0.9c6,1.3,14.1,2.6,20.5,5.9l-0.2,0.1c7.8,3.7,14,6.2,20,8.9c6.4,2.8,12.5,6.3,18.1,10.5
	c-0.5-0.2-1.1-0.4-1.7-0.7c1.1,0.9,2.5,2,4.2,3.1s3.6,2.4,5.5,3.9s4.1,2.9,6.1,4.6s4.1,3.4,6,5.2c-0.8-0.7-1.5-1.5-2-2.4
	c0-0.3,0.8,0,3.3,2c8.8,8.3,15.3,13.6,20.9,20.6c2.2,1.8,4.5,3.6,6.7,5.5c3.6,4,8.5,9.4,14.2,16.2c2.9,3.4,5.8,7.2,9,11.2
	c1.6,2,3.1,4.2,4.8,6.4s3.3,4.4,4.9,6.8c6.6,9.3,13.6,19.8,20.3,31s13.3,23.1,19.6,35.3c10.5,20.7,20,41.8,28.3,63.5L1017.7,430z
	 M1091.1,477c0.4,1.5,5.3,4.8,6.1,6.6c-0.6-1.8-1.2-4-2-6.6c-0.9-2.8-1.9-6-3.1-9.6l-1.8-5.7l-1-3l3.8-1.3l11.3-3.8l2.8-1l2.7-1
	l5.4-2l20.1-7.5c12.2-5,21.7-8.9,26.2-10.6c7.3-2.5,2.1,1.4,2.1,1.6c8.4-4.4,3.2-3,10.5-6.3c2.1-0.7,0,1.1-1,1.8
	c3.1-1.6,6.3-2.6,6.3-3.3c-4.2,1.4-3.2-0.8-5.3-1l9.4-4.2v1.1c1.1-0.5,2.1-1.7,4-3.3c2.8-2.4,5.9-4.4,9.3-5.8
	c7.7-3.7,15.7-7.6,23.4-12.2l11.6-6.6l2.9-1.6l1.4-0.8l0.3-0.2l0.2-0.1l0.3-0.2l2.7-1.6c0.1,0.6-1.3,1.9-2.5,3
	c0.9-0.5,2.2-1.5,3.1-1.6c-1.9,0,2.6-2.4,1.3-2.1c1.2-1.4,2.6-2.7,4.1-3.8l0.1-0.1c2.1,2.4,4.5,5.1,7,8s5.2,6.4,8,10.1
	c9.6,12.5,19,25.5,28.1,39s17.6,27.5,25.7,41.7c4.3,7.6,8.5,15.2,12.5,22.9c1.5,3.2,3,6.3,4.4,9.5c0.5,1.6,0.7,3.3,0.6,5
	c0-0.5,1.5,2.7,3.7,7.7l3.6,8.8l2,5c0.6,1.7,1.3,3.5,2,5.3c2.7,7,5.2,14.3,7,19.7c1,2.7,1.7,5.1,2.2,6.7s0.8,2.7,0.8,2.8h2
	c3.6,11-1,4,2.6,14c1.9,1.5,3.2,5.8,4.1,10s1.7,8.5,3,10.1c-0.2,0,1,5,0,5c1.9,1.1,1.7,5.1,2.9,8.1c0.7,1,0.2-1,0.5-2
	c0.8,2.4,1.7,4.7,2.4,7.1c0.2,3-0.6,4-1.5,0.9c0.5,2.4,1.2,5.9,2.2,10.3s1.9,9.7,3,15.5c2,11.7,4.5,25.7,6.3,39.8
	c0.5,3.5,0.9,7,1.3,10.5s0.9,7,1.2,10.4s0.7,6.7,1,10s0.5,6.4,0.8,9.3c1,12,1.7,21.7,2.2,26.9c0.6-1.4,0.6-3.7,0.7-6
	s0.2-4.5,1.2-5.8c0.6,2.1,0.9,4.3,0.9,6.4c0,1.7-0.1,2.9,0.7,4.1c-0.7,0.6-1.2,1.5-1.3,2.5c-24,1.7-47.7,2.8-71.4,3.5l-19.3,0.5
	l-19.4,0.4c-13,0.2-26,0.4-39.2,0.8c-1.2-0.5,0.2-0.5,1.8-0.8c-7.9,0.4-15.4,0.6-22.8,0.8s-14.5,0.4-21.7,0.7
	c-2.2-0.2-4.3-0.8-6.3-1.7c1.2,0.5-18.8,1-39.2,1.1h-3c-0.3-3.4-0.6-6.5-1-9.4c-0.4-3.3-0.7-6.3-0.9-9.2c-0.2-2.7-0.3-5.4-0.3-8.1
	c-0.1,2-0.8,5.3-1.4,0.4c0.7-0.5,0.3-4.1-0.2-8s-1-7.9-0.4-9.2c-0.5-5.3-1.7-22.6-3.1-16.6c0.4-1.5,0.4-6.1,0.4-9.2s0.2-4.7,1-0.1
	c-0.4-5.2-0.6-10.3-1.4-14l0.1,6.7c-0.9-8.8-1.4-15.5-2-21.6c-0.4-5.7-1.4-11.3-2.9-16.8l0.1,6.5c-0.3-2.6-0.7-5.1-1-7.5
	s-0.6-4.5-0.8-6.6c-0.4-4-0.4-7.3,0.2-9.5l2.1,10.7c-0.6-4.3-1.2-8.2-1.7-11.9s-1.2-7-1.7-10.3s-1.2-6.5-1.9-9.7s-1.4-6.6-2.3-10.1
	l0.8,5.1c-0.6-2.3-1.4-5.7-2.4-10.1s-2.1-9.6-3.5-15.5l-2-9.2c-0.8-3.2-1.6-6.5-2.4-9.8s-1.6-6.8-2.5-10.2s-1.8-6.9-2.7-10.4
	c-3.7-13.9-7.6-27.7-11.2-38.9s-6.7-20-8.4-23.9l0.9,7.9L1091.1,477z M1380,943.2l1.5-6.3c-0.2,1.1-0.3,2.2-0.5,3.4l-0.2,1.7
	C1380.4,943.3,1380.2,943.7,1380,943.2z M922.4,192.2l2.7,0.6l5.4,1.2c7.2,1.6,14.3,3.5,21.4,5.3c3.5,1,7,2,10.5,3l5.2,1.5l5.2,1.6
	c3.4,1.1,6.9,2.1,10.3,3.2l10.1,3.4c3.4,1.1,6.7,2.4,9.9,3.6s6.5,2.4,9.8,3.6c6.4,2.6,12.7,5,18.8,7.7c3.1,1.3,6.1,2.6,9.1,3.9
	l8.8,4.1c1.4,0.7,2.9,1.3,4.3,2l4.2,2.1l8.3,4.1c19,9.7,37.5,20.5,55.2,32.3l10.5,7.1l9,6.5c5.6,4,10,7.6,13.5,10.3
	c11,9.1,11.7,10.3,9.7,9.2s-6.9-4.6-7.1-4.6l8.4,6.5l5.3,4.2c2.8,2.2,4.1,3.2,5.4,4.1c1.6,1.1,3.1,2.3,4.5,3.6
	c1.1,0.9,2.4,2.1,4.2,3.7s4,3.5,6.6,6c2.9,2.9,2.4,2.7,0.8,1.5s-4.3-3.5-6.1-4.9c2.5,2.1,4.7,4.3,6.9,6.4l5.8,5.6
	c3.4,3.3,5.7,5.6,6.2,5.7c-2.8-2.9-4.5-4.9-5.6-6.3c-0.7-0.8-1.4-1.7-1.8-2.8c-0.3-1.6-1.1-3.2-2.3-4.4c7,6.5,13.8,13.3,20.4,20.1
	l-0.9,0.5l-1.1,0.6c-3.1,1.8-6.4,3.4-9.7,4.8c1.9-0.8,3.9-0.9,0.1,1.2c-3.9,1.6-7,3.2-9.8,4.7l-2.1,1.1c-0.7,0.3-1.4,0.6-2.1,0.9
	c-1.4,0.6-2.8,1.1-4.3,1.6l-4.8,3.5c-13,6.5-46,21.1-80.1,33.1l-6.4,2.3l-3.2,1.1l-3.2,1l-12.7,4.1l-2.8,0.9l-1.3-3.4
	c-4.4-10.8-9.1-22.1-14.3-33.1l-1.9-4.2c-0.7-1.4-1.3-2.8-2-4.1l-3.9-8.2c-2.7-5.4-5.3-10.8-8-15.9c-5.3-10.4-10.8-20.1-15.8-28.8
	c-10.2-17.4-19-30.6-23.2-36.8c-3.1-5.1-3.1-5.8-2.1-5.3c1,0.7,1.9,1.5,2.8,2.4c-4.4-5.8-5.7-6.9-6.6-7.8s-1.7-1.6-5.4-6.6
	c-1.9-2.8,1.2,0,2.5,1.4c-3.4-4.2-6.2-8.5-6.9-8.4c3.9,5.6,0.8,4.3,1.8,7.2c-3.1-4.3-6.5-8.4-9.8-12.5l1.2-0.1
	c-1.1-1.4-3.1-2.7-6-5.2c-4.3-3.7-8.2-7.7-11.9-12c-9.1-10.2-19-19.7-29.4-28.6c-5.7-4.8-11.5-9.4-17.5-13.8l4.2,0.9L922.4,192.2z
	 M771.3,138.4L771.3,138.4z M372.5,353.7L368,358c7.4-8.2,23.5-24.4,45.5-42.8c11-9.2,23.5-18.9,37-28.4s28-19,43-27.7
	c3.8-2.1,7.5-4.4,11.2-6.4l11.3-6.2l11.3-5.8c1.9-1,3.8-1.9,5.6-2.8l5.6-2.7c3.7-1.9,7.4-3.5,11.1-5.2s7.3-3.3,10.9-4.8l10.6-4.5
	l10.2-4.1c3.3-1.4,6.6-2.5,9.7-3.7s6.2-2.4,9.2-3.4l8.6-3l4-1.4l0.8-0.2l-0.8,0.7l-3,2.6c-1,0.9-2,1.7-3,2.6
	c-2.1,2.7-4.2,5.4-6.1,8.1c-13.7,14.5-26.2,30-37.4,46.5c-14.6,21.2-29.2,47.5-41.7,74.4c-6.3,13.4-12.1,27-17.3,40.2
	c-1.3,3.3-2.6,6.6-3.8,9.8s-2.5,6.4-3.6,9.6s-2.3,6.2-3.5,9.3s-2.1,6.1-3.2,9v0c-7.5-2.1-7.2-3.4-15.6-6.6
	c0.7,2.2-10.6-0.5-14.9-1.9l0.3-0.3c-1.6-0.5-3.7-1-6.2-1.7l-3.9-1l-2.1-0.5l-2.1-0.6c-5.8-1.7-12-3.7-17.3-5.5l0.8-0.8
	c-2.2-0.6-5-1.4-7.8-2.4s-5.8-2.3-8.7-3.6c-5.8-2.5-11.3-4.9-14.3-6.2c-1.7-0.8-3.5-1.7-5.4-2.7s-3.9-2-5.9-3.1
	c-4.1-2.1-8.5-4.5-13-6.8c-1.1-0.6-2.3-1.2-3.4-1.8l-3.4-1.9c-2.2-1.2-4.5-2.4-6.8-3.6c5.2-5.6,10.5-11.2,16.4-17.2
	C375.4,350.9,373.9,352.3,372.5,353.7z M189.6,761.3c0.2-3.3,0.7-7.7,1.2-14c0.1-1.6,0.3-3.3,0.5-5.1s0.4-3.7,0.6-5.8
	c0.5-4.1,0.9-8.8,1.7-14.1c2.9-24.5,5.5-42.5,8.1-57.8l2-11c0.7-3.5,1.5-6.9,2.3-10.3c0.4-1.7,0.8-3.3,1.2-5s0.9-3.3,1.4-4.9
	c0.8-2.8,1.7-5.7,2.6-8.5c-1.5,4.4-4.7,11.6-2.1,0.2c0.6-0.4,1.4-2.7,2.4-5.9s2-7.5,3.3-11.9s2.6-8.8,3.8-12.6s2.6-6.6,3.6-7.9
	c0.5-1.5,1.2-3.4,1.9-5.6s1.7-4.6,2.7-7.1s1.9-5.2,2.9-7.7s2-5.1,2.9-7.5s1.7-4.5,2.4-6.4s1.2-3.3,1.4-4.3c0.5-2,0.1-2.2-1.9,0.7
	c1-1.5,2.7-4.6,4.6-8.2L245,530c1-2.1,2.2-4,3.6-5.9c0.2-0.2,0.2,0.2-0.2,1.2c-0.2,0.5-0.4,1.2-0.8,2l-1.3,3.2
	c1.3-2.8,2.7-5.5,4.1-8.1l4-7.8c2.7-4.9,5.1-9.6,6.9-13.6l-8.1,13.6c2.4-4.6,4.7-8.9,6.9-13s4.5-7.9,6.6-11.5s4.3-7,6.2-10.3
	s4-6.4,5.9-9.4c7.7-12,14.6-22.4,21.7-34.1c-1.7,2-3.3,4-4.9,6l-4.8,6.1c3.6-5.1,6.9-10.1,10.3-14.6c1.7-2.3,3.3-4.5,4.9-6.6
	s3.2-4,4.7-5.9s3-3.6,4.3-5.3s2.8-3.1,4.1-4.5c2.1-2.3,4.4-4.4,6.9-6.4l-7.8,10.2c-2.6,3.4-5,6.9-7.5,10.4
	c6.2-8.3,12-15.5,17.5-22.3l6.3-7.5c1.7,0.8,3.4,1.8,4.9,2.8c5.9,3.5-0.4,1.5,6.6,5.7l6.8,4.1c2.3,1.4,4.6,2.6,6.9,3.9l13.9,7.6
	l3.5,1.9l1.7,0.9l1.8,0.9l7,3.5l14.1,7c1.2,0.6,2.4,1.2,3.5,1.7l3.6,1.6l7.2,3.2c4.8,2.1,9.6,4.3,14.5,6.4s9.9,3.9,14.8,5.8
	s10,3.8,15,5.6c0.8,0.7-0.3,0.4-1.5,0.1c5.7,1.8,11,3.5,16.2,5.2c-0.9,3.1-1.8,6-2.5,8.4l0.4-1.8c-5,17.3-11,39.3-16.6,63.8
	s-11.2,51.5-15.5,78.7c-8.8,54.4-14.7,109.5-15.4,146.6c-1,6.7-1.6,13.5-1.8,20.3l-8.3-0.1l-26.5-0.5c-16.2-0.3-29-0.7-35-1
	c-9.6-1-1.7-2.3-1.6-2.5c-11.6,0.3-5,1.4-14.9,1.1c-2.7-0.3,0.6-1.1,2.1-1.3c-4.3,0.1-8.4-0.5-8.7,0.1c5.4,0.7,3.1,2.4,5.4,3.7
	l-12.7-0.5l0.6-1.1c-2.8-0.1-7.2,3-19.7,2.1c-10.5-0.5-21.5-0.8-32.6-1s-22.1-0.5-32.7-1c0.3-0.8,4.8-1.1,9.2-1.4
	c-2.8-0.1-7.2,0-9.8-0.7c5.1,1.5-8.9,0.7-4.9,1.3c-7.8,1.3-16.7,1.2-25.4,0.9c-7-0.3-13.8-0.6-19.8-0.2c0-3.2,0-4.8,0.1-6.1
	C188.9,769.5,189.1,767.8,189.6,761.3z M319.6,1187.7c-2.2-2.8-4.2-5.6-6.3-8.5l-3.1-4.2c-1-1.4-2-2.9-3.1-4.3c-2-2.9-4-5.8-6.1-8.7
	l-5.9-8.8c-15.4-23.3-29.2-47.7-41.2-72.9c-11.1-23.1-20.8-46.8-29-71.1c-11.3-33.6-20.1-68.1-26.2-103c0.1,3.4,0.4,6.9,0.9,10.3
	c0.3,2,0.6,4.1,0.9,6.3l1.2,6.5c1.5,8.8,3.2,17.5,2.9,22.5c-1.6-5.3-2.8-9.9-3.8-14s-1.6-7.7-2.2-10.9s-1.1-6.1-1.6-8.7
	c-0.5-2.5-1.2-4.9-2-7.3c1.2-4.5-0.5-16.4-1.9-29.4c-0.2-1.6-0.4-3.3-0.5-4.9l-0.4-4.9c-0.2-3.3-0.6-6.5-0.6-9.6s-0.1-6-0.1-8.7
	c0-1.3,0.1-2.6,0.2-3.8s0.3-2.3,0.5-3.4l-2.7-6.1l0.3-4.3c3.7-0.6,7.4-0.8,11.1-0.6l-0.1,0.3c16.4,0.7,25.1-3.3,40.1-2.4l-1.6,0.5
	c5.3,0.6,15.7-0.9,25.3-0.4c-2.7-0.2-5.1-1.1,0.6-1.5c11,0.5,18.5-0.6,26.5,0.2l7.7-1.6l113.9-3.8l12.6-0.3
	c0.2,2.8,0.4,6.9,0.7,12.7c0.4,5.3,0.8,12.5,1.4,21c0.2,2.1,0.3,4.4,0.5,6.7s0.4,4.7,0.6,7.1c0.4,4.9,0.8,10.1,1.4,15.5
	c2,21.7,5,46.9,8.4,72s7.4,49.9,10.9,70.8c3.5,20.9,6.6,37.9,8.4,47.3c3,9.7,5.7,20.8,8.5,31.9c1.5,5.5,2.9,11,4.5,16.3
	c0.8,2.6,1.6,5.2,2.4,7.7s1.7,5,2.6,7.3l-1-1.8c0.5,1.4,1.1,3.3,1.9,5.6l-14.2,4.5c-4.3,1.5-7.7,2.7-9.9,3.3
	c-7.1,1.9-1.8-1.2-1.8-1.4c-8.2,3.4-3.2,2.4-10.4,4.9c-2,0.5,0.1-1,1.1-1.5c-3.1,1.2-6.1,1.9-6.2,2.5c4-1,2.9,0.9,4.9,1.1l-4.6,1.6
	c-1.5,0.5-3,1.2-4.5,1.7l0.1-1c-2,0.8-4.2,4.3-13.2,7.4l-5.7,2.2c-1.9,0.8-3.9,1.4-5.7,2.3l-11.5,5.1l-11.5,5.2
	c-1.9,0.8-3.8,1.8-5.6,2.7l-5.5,2.7c0-0.6,2.9-2.4,5.8-4.2c-2.2,1.2-4.5,2.2-6.8,3.1c3.9-0.9-5.8,3.6-2.9,2.6
	c-2.5,1.9-5.2,3.6-8,5.1c-1.4,0.8-2.9,1.5-4.4,2.4l-4.4,2.4c-5.2,2.6-10.2,5.6-15,8.8l-1.3-1.5l-3.3-4c-2.2-2.7-4.5-5.3-6.6-8.1
	L319.6,1187.7z M621.3,1391.5c-1.9-0.4-3.8-1-5.7-1.6l-6-1.8c-2-0.6-4.1-1.2-6.2-1.9l-6.2-2.1l-6.2-2.1c-2-0.7-4-1.5-6-2.2
	c-3.9-1.5-7.7-2.8-11.2-4.1c-6.9-2.7-12.7-4.7-16.2-5.9c-0.9-0.5-1.8-0.9-2.8-1.3l-6.3-2.8c-4.5-2.1-8.9-4.3-8.2-4.4
	c-2-0.5-4.1-1.1-6-1.9c-2.3-1-4.9-2.2-7.7-3.5c-5.6-2.6-11.8-6-17.8-8.8c-4.4-1.8,2.9,2,5.9,4l-6.8-3.3c-2.3-1.1-4.5-2.3-6.7-3.4
	l-6.7-3.4c-2.2-1.2-4.4-2.4-6.6-3.6c-5-3.1-8-5.2-8.4-5.8c-0.2-0.3,0.3-0.2,1.5,0.4s3.2,1.6,6,3.2c-8.5-4.9-20.9-12.5-35.8-22.6
	c-17.4-11.9-34.2-24.8-50.2-38.6c-12.5-10.7-25.2-22.7-37.9-35.8c0.8-0.4,1.6-0.8,2.4-1.1v0.2c2.4-1.1,4.8-2.3,7.1-3.7
	c1-0.6,2-1.2,3-1.8l2.9-1.7c3.9-2.6,8.1-4.8,12.5-6.5l-0.9,0.8c2.5-1,4.9-2.1,7.2-3.4c1.4-0.8,3-1.5,4.6-2.2s3.2-1.3,4.9-1.9
	c-1.9,0.6-3.8,0.7,0-1.2c7.5-2.7,12.2-5.5,17.9-7.1l4.8-3c10.6-4.4,34.3-13.8,60.8-22.7c4.2,11,9.2,23.1,14.6,35
	c7.5,16.6,16,32.8,23.6,46.2s14.3,23.8,17.8,29l-1.6-3c3.1,4.5,5.4,7.7,7.1,10.3s2.8,4.5,3.8,6.3c2.5,4.9,5.3,9.6,8.4,14.2
	c0.1-2.8,12,11.9,16.7,17.4h-0.5c0.9,1,1.9,2.3,3,3.6l3.8,4.3c2.7,3.1,5.9,6.5,9.3,10c1.7,1.8,3.4,3.6,5.2,5.4s3.5,3.6,5.3,5.4
	c3.6,3.5,7.1,7,10.4,10.1l-1.2,0.2c5.2,4.7,12.7,11.3,20,17.6C632.1,1394.1,627.1,1393,621.3,1391.5L621.3,1391.5z M1164.7,1278.2
	c-29.9,24.1-62,45.4-95.9,63.6c-3.3,1.3,0.4-0.7,4.2-3c-19.5,10.9-39.6,20.6-60.3,29.2c-16.4,6.8-32.8,12.8-49.4,18.1
	c18.4-19.9,34-41.7,48.3-64.4c1.2-1,0.2,0.5-0.7,2.2c10.4-17.3,19.4-32.6,27.7-48.7c1.4-2.3,3.1-4.4,5-6.2
	c-1,1.1,10.6-21.1,20.7-44.4c5.2-11.6,10-23.5,13.7-32.6c1.8-4.7,3.4-8.6,4.4-11.4c1.7,0.5,3.1,1,4.2,1.3l-1.8-0.8
	c6.3,1.6,8.9,2.6,11.1,3.7c2.8,1.6,5.7,3.1,8.7,4.3c-0.7-2,10,0.9,14,2.2l-0.3,0.3c1.5,0.5,3.6,1,5.8,1.8l7.6,2.4
	c5.4,1.8,11.4,3.7,16.3,5.6l-0.7,0.7c2.5,0.7,4.9,1.6,7.3,2.7c2.7,1.1,5.5,2.3,8.2,3.5l7.7,3.5c2.3,1,4.3,2,5.8,2.7
	c6.3,3.4,14.3,7.8,22.8,12.5c4.2,2.5,8.5,5,12.9,7.4l1.2,0.6C1197.7,1250.2,1181.6,1264.6,1164.7,1278.2L1164.7,1278.2z"/>
<path d="M211.2,625c0.2-0.5,0.3-0.9,0.4-1.3C211.5,624.1,211.4,624.6,211.2,625z"/>
</svg>
