<?xml version="1.0" encoding="utf-8"?>
<svg xmlns="http://www.w3.org/2000/svg" viewBox="0 0 1600 1600"><style>path {fill: #000;} .st0{fill:#fff;} .st1{stroke:#000;stroke-miterlimit:10;} .st2{fill:#000;}</style>
<path class="st0" d="M800,364.9h736v910.9H940.1c-23.5-0.1-46.3,7.8-64.8,22.3c-15.7,12.4-44,20.6-76.3,20.6s-60.6-8.2-76.3-20.6
	c-18.5-14.5-41.3-22.3-64.8-22.3H64V364.9H800z"/>
<path d="M882.2,395.8h0.4h-0.8H882.2z"/>
<path d="M782.1,331l-19.9,0.1C768.9,331.1,775.7,331.1,782.1,331z"/>
<path class="st1" d="M1511.1,876.7l2,3.1c0.1,0.2,0.2,0.4,0.2,0.6c0,56.8-2.7,16.5-2.2,69.2v0.2c3.4,20.8-0.3,87.8,1.4,106.1l0,0
	c-0.2,0.6-0.4,22.2-1.2,23.8c-0.1,0.2-0.1,0.4-0.1,0.6c1.6,8.2,0.3,26.5,0.8,42.4c0.5,5.9,0.6-4.3,1.1-8.8l0.7,37.4v0.1
	c-0.6,14.6-1.7,18.2-1.9,2.3c-0.1,11.2,1.4,28.7,1.3,48.6c0,10-11.6,23.5-11.6,35.3c0,0.7,0,1.3,0,2v0.1v0.2c0,0.1,0,0.3,0,0.4
	s-0.1,0.5-0.1,0.8l-1.4-0.1h-0.1c-11.3,0-15.8,7-27.8,7l-78.5-0.3l-163.6-0.4c-106.7-0.2-201.7-0.3-242.4,0.1
	c13.5,1.4,46.1,0.4,58.5,2.6c-27.7,1.2-40.9-0.4-53.1,0.8c-0.1,0-0.2,0-0.4,0c-5.5-1.6-20.7-1.8-37.1-2c-4.3,0-7.8-0.2-13.9-0.1
	c-5.5,0.2-11,0.6-16.1,1.3c-8.9,1.2-17.7,2.9-26.4,5.2c-0.1,0-0.2,0.1-0.3,0.1c-1.5,0.9-3.1,1.7-4.5,2.7s-3,1.8-4.4,2.9l-0.2,0.1
	c-5.8,2.2-11.3,4.7-16.7,7.7l0,0c-4.4,2.7-15.4-1.4-19,1.4l-1.1,0.8c-0.3,0.2-0.5,0.4-0.8,0.6c-0.7,0.4-1.2,0.9-2,1.3
	c-2.9,1.7-5.9,3.2-9,4.4c-4.9,1.9-9.9,3.4-15.1,4.5c-4.1,0.9-8.2,1.6-12.3,2h-0.1c-2.1,0.1-3.9,0.3-10.7,0.4c-3.4,0-8.1,0-14.6-0.5
	c-1.6-0.2-3.4-0.2-5.2-0.5l-2.9-0.3l-3-0.5c-4.6-0.7-9.1-1.7-13.6-2.9c-4.8-1.3-9.6-3-14.1-5.1c-0.5-0.2-0.9-0.4-1.3-0.7l-1.2-0.7
	h-0.1l-1-0.6c-0.3-0.2-0.7-0.4-1-0.6s-0.5-0.4-0.8-0.6l-0.2-0.1l-0.6-0.4l-1.3-0.9c-1.7-1.2-3.4-2.5-5.1-3.6
	c-13.6-9-19.8-7.4-32.3-10.8c-11.6-3.1-23.6-4.8-35.7-5.1h-4.2h-3.2h-6.4c-4.3,0-8.6-0.1-13-0.2c5.2,0,19,1.1,3,1.6
	c-0.1,0-0.3,0-0.4-0.1c-4-1.4-43,1.2-51-0.4h-0.2c-16.1,0.2-67.5,0-50.1,2.2c-8.8-1.1-54.9-1.6-27.5-2.5
	c-15.6-0.1-30.6-0.4-41.9,0.1l20,0.6c-52.6,0.3-81.2-1.4-115.4,0.6l19.4,0.9c-18.7,0.1-35.5,0.2-48.7-0.2c-0.6-0.1-1-0.6-1-1.2
	c0-0.5,0.4-0.9,1-1l10.9-0.2c-52.1,0.1-83.6,0.2-127,1.4l15.5,0.1c-12.6,0.5-37.6,1-69.1,1.4l-51.5,0.7l-13.9,0.2l-7.1,0.1l-1.6,0.1
	l0,0c-3.6,0.2-27.6,8-27.6-53.5c-0.3-22.6-0.6-44.4-0.9-64.2c-0.6-38.6-1.3-69.4-2-83.7c0-0.1,2.3-0.2,1.8,4.1
	c-0.1-47-0.4-192.7-0.7-337.5c0-72.4-0.1-144.6-0.1-204.1c0-29.8,0.1-56.3,0.1-78.2c0-10.4,0.5-37.3,0.6-40.1c0-0.2,0-0.3,0.1-0.4
	c0.9-1.6,1.7-3.3,2.3-5c0.1-0.3,0.3-0.6,0.6-0.8c1.1-0.5,0.6-0.9,6.3-0.9c1.2,0.2,1.1,0.5,0.5,0.8s1.6-3.7,1.6-3.7l58.8,1.8
	l-2.1,1.3c10.4,0,26.4-3.6,72.1-2.9c77.2,0.6,161.1,0.1,238.8,0.4c-1.2,0.8-17.5,1.3-33.9,1.7c10.4,0,26.3-0.2,35.9,0.4
	c-18.8-1.4,32.6-0.9,17.9-1.5c56.8-3.2,130.2-0.3,180.4-2.5c0.2,0,0.3-0.1,0.5-0.1c6.5-3.8,102.3-47.9,107.1-53.3
	c0.2-0.2,0.5-0.3,0.8-0.3c15.4,0.1,30.6,0.1,35.3,0.4c-4-0.8-34.3-1.2-50.7-0.8c-0.2,0-0.4,0.1-0.5,0.2l-2.3,1.5
	c-0.2,0.1-0.4,0.2-0.6,0.2c-37,0.6-8.6-1.1-45-1c-2-1.5,31.7-1.9,61.3-2c-26.6-0.2-53.1-1.3-64,0.4H698c-24.9-0.6,2.8-1.9-27.3-2.5
	c-21.5,0.5-49.8,1.9-74.5,1l0.4-0.3c-60.1-1.6-92,2.3-146.9,0.8l5.9-0.5c-19.4-0.9-57.6,0.3-92.6-0.6c10,0.3,18.7,1.4-2.4,1.6
	c-40.2-1-67.7,0-97.1-1.2h-0.1l-28.2,1.5h-0.1l-143.1,0.1c-34,0-61.5,27.5-61.5,61.5c0,0.1,0,0.1,0,0.2
	c0.6,201.5,1.5,529.6,1.8,635.5l-0.2-5.5c0.1,67-0.1,217.8,5.7,270.5c0.7,5.9,13.1,16.4,27.2,15.4h0.2c12.6-4,27.7-1.7,28.8-1.6h0.2
	c116.4-0.2,183.6-0.4,304.1-0.7l157.3-0.6l70.1-0.4l32.1-0.2c7.2-0.1,14.4,0.9,21.3,2.8h0.1c2.9,1.1,5.9,2.3,8.8,3.7
	c3.1,1.5,6,3.2,8.9,5c0.7,0.5,1.5,1,2.2,1.4l2.1,1.6l2.1,1.6l1.7,1.3l2.3,1.7c5.8,4.1,12,7.7,18.5,10.6c5.9,2.7,12.1,4.9,18.3,6.7
	c5.9,1.7,11.9,3.2,17.9,4.2c11,2,22.2,3.1,33.4,3.4c-11.6-0.6-15.3-1.6-14-1.7c0.7-0.1,2.7,0,5.6,0l5,0.1l6.2,0.1
	c7.9,0,14.8-0.4,20.9-0.9s11.4-1.4,16-2.2l3.3-0.6l3-0.7c2-0.4,3.7-0.8,5.4-1.3s3.1-0.8,4.5-1.2l3.7-1.1c8.8-2.9,9.9-3.8,11-4.3
	c0.5-0.3,1.1-0.6,2.7-1.4s4.1-1.9,8.6-4.3c1.1-0.6,2.4-1.4,3.8-2.2c0.7-0.4,1.4-0.8,2.2-1.3l2.4-1.6c0.8-0.6,1.7-1.1,2.6-1.8
	l2.9-2.2l3.7-2.8c10.9-7.9,23.6-12.8,36.9-14.3c1.5-0.2,3.1-0.3,4.7-0.4h0.1c1.7,0,3-0.1,5.5-0.1l14.2-0.1l67.2-0.2l168.9,0.1
	l183.3,0.5l134.1,0.5c29.8,0.1,54-24,54.2-53.8v-0.5c0.1-11,0.1-21.3,0.2-30.7c0.1-16.2,0.3-29.5,0.3-39.7
	c-2.2-60.5-0.5-136.1-1.9-195.4l0.5,6c-0.8-63.7,1.2-424.2,0.4-498.2l-0.3,9.9c-0.7-32.3-0.4-46.2,0.1-58.4
	c0.3-6.1,0.6-11.8,0.9-19.1c0.2-3.7,0.3-7.8,0.4-12.5c0.1-2.4,0.1-4.9,0.2-7.7c0-1.8,0-3.6,0.1-5.6c0-2.7,0.1-5.5,0.1-8.4
	c-0.7,3.5-1.3-1.8-1.8-11.6c-0.5-9.6-27.6-39.1-39.3-39l-28.2,0.3l0.8-0.5c-31.8,0.4-103.9,2.5-156.4,2.8l2.1-1.3
	c-43.8,1.4-126.2,0.8-157.7,1c-72-0.5-183-2.9-279.3-1.1h-0.1l-62.1-3.8h-0.1l-8.8,0.4c-0.1,0-0.3,0-0.4,0.1
	c-4.7,2.2-96.8,46,27.2,55.5l-2,1.3l25.1-0.2c30.2,0.7,44.1-0.9,42.1,0.4l-41.2-0.2c30.3,0.4,9.2,1.1-2.4,1.8
	c12.6,0.1,24.9,0.3,35,0.7h0.1c5.8-0.5-4.5-0.5-9.2-0.8c16.3-0.5,39-1.7,58.9-1.1c31,0.1,2,2.1,38.2,2.3l264.7,1.5l132.2,0.6
	l99.3,0.2c0,0.3,0,0.7,0,1c0,0-0.6,0.9-0.6,0.9l0,0l-0.1-0.1v0.1l0,0l0,0v0.4c0,0,7.2-0.6,7.2,1.2c0,3.6,3,26.3,3,33.2
	c0.1,13.9,0.1,27.4,0.2,40.8c0.1,26.8,0.2,53,0.5,79.5c-0.2,7.7-0.9,15.4-2,23.1c0.6-4.4,0.8,68.8,1,143.6c0,37.4,0,75.2,0.1,104
	c0,27.3-0.1,46.5-0.1,49.4C1510.9,876.3,1510.9,876.5,1511.1,876.7z"/>
<path class="st0" d="M1362.8,1105.1V245.4c0-1.8,1.4-3.2,3.1-3.2c1.1,0,2.1,0.5,2.7,1.4c16.3,24.1,63.2,90.6,88.6,100.7
	c1.2,0.5,2,1.6,1.9,2.9v851.3"/>
<path class="st0" d="M1362.8,1105.1c0,0,13.7,53.1,96,109.8c0,0,0.1,0.1,0.1,0.1c0,0,0,0-0.1,0.1c-114.8,0-510.9-28-680.9,20"/>
<path d="M1345.5,1114.3c0.2,3.5,2.1,8.4,4.1,12.8C1348.6,1122.8,1347.2,1118.5,1345.5,1114.3z"/>
<path d="M1349.6,1127.2L1349.6,1127.2L1349.6,1127.2L1349.6,1127.2z"/>
<path class="st0" d="M223.2,1105.1V245.6c0-1.8-1.4-3.2-3.2-3.3c-1.1,0-2.1,0.5-2.7,1.4c-16.4,24.2-63.1,90.4-88.4,100.5
	c-1.2,0.5-2,1.7-2,3v836.1"/>
<path d="M1382.1,1098.2c1-5.9,1.1-16,1.2-25.6C1382.3,1081.1,1381.9,1089.6,1382.1,1098.2z"/>
<path d="M1383.3,1072.4c0,0,0-0.1,0-0.2v0.3C1383.3,1072.6,1383.3,1072.5,1383.3,1072.4z"/>
<path d="M242.5,1098.2c1-5.9,1.1-16,1.2-25.7C242.7,1081,242.3,1089.6,242.5,1098.2z"/>
<path d="M243.8,1072.3c0,0,0-0.1,0-0.2c0,0.1,0,0.2,0,0.3V1072.3z"/>
<path class="st0" d="M223.2,1105.1c0,0-10.5,41-68.9,89.3c-8.3,6.9-3.3,20.4,7.5,20.1c143.2-3.7,466.3-20.2,621.8,23.8"/>
<path d="M204.1,1101.5c-0.9,0.9-1.6,1.9-2.1,3.1c-0.8,1.3-1.4,2.8-2.3,4.3c1-1,1.9-2.1,2.6-3.3c0.4-0.6,0.7-1.3,1-2
	c0.2-0.3,0.3-0.7,0.5-1.1S204,1101.9,204.1,1101.5z"/>
<path d="M199.6,1109L199.6,1109L199.6,1109L199.6,1109z"/>
<path class="st0" d="M793.2,364.9c0-81.3,212.1-29.1,545.5-123c10.1-2.8,20.6,3,23.4,13.2c0.5,1.6,0.7,3.4,0.7,5.1v844.9
	c-159.1,82.5-569.7-32.6-569.7,120V364.9z"/>
<path class="st2" d="M809.2,358.5c0.3-0.5,0.6-1.1,0.9-1.8c0.2-0.3,0.4-0.6,0.5-0.9c0.1-0.1,0.2-0.3,0.3-0.5l0.3-0.5
	c1-1.4,2.2-2.7,3.5-3.9l1.2-1c0.5-0.3,0.9-0.7,1.4-1c0.5-0.4,1-0.7,1.5-1c0.5-0.4,1.1-0.7,1.7-1l1.8-1c0.6-0.3,1.3-0.6,2-1
	c1.3-0.7,2.8-1.2,4.1-1.8c-4.4,1.3-8.5,3.3-12.2,5.9l-0.7,0.5c-0.2,0.2-0.4,0.3-0.6,0.5l-1.2,1c-0.7,0.7-1.3,1.4-1.9,2.2
	C810.7,354.9,809.8,356.7,809.2,358.5z"/>
<path class="st2" d="M828.8,343.2l0.2-0.1l-0.4,0.2L828.8,343.2z"/>
<g>
	<path class="st2" d="M1024.4,1190.7c0.1,0,0.2,0,0.3,0C1024.6,1190.6,1024.5,1190.7,1024.4,1190.7z"/>
	<path class="st2" d="M1162.1,1185.5c-0.2,0-0.3,0-0.4,0C1161.8,1185.5,1161.9,1185.5,1162.1,1185.5z"/>
	<path class="st2" d="M1441.8,669.9c0-0.2,0-0.4,0-0.6C1441.8,669.4,1441.8,669.6,1441.8,669.9z"/>
	<path class="st2" d="M1243.8,1117.5c-0.3,0-0.7,0.1-0.9,0.1C1243.2,1117.5,1243.5,1117.5,1243.8,1117.5z"/>
	<path class="st2" d="M829.6,341.6c1.2-0.5,2.5-0.9,3.8-1.3l-1.3,0.4L829.6,341.6z"/>
</g>
<path class="st0" d="M792.8,1221.9v-857c0-81.4-212.3-29-546.1-123.2c-9.8-2.8-20,2.9-22.8,12.7c-0.5,1.6-0.7,3.3-0.7,5V1105
	c159.1,82.5,569.7-32.6,569.7,120l0,0"/>
<path d="M813.4,1182.1c0-0.1,0-0.2,0-0.2c0,0.2,0,0.4,0,0.5V1182.1z"/>
<g>
	<path d="M577.3,1233l-0.2,0C577.1,1233,577.2,1233,577.3,1233z"/>
	<path d="M446.6,1233.6c0.2,0,0.3,0,0.4,0C446.9,1233.6,446.8,1233.6,446.6,1233.6z"/>
	<path d="M201.2,381.2c0,0.6,0,1.1,0,1.6C201.2,382.2,201.2,381.7,201.2,381.2z"/>
	<path d="M205.7,872.9c0-0.3,0-0.6,0-0.9C205.7,872.2,205.7,872.6,205.7,872.9z"/>
</g>
<path d="M916.5,462L916.5,462L916.5,462L916.5,462z"/>
<path d="M1010.1,455L1010.1,455c0-0.5,0.4-0.8,0.9-0.9c3.4-0.1,1,1.7,4.9,0.9c1.4-2.4,7.1-0.5,8.4-1.8c0,0.1,1.1,0.1,1.6,0.3
	c0.2,0.1,0.5,0.1,0.8-0.1c0.7-0.5,2-0.1,3-0.5c0.4-0.4-0.4-0.3-0.8-0.7l3-0.7c0.6,0.1,1,0.4,1.1,0.6c0.2,0.4,0.6,0.6,1,0.5
	c9.1-0.5,35.2-2.6,47.5-4.3c0.5-0.1,0.9-0.5,0.8-1c0-0.3-0.2-0.5-0.4-0.6c-0.1-0.1-0.2-0.2-0.3-0.3c1.8-0.9,2.9-0.4,3.8-0.8
	c0.3-0.1,0.6-0.1,0.9,0.2c1.5,1.2,4.8-0.4,6.6,1.4l0.5-1.3l0.9,0.5c0.2,0.1,0.4,0.1,0.7,0.1c9.2-2.5,2-0.9,10.6-1.7h0.1
	c5-0.9,7.2-2.9,10.1-2.6c-0.4,0-1.6-0.5-0.4-1c0.3,1,3-1,4-0.4c0.2,0.1,0.4,0.1,0.6,0.1c1.1-0.2,3.2-0.6,3.7-1.2
	c0.2-0.3,0.6-0.5,0.9-0.4c0.8,0.1,1.7,0.2,1.8,0.4c0.3,0.3,0.7,0.5,1.1,0.4c0.6,0,1.1-0.2,1.7-0.4l-1.7-0.2c4.2-0.8,6.7,0,9.2-1.8
	l-1.7-0.4c2.5-0.5,4.6-0.9,5.8,0.4l-2.5,0.8c3.4-0.4,6.8-1.2,10-2.4l-1.2,0.2c2.1-1.1,8.9-2.9,15.6-4.7c3.4-0.9,6.7-1.8,9.5-2.7
	c2-0.5,4-1.3,5.8-2.3l-2.1-0.8l1.3-0.6c0.5-0.2,1,0,1.2,0.4c0.1,0.2,0.1,0.4,0.1,0.6v0.1c-0.1,0.5,0.2,1,0.7,1.1c0.1,0,0.3,0,0.4,0
	l25.1-5c11.5-2.4,22.9-4.7,26.4-5c1,0,1.4,0.2,1.5,0.5c0.2,0.4,0.8,0.6,1.2,0.4c0.1-0.1,0.2-0.1,0.3-0.2c0.3-0.3,0.4-0.5,1.9-0.8
	c0.8,0,0,0.9-0.4,1.2l0.5-0.1c0.5-0.1,0.9-0.6,0.8-1.1c0-0.1,0-0.2-0.1-0.3c-0.1-0.2-0.2-0.4-0.3-0.6c-0.2-0.5,0.1-1,0.5-1.2
	c0.1,0,0.1,0,0.2,0l2.4-0.4v0.9c0.8-0.1,1.6-2.8,5.3-3.1c3.1-0.5,6.3-1.1,9.5-1.8l9.5-2c0,0.5,2.6,0.1,1.7,0c3.8-3,6.8-3.3,10-6
	c3.4-2.9,4-9.4,4.1-17.2c0.1-7.5,0.2-17.5-1.9-18.5c-2.5-1.3-3.6-0.7-6-0.6c-1.6,0.7-3.5,2.2-5.6,2v-0.2c-4.9,0.1-6.8,3.2-11.2,3.1
	l0.4-0.4c-1.3-0.2-3.4,0.7-5.6,1.1c-0.3,0-0.6,0.4-0.7,0.7c-0.1,0.2-0.3,0.4-0.9,0.5c-3.1,0-5,1-7.3,0.9c-0.2,0-0.4,0-0.6,0.2
	l-1.6,1.1c-0.1,0.1-0.2,0.1-0.3,0.2c-11.1,2.5-53.5,12-64.5,14l0.4-0.2l-7,1.4l-8.3,1.5l-18.7,3.3c-12.8,2.1-25.7,4.4-34.3,6.2
	c-0.1,0-0.2,0-0.3,0c-2.3-0.4-5-0.1-7.5,0.2c-0.4,0-0.6,0.3-0.7,0.7s-0.5,0.5-1.1,0.5c-8.6,1-0.5,0.8-9.1,2.3
	c-2.5,0.5-6.7,1.2-11.9,1.8s-11.2,1.3-17.2,1.9s-12,1.1-17,1.4s-9,0.5-11.3,0.6c-0.1,0-0.2,0-0.3,0.1c-4.6,1.9-10.7,1.4-15.2,2.8
	l0.4-0.4c-2.5,0.5-11,1.2-19.5,1.8s-17.2,1.2-20.1,1.7l0.8,0.1c-4.7,1.3-4.6,0-7.7-0.3c-0.4,0-0.8,0.2-0.9,0.6
	c-0.5,1.2-3.9,2.2-5.3,2.5v-0.4c-2.5,0.5-8.2,2.5-12.3,3.1l0.1-0.9c-3.4,1.3-10,1.5-12.5,1.8H937c-5.8,0.2-14.7-0.5-22.2,1.5
	c-0.2,0.1-0.4,0.1-0.5,0c0,0-6.9,6.3-6.7,14.7s1.8,17.6,7.2,20.3l1.8,0.6c0.1,0,0.1,0,0.2,0c2.4,0.1,4.9-0.4,6.5-0.1
	c2.5-0.2,0.3,1.4,3.2,1.2c15.2-0.8,30-1.2,45.4-2.8c0.4,0.3,0,0.4-0.5,0.6c4.5-0.8,8.6-1,12.8-1.8c0.1,0,0.3,0,0.4,0
	c0.5,0.1,0.9,0.4,1.3,0.7c0.2,0.2,0.5,0.3,0.8,0.2c1.4-0.4,6.2-1,11.1-1.5l8.3-0.9c1.4-0.1,2.5-0.2,3.2-0.3
	C1009.7,455.8,1010.1,455.5,1010.1,455z"/>
<path d="M916.5,558.1L916.5,558.1z"/>
<path d="M1010.1,551.1L1010.1,551.1c0-0.5,0.4-0.8,0.9-0.8c3.4-0.2,1,1.7,4.9,0.9c1.4-2.4,7.1-0.5,8.4-1.8c0,0.1,1.1,0.1,1.6,0.3
	c0.2,0.1,0.5,0.1,0.8-0.1c0.7-0.5,2-0.1,3-0.5c0.4-0.4-0.4-0.3-0.8-0.7l3-0.7c0.6,0.1,1,0.4,1.1,0.6c0.2,0.4,0.6,0.6,1,0.5
	c9.1-0.5,35.2-2.7,47.5-4.3c0.5-0.1,0.9-0.5,0.8-1c0-0.3-0.2-0.5-0.4-0.6c-0.1-0.1-0.2-0.2-0.3-0.3c1.8-0.9,2.9-0.4,3.8-0.8
	c0.3-0.1,0.6,0,0.9,0.2c1.5,1.2,4.8-0.4,6.6,1.4l0.5-1.3l0.9,0.5c0.2,0.1,0.4,0.1,0.7,0.1c9.2-2.5,2-0.8,10.6-1.7h0.1
	c5-0.9,7.2-2.9,10.1-2.6c-0.4,0-1.6-0.5-0.4-1c0.3,1,3-1,4-0.4c0.2,0.1,0.4,0.1,0.6,0.1c1.1-0.2,3.2-0.6,3.7-1.2
	c0.2-0.3,0.6-0.5,0.9-0.4c0.8,0.1,1.7,0.2,1.8,0.4c0.3,0.3,0.7,0.5,1.1,0.4c0.6,0,1.1-0.2,1.7-0.4l-1.7-0.2c4.2-0.8,6.7,0,9.2-1.8
	l-1.7-0.3c2.5-0.5,4.6-0.9,5.8,0.4l-2.5,0.8c3.4-0.4,6.8-1.2,10-2.4l-1.2,0.2c2.1-1.1,8.9-2.9,15.6-4.7c3.4-0.9,6.7-1.8,9.5-2.7
	c2-0.5,4-1.3,5.8-2.3l-2.1-0.8l1.3-0.6c0.5-0.2,1,0,1.2,0.5c0.1,0.2,0.1,0.4,0,0.6v0c-0.1,0.5,0.1,1,0.6,1.2c0.1,0,0.3,0,0.4,0
	l25.1-5c11.5-2.4,22.9-4.7,26.4-5c1,0,5.7-2.3,6.2-2.4l2.4-0.4v0.9c0.8-0.1,1.6-2.8,5.3-3.1c3.1-0.5,6.3-1.1,9.5-1.8l9.5-2
	c0,0.5,2.6,0.1,1.7,0c3.8-3,6.8-3.3,10-6c3.4-2.9,4-9.4,4.1-17.2c0.1-7.5,0.2-17.5-1.9-18.5c-2.5-1.3-3.6-0.7-6-0.6
	c-1.6,0.7-3.5,2.2-5.6,2v-0.2c-4.9,0.1-6.8,3.2-11.2,3.1l0.4-0.4c-1.3-0.2-3.4,0.7-5.6,1.1c-0.3,0-0.6,0.4-0.7,0.7
	c-0.1,0.2-0.3,0.3-0.9,0.5c-3.1,0-5,1-7.3,0.9c-0.2,0-0.4,0-0.6,0.2l-1.6,1.1c-0.1,0.1-0.2,0.1-0.3,0.2c-11.1,2.5-53.5,12-64.5,14
	l0.4-0.2l-7,1.4l-8.3,1.5l-18.7,3.3c-12.8,2.1-25.7,4.4-34.3,6.2c-0.1,0-0.2,0-0.3,0c-2.3-0.4-5-0.1-7.5,0.2c-0.4,0-0.6,0.3-0.7,0.7
	s-0.5,0.5-1.1,0.5c-8.6,1-0.5,0.8-9.1,2.3c-2.5,0.5-6.7,1.2-11.9,1.8s-11.2,1.3-17.2,1.9s-12,1.1-17,1.4s-9,0.5-11.3,0.6
	c-0.1,0-0.2,0-0.3,0.1c-4.6,1.9-10.7,1.5-15.2,2.8l0.4-0.4c-2.5,0.5-11,1.2-19.5,1.8c-8.6,0.6-17.2,1.2-20.2,1.7l0.8,0.1
	c-4.7,1.3-4.6,0-7.7-0.3c-0.4,0-0.8,0.2-0.9,0.6c-0.5,1.2-3.9,2.2-5.3,2.5v-0.4c-2.5,0.5-8.2,2.5-12.3,3l0.1-0.9
	c-3.4,1.3-10,1.5-12.5,1.8h0c-5.8,0.2-14.7-0.5-22.2,1.5c-0.2,0.1-0.4,0.1-0.5,0c0,0-6.9,6.2-6.7,14.7s1.8,17.6,7.2,20.3l1.8,0.6
	c0.1,0,0.1,0,0.2,0c2.4,0.1,4.9-0.4,6.5-0.1c2.5-0.2,0.3,1.4,3.2,1.2c15.2-0.8,30-1.2,45.4-2.8c0.4,0.3,0,0.4-0.5,0.6
	c4.5-0.8,8.6-1,12.8-1.8c0.1,0,0.3,0,0.4,0c0.5,0.1,0.9,0.4,1.3,0.7c0.2,0.2,0.5,0.3,0.8,0.2c1.4-0.4,6.2-1,11.1-1.5l8.3-0.8
	c1.4-0.1,2.5-0.2,3.2-0.3C1009.7,552,1010.1,551.6,1010.1,551.1z"/>
<path d="M916.5,654.2L916.5,654.2z"/>
<path d="M1010.1,647.2L1010.1,647.2c0-0.5,0.4-0.8,0.9-0.8c3.4-0.1,1,1.7,4.9,0.9c1.4-2.4,7.1-0.5,8.4-1.8c0,0.1,1.1,0.1,1.6,0.3
	c0.2,0.1,0.5,0.1,0.8-0.1c0.7-0.5,2-0.1,3-0.4c0.4-0.4-0.4-0.3-0.8-0.7l3-0.8c0.6,0.1,1,0.4,1.1,0.6c0.2,0.4,0.6,0.6,1,0.5
	c9.1-0.5,35.2-2.7,47.5-4.3c0.5-0.1,0.9-0.6,0.8-1.1c0-0.3-0.2-0.5-0.4-0.6c-0.1-0.1-0.2-0.2-0.3-0.3c1.8-0.9,2.9-0.4,3.8-0.8
	c0.3-0.1,0.6,0,0.9,0.2c1.5,1.2,4.8-0.4,6.6,1.4l0.5-1.3l0.9,0.5c0.2,0.1,0.4,0.1,0.7,0.1c9.2-2.5,2-0.8,10.6-1.7h0.1
	c5-0.9,7.2-2.9,10.1-2.6c-0.4,0-1.6-0.5-0.4-1c0.3,1,3-1,4-0.4c0.2,0.1,0.4,0.1,0.6,0.1c1.1-0.2,3.2-0.6,3.7-1.2
	c0.2-0.3,0.6-0.5,0.9-0.4c0.8,0.1,1.7,0.2,1.8,0.4c0.2,0.3,0.7,0.5,1.1,0.4c0.6,0,1.1-0.2,1.7-0.4l-1.7-0.2c4.2-0.8,6.7,0,9.2-1.8
	l-1.7-0.3c2.5-0.5,4.6-0.9,5.8,0.4l-2.5,0.8c3.4-0.4,6.8-1.2,10-2.4l-1.2,0.2c2.1-1.1,8.9-2.9,15.6-4.7c3.4-0.9,6.7-1.8,9.5-2.7
	c2-0.5,4-1.3,5.8-2.3l-2.1-0.8l1.3-0.6c0.5-0.2,1,0,1.2,0.4c0.1,0.2,0.1,0.4,0.1,0.7l0,0c-0.1,0.5,0.1,1,0.6,1.2c0.1,0,0.3,0,0.4,0
	l25.1-5c11.5-2.4,22.9-4.7,26.4-5c1,0,5.7-2.3,6.2-2.4l2.4-0.4c1.4-1.4,3.3-2.2,5.3-2.2c3.1-0.5,6.3-1.1,9.5-1.8l9.5-2
	c0,0.5,2.6,0.1,1.7,0c3.8-3,6.8-3.3,10-6c3.4-2.9,4-9.4,4.1-17.2c0.1-7.5,0.2-17.5-1.9-18.5c-2.5-1.3-3.6-0.7-6-0.6
	c-1.6,0.7-3.5,2.2-5.6,2v-0.2c-4.9,0.1-6.8,3.2-11.2,3.1l0.4-0.4c-1.3-0.2-3.4,0.7-5.6,1.1c-0.3,0-0.6,0.3-0.7,0.7
	c-0.1,0.2-0.3,0.3-0.9,0.5c-3.1,0-5,1-7.3,0.9c-0.2,0-0.4,0-0.6,0.2l-1.6,1.1c-0.1,0.1-0.2,0.1-0.3,0.2c-11.1,2.5-53.5,12-64.5,14
	l0.4-0.2l-7,1.4l-8.3,1.5l-18.7,3.3c-12.8,2.1-25.7,4.4-34.3,6.2c-0.1,0-0.2,0-0.3,0c-2.3-0.4-5-0.1-7.5,0.2
	c-0.3,0.1-0.6,0.3-0.7,0.7c-0.1,0.2-0.5,0.5-1.1,0.5c-8.6,1-0.5,0.8-9.1,2.3c-2.5,0.5-6.7,1.2-11.9,1.8s-11.2,1.3-17.2,1.9
	s-12,1.1-17,1.4s-9,0.5-11.3,0.6c-0.1,0-0.2,0-0.3,0.1c-4.6,1.9-10.7,1.5-15.2,2.8l0.4-0.4c-2.5,0.5-11,1.2-19.5,1.8
	s-17.2,1.2-20.2,1.7l0.8,0.1c-4.7,1.2-4.6,0-7.7-0.3c-0.4,0-0.8,0.2-0.9,0.6c-0.5,1.2-3.9,2.2-5.3,2.5v-0.4c-2.5,0.5-8.2,2.4-12.3,3
	l0.1-0.9c-3.4,1.3-10,1.5-12.5,1.8h0c-5.8,0.2-14.7-0.5-22.2,1.5c-0.2,0-0.4,0-0.5,0c0,0-6.9,6.2-6.7,14.7s1.8,17.6,7.2,20.3
	l1.8,0.6h0.2c2.4,0.2,4.9-0.4,6.5-0.1c2.5-0.2,0.3,1.4,3.2,1.2c15.2-0.8,30-1.2,45.4-2.8c0.4,0.3,0,0.4-0.5,0.6
	c4.5-0.8,8.6-1,12.8-1.8c0.1,0,0.3,0,0.4,0c0.5,0.1,0.9,0.3,1.3,0.7c0.2,0.2,0.5,0.3,0.8,0.2c1.4-0.4,6.2-1,11.1-1.5l8.3-0.8
	c1.4-0.1,2.5-0.2,3.2-0.3C1009.7,647.9,1010,647.6,1010.1,647.2z"/>
<path d="M916.5,750.2L916.5,750.2L916.5,750.2L916.5,750.2z"/>
<path d="M1010.1,743.3L1010.1,743.3c0-0.5,0.4-0.8,0.9-0.8c3.4-0.1,1,1.7,4.9,0.9c1.4-2.4,7.1-0.5,8.4-1.8c0,0.1,1.1,0.1,1.6,0.3
	c0.2,0.1,0.5,0.1,0.8-0.1c0.7-0.5,2-0.1,3-0.4c0.4-0.4-0.4-0.3-0.8-0.7l3-0.8c0.6,0.1,1,0.4,1.1,0.6c0.2,0.4,0.6,0.6,1,0.5
	c9.1-0.5,35.2-2.7,47.5-4.3c0.5-0.1,0.9-0.6,0.8-1.1c0-0.3-0.2-0.5-0.4-0.6c-0.1-0.1-0.2-0.2-0.3-0.3c1.8-0.9,2.9-0.4,3.8-0.8
	c0.3-0.1,0.6,0,0.9,0.2c1.5,1.2,4.8-0.4,6.6,1.4l0.5-1.3l0.9,0.5c0.2,0.1,0.4,0.1,0.7,0.1c9.2-2.5,2-0.8,10.6-1.7h0.1
	c5-0.9,7.2-2.9,10.1-2.6c-0.4,0-1.6-0.5-0.4-1c0.3,1,3-1,4-0.4c0.2,0.1,0.4,0.1,0.6,0.1c1.1-0.2,3.2-0.6,3.7-1.2
	c0.2-0.3,0.6-0.5,0.9-0.4c0.8,0.1,1.7,0.2,1.8,0.4c0.2,0.3,0.7,0.5,1.1,0.4c0.6,0,1.1-0.2,1.7-0.4l-1.7-0.2c4.2-0.8,6.7,0,9.2-1.8
	l-1.7-0.3c2.5-0.5,4.6-0.9,5.8,0.4l-2.5,0.8c3.4-0.4,6.8-1.2,10-2.4l-1.2,0.2c2.1-1.1,8.9-2.9,15.6-4.7c3.4-0.9,6.7-1.8,9.5-2.7
	c2.4-0.6,4.9-1.1,7.4-1.4l25.1-5c11.5-2.4,22.9-4.7,26.4-5c1,0,8.6-2.8,8.6-2.8c1.4-1.4,3.3-2.2,5.3-2.2c3.1-0.5,6.3-1.1,9.5-1.8
	l9.5-2c0,0.5,2.6,0.1,1.7,0c3.8-3,6.8-3.3,10-6c3.4-2.9,4-9.4,4.1-17.2c0.1-7.5,0.2-17.4-1.9-18.5c-2.5-1.3-3.6-0.7-6-0.6
	c-1.6,0.7-3.5,2.2-5.6,2v-0.2c-4.9,0-6.8,3.2-11.2,3.1l0.4-0.4c-1.3-0.2-3.4,0.7-5.6,1.1c-0.3,0-0.6,0.3-0.7,0.7
	c-0.1,0.2-0.3,0.3-0.9,0.5c-3.1,0-5,1-7.3,0.9c-0.2,0-0.4,0-0.6,0.2l-1.6,1.1c-0.1,0.1-0.2,0.1-0.3,0.2c-11.1,2.5-53.5,12-64.5,14
	l0.4-0.2l-7,1.4l-8.3,1.5l-18.7,3.3c-12.8,2.1-25.7,4.4-34.3,6.2c-0.1,0-0.2,0-0.3,0c-2.3-0.4-5-0.1-7.5,0.2c-0.4,0-0.6,0.3-0.7,0.7
	s-0.5,0.5-1.1,0.5c-8.6,1-0.5,0.8-9.1,2.3c-2.5,0.5-6.7,1.2-11.9,1.8s-11.2,1.3-17.2,1.9s-12,1-17,1.4s-9,0.5-11.3,0.6
	c-0.1,0-0.2,0-0.3,0.1c-4.6,1.9-10.7,1.4-15.2,2.8l0.4-0.4c-2.5,0.5-11,1.2-19.5,1.8s-17.2,1.2-20.2,1.7l0.8,0.1
	c-4.7,1.2-4.6,0-7.7-0.3c-0.4,0-0.8,0.2-0.9,0.6c-0.5,1.2-3.9,2.2-5.3,2.5v-0.4c-2.5,0.5-8.2,2.4-12.3,3l0.1-0.9
	c-3.4,1.3-10,1.5-12.5,1.8h0c-5.8,0.2-14.7-0.5-22.2,1.5c-0.2,0-0.4,0-0.5,0c0,0-6.9,6.2-6.7,14.7s1.8,17.6,7.2,20.3l1.8,0.6h0.2
	c2.4,0.2,4.9-0.4,6.5-0.1c2.5-0.2,0.3,1.4,3.2,1.2c15.2-0.8,30-1.2,45.4-2.8c0.4,0.3,0,0.4-0.5,0.6c4.5-0.8,8.6-1,12.8-1.8
	c0.1,0,0.3,0,0.4,0c0.5,0.1,0.9,0.3,1.3,0.7c0.2,0.2,0.5,0.3,0.8,0.2c1.4-0.4,6.2-1,11.1-1.5l8.3-0.8c1.4-0.1,2.5-0.2,3.2-0.3
	C1009.7,744.1,1010.1,743.7,1010.1,743.3z"/>
<path d="M595.8,410.2v0.1c-0.1,0.4-0.6,0.7-1,0.6c-3.4-0.5-0.6-1.9-4.6-1.9c-1.9,2.1-7-0.9-8.5,0.1c0-0.2-2-0.5-1.8-1.1
	c-0.8,1.1-2.1,0.1-3.5,0.2c-0.5,0.3,0.3,0.4,0.6,0.8l-3,0.1c-0.6-0.2-0.9-0.6-0.9-0.8c-0.1-0.4-0.4-0.7-0.8-0.7
	c-8.9-1.3-34.4-5-46.5-6.4c-0.5,0-0.9,0.3-1,0.8c0,0.2,0.1,0.5,0.2,0.7c0.1,0.1,0.2,0.3,0.3,0.4c-1.9,0.5-2.9-0.3-3.8-0.2
	c-0.3,0-0.6-0.1-0.8-0.4c-1.1-1.5-4.6-0.8-5.9-2.9l-0.8,1.1l-0.8-0.7c-0.2-0.1-0.4-0.2-0.6-0.2c-9.3,0-2.1,0.3-10.4-1.1h-0.1
	c-5-0.5-7.5,0.9-10.2-0.1c0.4,0.1,1.4,1,0.1,1.1c-0.1-1.1-3.5,0.3-4-0.9c-1,0-3.5-0.5-4.2,0c-0.3,0.2-0.7,0.3-1,0.1
	c-0.7-0.4-1.6-0.7-1.6-1s-0.2-0.5-0.4-0.6c-0.7-0.2-1.4-0.3-2.1-0.2l1.5,0.6c-4.2-0.4-6.2-1.9-9.1-1l1.4,0.8
	c-2.5-0.3-4.6-0.5-5.3-2.1l2.6-0.1c-3.3-0.6-6.7-0.8-10.1-0.6l1.2,0.2c-2.3,0.4-9.1-0.1-16-0.5c-3.4-0.2-6.8-0.4-9.6-0.4
	c-2-0.1-4.1-0.1-6.1,0.2l1.6,1.5l-1.5,0.1c-0.5,0-0.9-0.3-0.9-0.8c0-0.2,0-0.4,0.2-0.6l0.2-0.2c0.3-0.4,0.2-0.9-0.2-1.2
	c-0.1-0.1-0.2-0.1-0.4-0.2c-4.8-0.8-14.9-2.3-24.8-4.1c-11.3-2.1-22.5-4.2-25.9-5.3c-0.9-0.4-1.2-0.8-1.2-1.1c0-0.5-0.5-0.9-1-0.8
	c-0.1,0-0.3,0-0.4,0.1c-0.3,0.2-0.6,0.3-2-0.1c-0.7-0.4,0.3-0.8,0.8-0.9c-0.2,0-0.4-0.1-0.6-0.1c-0.5-0.1-1,0.2-1.1,0.7
	c0,0.1,0,0.2,0,0.3c0,0.2,0,0.5,0,0.7c0,0.5-0.4,0.9-0.9,0.8c-0.1,0-0.1,0-0.2,0l-2.4-0.6l0.3-0.8c-0.8-0.2-2.5,1.9-6,0.7
	c-3-0.8-6.1-1.5-9.2-2.2s-6.3-1.3-9.3-2.1c0.2-0.5,1.5-0.5,2.9-0.5c-0.5-0.1-1.2-0.2-1.8-0.5c-0.2-0.1-0.5-0.1-0.7,0.1
	c-0.5,0.2-2.6-0.4-1.8,0.1c-0.7,0.2-1.5,0.2-2.2,0.2c-7.8-0.2-15,4-18.7,10.9c-0.6,1.2-1.2,2.3-1.8,3.5c-3.5,6.8-6.2,13-5.8,15.5
	c0.8,4.2,2,4.1,4.3,5.1c1.8,0.1,4.2-0.3,6.1,0.7l-0.1,0.2c4.5,2.1,7.6,0.2,11.8,2.2l-0.5,0.2c1.1,0.8,3.4,0.9,5.7,1.5
	c0.3,0.1,0.7-0.1,0.9-0.3c0.1-0.1,0.5-0.2,1.1-0.1c2.9,1.2,5.2,1.2,7.3,2.3c0.2,0.1,0.4,0.1,0.6,0.1l2-0.4c0.1,0,0.2,0,0.4,0
	c2.8,0.6,7.6,1.6,13.4,2.7s12.9,2.3,19.8,3.5l10.3,1.8c3.3,0.6,6.6,1,9.5,1.5l13.7,2.1l-0.5,0.1l7.2,1.1l8.5,1.3l19.2,2.9
	c13.2,1.7,26.4,3.5,35.4,3.9c0.1,0,0.2,0,0.3,0.1c2.1,1,5,1.4,7.5,1.9c0.3,0,0.7-0.2,0.8-0.5c0.1-0.2,0.6-0.3,1.2-0.2
	c8.7,1.3,0.7-0.6,9.6,0.2c2.6,0.1,6.9,0.5,12.2,1.1s11.3,1.5,17.4,2.3s12.1,1.7,17.2,2.4s9,1.4,11.3,1.8c0.1,0,0.2,0,0.3,0
	c5-0.9,10.9,0.8,15.7,0.4l-0.5,0.3c2.6,0,11.1,1,19.7,2s17.3,2,20.2,2l-0.8-0.3c4.8-0.4,4.5,0.9,7.5,1.7c0.4,0.1,0.8-0.1,1-0.4
	c0.8-1.1,4.2-1.5,5.7-1.5l-0.1,0.4c2.6,0,8.4-0.9,12.7-0.7l-0.2,0.9c3.6-0.6,10.1,0.4,12.6,0.5h0.1c5.6,0.9,14.1,3.2,21.8,3
	c0.2,0,0.4,0,0.5,0.1c0,0,8-4.7,9.7-13s2.2-17.6-2.6-21.4l0.3-0.9l-2-0.1H689c-2.3-0.6-2.9-0.4-3.3-0.6c-1.1-0.1-2.2-0.3-3.3-0.6
	c-2.5-0.4,0-1.4-2.9-1.9c-15.3-2.2-30.1-4.6-45.5-5.8c-0.3-0.4,0.1-0.4,0.6-0.5c-4.6,0-8.7-0.5-12.9-0.6c-0.1,0-0.3,0-0.4-0.1
	c-0.5-0.2-0.9-0.5-1.2-0.9c-0.2-0.2-0.5-0.3-0.7-0.3c-1.4,0.1-6.2-0.2-11.1-0.6c-3-0.2-6-0.5-8.3-0.8c-1.4-0.1-2.5-0.3-3.2-0.4
	C596.3,409.5,595.9,409.8,595.8,410.2z"/>
<path d="M595.8,502.5v0.1c-0.1,0.4-0.6,0.7-1,0.6c-3.4-0.5-0.6-1.9-4.6-1.9c-1.9,2.1-7-0.9-8.5,0.1c0-0.2-2-0.5-1.8-1.1
	c-0.8,1.1-2.1,0.1-3.5,0.2c-0.5,0.3,0.3,0.4,0.6,0.8l-3,0.1c-0.6-0.2-0.9-0.6-0.9-0.8c-0.1-0.4-0.4-0.7-0.8-0.7
	c-8.9-1.3-34.4-5-46.5-6.4c-0.5,0-0.9,0.3-1,0.8c0,0.2,0.1,0.5,0.2,0.7c0.1,0.1,0.2,0.3,0.3,0.4c-1.9,0.5-2.9-0.3-3.8-0.2
	c-0.3,0-0.6-0.1-0.8-0.4c-1.1-1.5-4.6-0.8-5.9-2.9l-0.8,1.1l-0.8-0.7c-0.2-0.1-0.4-0.2-0.6-0.2c-9.3,0-2.1,0.3-10.4-1.1h-0.1
	c-5-0.5-7.5,0.9-10.2-0.1c0.4,0.1,1.4,1,0.1,1.1c-0.1-1.1-3.5,0.3-4-0.9c-1,0-3.5-0.5-4.2,0c-0.3,0.2-0.7,0.3-1,0.1
	c-0.7-0.4-1.6-0.7-1.6-1s-0.2-0.5-0.4-0.6c-0.7-0.2-1.4-0.3-2.1-0.2l1.5,0.6c-4.2-0.4-6.2-1.9-9.1-0.9l1.4,0.8
	c-2.5-0.3-4.6-0.5-5.3-2.1l2.6-0.1c-3.3-0.6-6.7-0.8-10.1-0.6l1.2,0.2c-2.3,0.4-9.1-0.1-16-0.5c-3.4-0.2-6.8-0.4-9.6-0.5
	c-2-0.1-4.1-0.1-6.1,0.2l1.6,1.5l-1.5,0.1c-0.5,0-0.9-0.3-0.9-0.8c0-0.2,0-0.4,0.2-0.6l0.2-0.2c0.3-0.4,0.2-0.9-0.2-1.2
	c-0.1-0.1-0.2-0.1-0.4-0.2c-4.8-0.8-14.9-2.3-24.8-4.1c-11.3-2.1-22.5-4.2-25.9-5.3c-0.9-0.4-5.9-0.2-6.5-0.3l-2.4-0.6
	c-1.8,0.7-3.9,0.6-5.7-0.1c-3-0.8-6.1-1.5-9.2-2.2s-12.2-2.7-12.9-2.7c-7.8-0.2-15,4-18.7,10.9c-0.6,1.2-1.2,2.3-1.8,3.5
	c-3.5,6.8-6.2,13-5.8,15.5c0.8,4.2,2,4.1,4.3,5.1c1.8,0.1,4.2-0.3,6.1,0.7l-0.1,0.2c4.5,2.1,7.6,0.2,11.8,2.2l-0.5,0.2
	c1.1,0.8,3.4,0.9,5.7,1.5c0.3,0.1,0.7-0.1,0.9-0.3c0.1-0.1,0.5-0.2,1.1-0.1c2.9,1.2,5.2,1.2,7.3,2.3c0.2,0.1,0.4,0.1,0.6,0.1l2-0.4
	c0.1,0,0.2,0,0.4,0c2.8,0.7,7.6,1.6,13.4,2.7s12.9,2.3,19.8,3.5l10.3,1.8c3.3,0.6,6.6,1,9.5,1.5l13.7,2.1l-0.5,0.1l7.2,1.1l8.5,1.3
	l19.2,2.9c13.2,1.7,26.4,3.5,35.4,3.9c0.1,0,0.2,0,0.3,0.1c2.1,1,5,1.4,7.5,1.9c0.3,0,0.7-0.2,0.8-0.5c0.1-0.2,0.6-0.3,1.2-0.2
	c8.7,1.3,0.7-0.6,9.6,0.2c2.6,0.1,6.9,0.5,12.2,1.2s11.3,1.5,17.4,2.2s12.1,1.7,17.2,2.4s9,1.4,11.3,1.8c0.1,0,0.2,0,0.3,0
	c5-0.9,10.9,0.8,15.7,0.4l-0.5,0.3c2.6,0,11.1,1,19.7,2s17.3,2,20.2,2l-0.8-0.3c4.8-0.4,4.5,0.8,7.5,1.7c0.4,0.1,0.8-0.1,1-0.4
	c0.8-1.1,4.2-1.5,5.7-1.5l-0.1,0.3c2.6,0,8.4-0.9,12.7-0.7l-0.2,0.9c3.6-0.6,10.1,0.4,12.6,0.5h0.1c5.6,0.9,14.1,3.2,21.8,3
	c0.2,0,0.4,0,0.5,0.1c0,0,8-4.7,9.7-13s2.2-17.6-2.6-21.3l0.3-0.9l-2-0.1H689c-2.3-0.6-2.9-0.4-3.3-0.6c-1.1-0.1-2.2-0.3-3.3-0.6
	c-2.5-0.3,0-1.4-2.9-1.9c-15.3-2.2-30.1-4.6-45.5-5.8c-0.3-0.4,0.1-0.4,0.6-0.5c-4.6,0-8.7-0.5-12.9-0.6c-0.1,0-0.3,0-0.4-0.1
	c-0.5-0.2-0.9-0.5-1.2-0.9c-0.2-0.2-0.5-0.3-0.7-0.3c-1.4,0.1-6.2-0.2-11.1-0.6c-3-0.2-6-0.5-8.3-0.8c-1.4-0.1-2.5-0.3-3.2-0.4
	C596.3,501.8,595.9,502.1,595.8,502.5z"/>
<path d="M1277.9,873.4L1277.9,873.4z"/>
<path d="M1187.6,877.8l-0.2,1.6c-4.5,0.1-1.4-1.8-5.5-1.3c-1.6,2.3-6.9-0.1-8.3,1.2c0-0.2-2-0.2-1.9-0.9c-0.6,1.2-2.1,0.3-3.4,0.7
	c-0.5,0.3,0.3,0.4,0.7,0.7l-2.9,0.5c-1.2-0.4-1.4-1.1-0.2-1.2c-3.9-0.2-15-0.4-26.3-0.6s-22.6-0.3-26.8-0.1c1.1,0.9,3.7,0.3,4.6,1.8
	c-2.2,0.8-3.2-0.3-4.2,0.6c-0.8-2.2-4.9-0.5-6.5-2.7l-0.6,1.2l-1.1-0.8c-9.7,1.2-2.2,0.6-10.8,0.3c-5,0.2-7.4,1.9-10.2,1.2
	c0.4,0,1.5,0.8,0.2,1.1c-0.2-1.1-3.4,0.8-4.1-0.3c-1.3,0.1-5.4,0-4,1.5c-0.7-0.7-4.4-1.1-2.2-1.7c-1.1-0.2-2.2-0.2-3.3,0l1.6,0.4
	c-4.2,0.2-6.5-1-9.2,0.4l1.6,0.6c-2.5,0.1-4.6,0.2-5.6-1.3l2.6-0.4c-3.4-0.1-6.8,0.2-10.1,0.9h1.2c-4.4,1.4-27.6,2.7-31.6,4.5
	l1.9,1.1l-3.5,1c0.4,0,1.7-3.7,2-3.3c-3.8,0-15.5,0.5-27.1,0.8c-5.8,0.2-11.6,0.5-16.4,0.6c-2.4,0.1-4.5,0.1-6.3,0.1s-3.2,0-4,0
	c-2.9-0.5-5.9,0.5-5.2,1.4l-3.8,0.1l0.1-0.9c-0.8,0-2,2.5-5.7,2.2c-1.6,0-3.2,0-4.8,0.1s-3.2,0.2-4.9,0.4c-3.3,0.3-6.5,0.6-9.7,0.7
	c0-0.5,1.3-1,2.7-1.4c-1,0.2-2,0.2-2.9,0c1.6,0.8-2.6,0.8-1.4,1.1c-1.1,0.6-2.3,1-3.6,1.3c-0.6,0.1-1.3,0.2-1.9,0.3s-1.3,0.2-2,0.2
	c-2.6,0.3-5.1,0.4-7.1,1.4c-12.6,14.9-4,35.4-3.9,36.5c0.3,1,3.2,1.2,4.9,0.6c1.9,0.2,0.1,0.7,2.4,0.9c1.6-0.5,3.6-1.7,5.5-1.4v0.2
	c4.6,0.5,6.8-2.2,11.1-1.6l-0.4,0.4c1.5,0.5,4.4-0.6,7.1-0.2c-0.8-0.1-1.5-0.8,0.1-1.1c3.1,0.4,5.2-0.5,7.5,0.2l2.1-1.1
	c5.4-0.2,18.8-1.3,32.4-2l10-0.6l9.3-0.4l13.3-0.5l-0.4,0.2c4.2-0.2,9.6-0.2,15.5-0.3l9.2-0.2l9.7-0.1c13-0.2,26.2-0.4,35-1.1
	c2.7,1,6.5,0.8,9.3,1.1c-1.6-0.4-1-1.1,0.2-1.1c8.7,0.2,0.6-0.7,9.4-1.1c2.5-0.2,6.8-0.3,12-0.3s11.3,0,17.3,0.1l17.2,0.4
	c5.1,0.1,9.2,0.3,11.5,0.5c4.8-1.5,10.9-0.6,15.7-1.6l-0.5,0.4c1.3-0.2,4-0.3,7.6-0.3s7.8,0,12.2-0.2c8.7-0.2,17.4-0.3,20.4-0.8
	l-0.8-0.2c5.2-1.3,4.6,0.4,8.7,0.6c-0.6-1.6,3.8-2.8,5.5-3v0.4c1.3-0.2,3.3-0.8,5.6-1.4s4.8-1.1,6.9-1.5l-0.1,0.9
	c3.5-1.3,10.2-1.6,12.7-1.9c1.5-0.1,3.1-0.1,4.9-0.1s3.7,0,5.7-0.1c4.1-0.2,8.1-0.8,12.1-1.9c0,0,7-6.4,6.4-14.8s-2.7-17.5-8-20
	l-1.9-0.5c-2.4-0.1-4.8,0.5-6.4,0.3c-2.4,0.2-0.3-1.4-3.1-1.1l-5.4,0.5c-1.8,0.1-3.7,0.2-5.5,0.3l-10.9,0.5l-5.4,0.3
	c-1.8,0.1-3.7,0.2-5.5,0.3c-3.7,0.2-7.4,0.4-11.1,0.7c-0.4-0.3,0-0.4,0.5-0.5c-4.5,0.7-8.5,0.9-12.6,1.4c-0.7-0.2-1.4-0.6-1.9-1.2
	C1211.4,877,1188,878.1,1187.6,877.8z"/>
<path d="M317.6,1008.9L317.6,1008.9L317.6,1008.9L317.6,1008.9z"/>
<path d="M695.5,980.4l-1.7-0.1C694.4,980.4,694.9,980.4,695.5,980.4z"/>
<path d="M317.6,914.1L317.6,914.1z"/>
<path d="M695.5,885.6l-1.7-0.1C694.4,885.5,694.9,885.6,695.5,885.6z"/>
<path d="M317.6,819.2L317.6,819.2z"/>
<path d="M412.5,829.6l0.3-1.6c4.6,0.1,1.3,1.9,5.6,1.6c1.7-2.2,7.1,0.4,8.6-0.7c0,0.2,2,0.3,1.9,1c0.7-1.2,2.1-0.2,3.5-0.5
	c0.5-0.3-0.4-0.4-0.7-0.8l3-0.4c1.2,0.4,1.5,1.1,0.2,1.2c3.9,0.2,15.3,0.8,26.8,1.2s23,0.5,27.1,0.1c-1.1-0.9-3.7-0.3-4.7-1.8
	c2.2-0.8,3.3,0.3,4.2-0.6c0.9,2.2,4.9,0.5,6.6,2.7l0.6-1.2l1.1,0.7c9.8-1.3,2.2-0.6,10.9-0.4c5-0.2,7.4-1.9,10.2-1.3
	c-0.4,0-1.5-0.8-0.2-1.1c0.2,1.1,3.4-0.8,4.1,0.3c1.3-0.2,5.4,0,4-1.5c0.7,0.7,4.4,1,2.2,1.7c1.1,0.2,2.2,0.1,3.3-0.1l-1.6-0.4
	c4.2-0.2,6.5,0.9,9.2-0.4l-1.5-0.6c2.5-0.1,4.6-0.2,5.5,1.2l-2.5,0.5c3.4,0.1,6.7-0.2,10-0.9H549c4.4-1.5,27.3-2.6,31.3-4.4
	l-1.8-1.1l3.5-0.9c-0.4,0-1.7,3.7-2,3.3c3.7-0.1,15.2-0.1,26.6-0.1c5.7,0.1,11.3,0.2,16,0.4c2.3,0.1,4.4,0.2,6.1,0.3s3,0.3,3.9,0.4
	c2.7,0.8,5.7,0.1,5.1-0.8l3.6,0.3c1.7-1,3.6-1.2,5.5-0.8c1.5,0.2,3,0.3,4.6,0.4s3.1,0.3,4.7,0.4c3.1,0.3,6.2,0.5,9.2,0.8
	c-0.1,0.5,2.6,1,1.5,0.5c1.1-0.4,2.4-0.7,3.6-0.7c0.6,0,1.2,0,1.8,0s1.2,0.1,1.8,0.2c2.4,0.3,4.8,0.7,6.8,0.2c0.3-1,3.3-9,6.5-17.1
	s4.3-17.4,1.3-17.7c0-1,0.3-2.3-2.2-3c-1.8,0.1-4.3,0.8-6.2,0l0-0.2c-4.9-1.7-7.7,0.8-12.1-0.7c0,0-5.6-0.3-7.3-0.3
	c-3.2-0.9-5.6-0.5-7.9-1.4l-2.4,0.9c-5.7-0.4-19.9-1-33.9-0.9h-10.4l-9.6,0.1l-13.7,0.1l0.4-0.2c-4.3,0.1-9.7,0.2-15.7,0.2l-9.4,0.1
	l-9.8,0.2c-13.2,0.2-26.3,0.6-35.1,1.4c-2.7-1-6.5-0.7-9.3-1c1.6,0.4,1,1.1-0.2,1.1c-8.6-0.1-0.6,0.7-9.3,1.1
	c-2.5,0.2-6.8,0.4-12,0.4s-11.2-0.1-17.1-0.2s-11.9-0.4-16.9-0.6s-9-0.5-11.3-0.8c-4.8,1.4-10.7,0.1-15.4,0.9l0.5-0.3
	c-1.3,0.1-4,0-7.4-0.1s-7.6-0.3-11.8-0.7c-8.4-0.6-16.9-1.1-19.8-1l0.8,0.3c-5.1,0.5-4.3-1-8.2-1.8c0.4,1.7-3.9,2.3-5.6,2.3l0.1-0.3
	c-1.2,0-3.3,0.3-5.5,0.6c-2.2,0.3-4.5,0.4-6.8,0.4l0.2-0.9c-3.5,0.6-9.8-0.4-12.2-0.6c-1.4-0.2-3-0.5-4.6-0.9s-3.5-0.7-5.3-1.1
	c-3.7-0.9-7.5-1.3-11.4-1.4c0,0-8.2,4.3-10.2,12.5s-3,17.5,1.7,21.4l1.8,1c2.4,0.8,3.7-0.1,3.4,0.8c1.1,0.1,2.2,0.3,3.3,0.7
	c2.5,0.4,0,1.5,2.9,2l5.8,1.1c1.9,0.3,3.8,0.6,5.8,0.9l11.5,1.7l5.8,0.8c1.9,0.3,3.8,0.4,5.8,0.6c3.9,0.3,7.7,0.6,11.7,0.9
	c0.3,0.4-0.1,0.3-0.6,0.5c4.8-0.1,9,0.4,13.3,0.2c0.7,0.3,1.4,0.7,1.8,1.4c-0.3-0.4,5.6-0.3,11.7-0.1l8.4,0.3
	C410.8,829.5,412.4,829.5,412.5,829.6z"/>
<path d="M412.5,922.9l0.3-1.6c4.6,0.1,1.3,1.9,5.6,1.6c1.7-2.2,7.1,0.4,8.6-0.7c0,0.2,2,0.3,1.9,1c0.7-1.2,2.1-0.2,3.5-0.5
	c0.5-0.3-0.4-0.4-0.7-0.8l3-0.4c1.2,0.4,1.5,1.1,0.2,1.2c3.9,0.2,15.3,0.8,26.8,1.2s23,0.5,27.1,0.1c-1.1-0.9-3.7-0.3-4.7-1.7
	c2.2-0.8,3.3,0.3,4.2-0.6c0.9,2.2,4.9,0.5,6.6,2.7l0.6-1.2l1.1,0.7c9.8-1.3,2.2-0.6,10.9-0.4c5-0.2,7.4-1.9,10.2-1.3
	c-0.4,0-1.5-0.8-0.2-1.1c0.2,1.1,3.4-0.8,4.1,0.3c1.3-0.2,5.4,0,4-1.5c0.7,0.7,4.4,1,2.2,1.7c1.1,0.2,2.2,0.1,3.3-0.1l-1.6-0.4
	c4.2-0.2,6.5,0.9,9.2-0.4l-1.5-0.6c2.5-0.1,4.6-0.2,5.5,1.2l-2.5,0.5c3.4,0.1,6.7-0.2,10-0.9H549c4.4-1.5,27.3-2.6,31.3-4.4
	l-1.8-1.1l3.5-0.9c-0.4,0-1.7,3.7-2,3.3c3.7-0.1,15.2-0.1,26.6-0.1c5.7,0.1,11.3,0.2,16,0.4c2.3,0.1,4.4,0.2,6.1,0.3s3,0.3,3.9,0.4
	c2.7,0.8,5.7,0.1,5.1-0.8l3.6,0.3c1.7-1,3.6-1.2,5.5-0.8c1.5,0.2,3,0.3,4.6,0.4s3.1,0.3,4.7,0.4c3.1,0.2,6.2,0.5,9.2,0.8
	c-0.1,0.5,2.6,1,1.5,0.5c1.1-0.4,2.4-0.7,3.6-0.7c0.6,0,1.2,0,1.8,0s1.2,0.1,1.8,0.2c2.4,0.3,4.8,0.7,6.8,0.2c0.3-1,3.3-9,6.5-17.1
	s4.3-17.4,1.3-17.7c0-1,0.3-2.3-2.2-3c-1.8,0.1-4.3,0.8-6.2,0l0-0.2c-4.9-1.7-7.7,0.8-12.1-0.7c0,0-5.6-0.3-7.3-0.3
	c-3.2-0.9-5.6-0.5-7.9-1.4l-2.4,0.9c-5.7-0.4-19.9-1-33.9-0.9h-10.4l-9.6,0.1l-13.7,0.1l0.4-0.2c-4.3,0.1-9.7,0.2-15.7,0.2l-9.4,0.1
	l-9.8,0.2c-13.2,0.2-26.3,0.7-35.1,1.4c-2.7-1-6.5-0.7-9.3-1c1.6,0.4,1,1.1-0.2,1.1c-8.6-0.1-0.6,0.7-9.3,1.1
	c-2.5,0.2-6.8,0.4-12,0.4s-11.2-0.1-17.1-0.2s-11.9-0.4-16.9-0.6s-9-0.5-11.3-0.8c-4.8,1.4-10.7,0.1-15.4,0.9l0.5-0.3
	c-1.3,0.1-4,0-7.4-0.1s-7.6-0.3-11.8-0.7c-8.4-0.6-16.9-1.1-19.8-1.1l0.8,0.3c-5.1,0.5-4.3-1-8.2-1.7c0.4,1.7-3.9,2.3-5.6,2.3
	l0.1-0.3c-1.2,0-3.3,0.3-5.5,0.6c-2.2,0.3-4.5,0.4-6.8,0.4l0.2-0.9c-3.5,0.6-9.8-0.4-12.2-0.6c-1.4-0.2-3-0.6-4.6-0.9
	s-3.5-0.7-5.3-1.1c-3.7-0.9-7.5-1.3-11.4-1.4c0,0-8.2,4.3-10.2,12.5s-3,17.5,1.7,21.4l1.8,1c2.4,0.8,3.7-0.1,3.4,0.8
	c1.1,0.1,2.2,0.3,3.3,0.7c2.5,0.4,0,1.5,2.9,2l5.8,1.1c1.9,0.3,3.8,0.6,5.8,0.9l11.5,1.7l5.8,0.8c1.9,0.3,3.8,0.4,5.8,0.6
	c3.9,0.3,7.7,0.6,11.7,0.9c0.3,0.4-0.1,0.3-0.6,0.5c4.8-0.1,9,0.4,13.3,0.2c0.7,0.3,1.4,0.7,1.8,1.4c-0.3-0.4,5.6-0.3,11.7-0.1
	l8.4,0.3C410.8,922.7,412.4,922.8,412.5,922.9z"/>
<path d="M412.5,1016.1l0.3-1.6c4.6,0.1,1.3,1.9,5.6,1.6c1.7-2.2,7.1,0.4,8.6-0.7c0,0.2,2,0.3,1.9,1c0.7-1.2,2.1-0.2,3.5-0.5
	c0.5-0.3-0.4-0.4-0.7-0.8l3-0.4c1.2,0.4,1.5,1.1,0.2,1.2c3.9,0.2,15.3,0.8,26.8,1.2s23,0.5,27.1,0.1c-1.1-0.9-3.7-0.3-4.7-1.7
	c2.2-0.8,3.3,0.3,4.2-0.6c0.9,2.2,4.9,0.5,6.6,2.7l0.6-1.2l1.1,0.8c9.8-1.3,2.2-0.6,10.9-0.4c5-0.2,7.4-1.9,10.2-1.3
	c-0.4,0-1.5-0.8-0.2-1.1c0.2,1.1,3.4-0.8,4.1,0.3c1.3-0.2,5.4,0,4-1.5c0.7,0.7,4.4,1,2.2,1.7c1.1,0.2,2.2,0.1,3.3-0.1l-1.6-0.4
	c4.2-0.2,6.5,0.9,9.2-0.4l-1.5-0.6c2.5-0.1,4.6-0.2,5.5,1.2l-2.5,0.5c3.4,0.1,6.7-0.2,10-0.9H549c4.4-1.5,27.3-2.6,31.3-4.4
	l-1.8-1.1l3.5-1c-0.4,0-1.7,3.7-2,3.3c3.7-0.1,15.2-0.1,26.6-0.1c5.7,0.1,11.3,0.2,16,0.4c2.3,0.1,4.4,0.2,6.1,0.3s3,0.3,3.9,0.4
	c2.7,0.8,5.7,0.1,5.1-0.8l3.6,0.3c1.7-1,3.6-1.2,5.5-0.8c1.5,0.2,3,0.3,4.6,0.4s3.1,0.3,4.7,0.4c3.1,0.2,6.2,0.5,9.2,0.8
	c-0.1,0.5,2.6,1,1.5,0.5c1.1-0.4,2.4-0.7,3.6-0.7c0.6,0,1.2,0,1.8,0s1.2,0.1,1.8,0.2c2.4,0.3,4.8,0.7,6.8,0.2c0.3-1,3.3-9,6.5-17.1
	s4.3-17.4,1.3-17.7c0-1,0.3-2.3-2.2-3c-1.8,0.1-4.3,0.8-6.2,0l0-0.2c-4.9-1.7-7.7,0.8-12.1-0.7c0,0-5.6-0.3-7.3-0.3
	c-3.2-0.9-5.6-0.5-7.9-1.4l-2.4,0.9c-5.7-0.4-19.9-1-33.9-0.9h-10.4l-9.6,0.1l-13.7,0.1l0.4-0.2c-4.3,0.1-9.7,0.2-15.7,0.2l-9.4,0.1
	l-9.8,0.2c-13.2,0.2-26.3,0.7-35.1,1.4c-2.7-1-6.5-0.7-9.3-1c1.6,0.4,1,1.1-0.2,1.1c-8.6-0.1-0.6,0.7-9.3,1.1
	c-2.5,0.2-6.8,0.4-12,0.4s-11.2-0.1-17.1-0.2s-11.9-0.4-16.9-0.6s-9-0.5-11.3-0.8c-4.8,1.4-10.7,0.1-15.4,0.9l0.5-0.3
	c-1.3,0.1-4,0-7.4-0.1s-7.6-0.3-11.8-0.7c-8.4-0.6-16.9-1.1-19.8-1.1l0.8,0.3c-5.1,0.5-4.3-1-8.2-1.8c0.4,1.7-3.9,2.3-5.6,2.3
	l0.1-0.3c-1.2,0-3.3,0.3-5.5,0.6c-2.2,0.3-4.5,0.4-6.8,0.4l0.2-0.9c-3.5,0.6-9.8-0.4-12.2-0.6c-1.4-0.2-3-0.5-4.6-0.9
	s-3.5-0.7-5.3-1.1c-3.7-0.9-7.5-1.3-11.4-1.4c0,0-8.2,4.3-10.2,12.5s-3,17.5,1.7,21.4l1.8,1c2.4,0.8,3.7-0.1,3.4,0.8
	c1.1,0.1,2.2,0.3,3.3,0.7c2.5,0.4,0,1.4,2.9,2l5.8,1.1c1.9,0.3,3.8,0.6,5.8,0.9l11.5,1.7l5.8,0.8c1.9,0.3,3.8,0.4,5.8,0.6
	c3.9,0.3,7.7,0.7,11.7,0.9c0.3,0.4-0.1,0.3-0.6,0.5c4.8-0.1,9,0.4,13.3,0.2c0.7,0.3,1.4,0.8,1.8,1.4c-0.3-0.4,5.6-0.3,11.7-0.1
	l8.4,0.3C410.8,1016,412.4,1016.1,412.5,1016.1z"/>
<path d="M1187.6,972.7l-0.2,1.6c-4.5,0.1-1.4-1.8-5.5-1.3c-1.6,2.3-6.9-0.1-8.3,1.2c0-0.2-2-0.2-1.9-0.9c-0.6,1.2-2.1,0.3-3.4,0.7
	c-0.5,0.3,0.3,0.4,0.7,0.7l-2.9,0.5c-1.2-0.4-1.4-1.1-0.2-1.2c-3.9-0.2-15-0.4-26.3-0.6s-22.6-0.3-26.8-0.1c1.1,0.9,3.7,0.3,4.6,1.8
	c-2.2,0.8-3.2-0.3-4.2,0.6c-0.8-2.2-4.9-0.5-6.5-2.7l-0.7,1.2l-1.1-0.8c-9.7,1.2-2.2,0.6-10.8,0.3c-5,0.2-7.4,1.8-10.2,1.2
	c0.4,0,1.5,0.8,0.2,1.1c-0.2-1.1-3.4,0.8-4.1-0.3c-1.3,0.1-5.4,0-4,1.5c-0.7-0.7-4.4-1.1-2.2-1.7c-1.1-0.2-2.2-0.2-3.3,0l1.6,0.4
	c-4.2,0.2-6.5-1-9.2,0.4l1.6,0.6c-2.5,0.1-4.6,0.2-5.6-1.3l2.6-0.4c-3.4-0.1-6.8,0.2-10.1,0.9h1.2c-4.4,1.4-27.6,2.7-31.6,4.5
	l1.9,1.1l-3.5,1c0.4,0,1.7-3.7,2-3.3c-3.8,0-15.5,0.5-27.1,0.8c-5.8,0.2-11.6,0.5-16.4,0.6c-2.4,0.1-4.5,0.1-6.3,0.1s-3.2,0-4,0
	c-2.9-0.5-5.9,0.5-5.2,1.3l-3.8,0.1l0.1-0.9c-0.8,0-2,2.5-5.7,2.2c-1.6,0-3.2,0-4.8,0.1s-3.2,0.2-4.9,0.4c-3.3,0.3-6.5,0.6-9.7,0.7
	c0-0.5,1.3-1,2.7-1.4c-1,0.2-2,0.2-2.9,0c1.6,0.8-2.6,0.8-1.4,1.1c-1.1,0.6-2.3,1-3.6,1.3c-0.6,0.1-1.3,0.2-1.9,0.3s-1.3,0.2-2,0.2
	c-2.6,0.3-5.1,0.4-7.1,1.4c-12.6,14.9-4,35.4-3.9,36.5c0.3,1,3.2,1.2,4.9,0.6c1.9,0.2,0.1,0.7,2.4,0.9c1.6-0.5,3.6-1.7,5.5-1.4v0.2
	c4.6,0.4,6.8-2.2,11.1-1.6l-0.4,0.4c1.5,0.5,4.4-0.6,7.1-0.2c-0.8-0.1-1.5-0.8,0.1-1.1c3.1,0.4,5.2-0.5,7.5,0.2l2.1-1.1
	c5.4-0.2,18.8-1.3,32.4-2l10-0.5l9.3-0.4l13.3-0.5l-0.4,0.2c4.2-0.1,9.6-0.2,15.5-0.3l9.2-0.2l9.7-0.1c13-0.2,26.2-0.4,35-1.1
	c2.7,1,6.5,0.8,9.3,1.1c-1.6-0.4-1-1.1,0.2-1.1c8.7,0.1,0.6-0.7,9.4-1.1c2.5-0.2,6.8-0.3,12-0.3s11.3,0,17.3,0.1l17.2,0.4
	c5.1,0.1,9.2,0.3,11.5,0.5c4.8-1.5,10.9-0.6,15.7-1.6l-0.5,0.3c1.3-0.2,4-0.3,7.6-0.3s7.8,0,12.2-0.2c8.7-0.2,17.4-0.3,20.4-0.8
	l-0.8-0.2c5.2-1.3,4.6,0.4,8.7,0.6c-0.6-1.6,3.8-2.8,5.5-3v0.4c1.3-0.2,3.3-0.8,5.6-1.4s4.8-1.1,6.9-1.5l-0.1,0.9
	c3.5-1.3,10.2-1.6,12.7-1.9c1.5-0.1,3.1-0.1,4.9-0.1s3.7,0,5.7-0.1c4.1-0.2,8.1-0.8,12.1-1.9c0,0,7-6.4,6.4-14.8s-2.7-17.5-8-20
	l-1.9-0.5c-2.4-0.1-4.8,0.5-6.4,0.3c-2.4,0.2-0.3-1.4-3.1-1.1l-5.4,0.5c-1.8,0.1-3.7,0.2-5.5,0.3l-10.9,0.5l-5.4,0.3
	c-1.8,0.1-3.7,0.2-5.5,0.3c-3.7,0.2-7.4,0.4-11.1,0.7c-0.4-0.3,0-0.4,0.5-0.5c-4.5,0.7-8.5,0.9-12.6,1.4c-0.7-0.2-1.4-0.6-1.9-1.2
	C1211.4,971.8,1188,973,1187.6,972.7z"/>
<g>
	<path d="M1483.1,1187c-0.3-8.5-1.3-19.8-0.7-29.6l0.2,0.2c1.1-23.8-1.5-36.5-0.5-58.3l0.3,2.3c0.6-7.7-0.2-22.9,0.4-36.8
		c-0.2,4-0.9,7.4-1.1-0.9c0.7-16,0-26.9,0.8-38.5l-1-11.2c0.2-55.6-1.2-275.3-1.4-331.1l0.2,2.2c-0.1-42.5-0.3-107.5-0.6-172.8
		c-0.2-32.7-0.3-65.4-0.4-95.5c-0.1-15-0.2-29.4-0.3-42.8c-0.1-7.9-0.1-15.5-0.2-22.7c0.1-2.7-0.1-5.4-0.5-8.1
		c-0.2-1.2-0.5-2.4-0.9-3.6c-0.3-1.1-0.8-2.2-1.3-3.3c-0.6-1.1-1.2-2.1-2-3c-0.4-0.4-0.7-0.8-1.2-1.2l-1.2-1.2
		c-0.4-0.4-0.8-0.8-1.2-1.2l-1.5-1.1l-1.5-1.1c-0.5-0.4-1-0.7-1.6-1l-2.8-1.5l-1-0.6l-0.5-0.3c-0.2-0.1-0.3-0.2-0.6-0.4l-0.7-0.5
		l-0.1-0.1l-0.1-0.1l-0.4-0.3c-0.5-0.4-1-0.8-1.5-1.3s-1.1-0.9-1.6-1.4l-1.7-1.5c-2.3-2.1-4.8-4.5-7.2-7.1
		c-4.9-5.1-9.9-10.6-14-15.6c4.6,5.9,2.4,4.5-1.4,0c-3.3-3.9-5.8-7-7.8-9.3l-4.8-5.9c-1.2-1.6-2.6-3.2-4-4.6
		c-1.6-1.6-3.1-3.3-4.4-5.2c-1.7-2.1-4.1-5.2-7.4-9.7c-1.7-2.3-3.7-4.9-5.9-8l-3.6-5l-4.1-5.8c-0.4-0.6-0.8-1.2-1.3-1.7l-1.3-1.7
		l-2.8-3.5l-2.8-2.3c-0.5-0.4-1-0.8-1.5-1.2c-0.5-0.4-0.9-0.6-1.4-0.9c-3.3-2.1-6.8-3.7-10.5-4.9l-2.3-0.8l-2.1-0.7
		c-0.8-0.4-1.8-0.5-2.7-0.4c-1.7,0.2-3.3,0.8-4.8,1.6c-0.3,0.2-0.5,0.4-0.8,0.6c-0.2,0.2-0.3,0.3-0.4,0.5l-0.8,1l-0.7,0.9
		c-2.5-0.9-5.2-1.5-7.9-1.7c-1.4-0.1-2.8-0.1-4.2-0.1c-1.4,0.1-2.7,0.2-4.1,0.5l-2,0.4l-1,0.2l-0.6,0.2l-2.2,0.6
		c-5.9,1.6-11.4,3.1-16.5,4.4c-10.1,2.7-18.2,4.7-23.7,6.1l5.9-1.3c-19,5.1-27.3,6.8-34.7,8.2c-3.7,0.7-7.1,1.3-11.5,2.1l-7.5,1.4
		l-9.9,1.9c2.1,0.2-5,2.2-14.3,4.4c-9.3,2.2-20.7,4.6-27,5.8l0.4-0.4c-9.5,1.9-25.1,5-42.2,8.1c-17.2,3.1-35.9,6.2-51.8,8.4l1.2-0.9
		c-13.2,2.2-32.3,4.7-50.6,6.8c-18.2,2.1-35.6,3.8-45.2,4.7c-11,1-23.5,2-37,3.1c-13.5,1.1-28,2.3-43,3.6
		c-7.5,0.7-15.1,1.4-22.8,2.2s-15.5,1.7-23.3,2.8c-15.6,2.2-31.2,4.8-46.5,9.5c-7,1.6-13.8,3.8-20.4,6.5l-2.6,1.2l-1.3,0.6l-1.3,0.7
		l-2.6,1.4c-0.9,0.5-1.7,1-2.6,1.6c-1,0.6-1.9,1.2-2.8,1.8c-0.6-0.6-1.4-1.3-2.1-2.1l-1.6-1.5l-1.7-1.4c-4.5-3.8-8.9-6.4-8.1-6.4
		c-3.3-1.3-8.1-3.7-13.6-6c-5.5-2.3-11.3-4.3-17.1-5.8c-2-0.4-1.3-0.1,0.2,0.4c1.6,0.5,4.1,1.4,5.5,2c-8.3-2.4-16.6-4.3-25.1-5.8
		c-4.8-1.1-7.7-1.9-8.1-2.2s1.6-0.2,6.8,0.7c-8-1.6-19.7-3.6-33.9-5.4c-14.2-1.8-31.1-3.6-49.7-5.5c-37.1-3.6-81.1-7.6-124.9-13
		c-21.9-2.7-43.8-5.7-64.7-8.9s-41-6.7-59.3-10.1c-36.6-6.8-66.1-13.6-81.9-17.2c7.9,2.9,27.6,6.7,34.7,9.7
		c-8.5-1.4-14.6-2.9-19.6-4.1c-4.1-1.1-8.3-2-12.6-2.6c-2.7-1.3-5.5-2.3-8.4-3c-3.9-1.1-8.7-2.4-13.6-3.7c-5-1.3-10.1-2.7-14.7-4.1
		c-4-1.1-8-2.6-11.8-4.2l-5.1-0.1l-8-3l-7.3-1.9l-3.1-0.6c-1-0.2-2-0.4-3-0.5c-1-0.1-1.9-0.1-2.9-0.2c-0.9-0.1-1.9-0.1-2.8-0.1
		c-1.8,0-3.5,0.2-5.2,0.4c-0.8,0.1-1.7,0.2-2.5,0.4l-2.4,0.6c-1,0.3-2,0.6-2.9,0.9c-0.9-0.3-1.8-0.6-2.7-0.7
		c-0.5-0.1-0.9-0.2-1.2-0.2c-0.3,0-0.5-0.1-0.7-0.1c-1.5-0.2-3.1-0.2-4.6-0.1c0.9,0.3,1.8,0.5,2.8,0.6l1.5,0.2c0.3,0,0.5,0,0.9,0.1
		c0.4,0.1,1,0.2,1.6,0.4c0.4,0.1,0.7,0.2,1,0.3c-0.7,0.3-1.4,0.6-2.2,0.9c-0.3,0-0.5-0.1-0.8-0.1c-0.4,0-0.8,0-1.3,0
		c-0.4,0-0.7,0-1,0.1c-0.8,0.1-1.5,0.3-2.2,0.7c-0.3-0.3-0.7-0.6-1.1-0.7c-0.7-0.1-1.4-0.2-2.1-0.2c-1,0.1-2.1,0.2-3.1,0.4l-2,0.6
		c-0.8,0.2-1.5,0.5-2.2,0.8l-2.5,1l-0.6,0.3l-0.3,0.1l-0.3,0.3l-1.4,1l-2.7,2c-0.4,0.2-0.9,0.9-1.4,1.5l-1.4,1.7
		c-0.9,1.1-1.8,2.2-2.7,3.2s-1.7,2.2-2.5,3.2c-1.6,2.1-3.1,3.9-4.5,5.3l-3.5,7l-6.8,8.1c-3.6,5-6.8,9.4-9.7,13.3l-4,5.4
		c-1.1,1.5-2.2,2.8-3.1,4.1c-2.2,2.9-3.7,4.9-4.9,6.4c-2.3,3.1-3.1,3.9-3.7,4.7c-0.7,0.8-1.2,1.4-3.4,3.7
		c-2.2,2.3-5.7,6.4-12.6,13.4c-3,3.1-5.7,5.8-8.1,8l-1.7,1.6l-1.6,1.4c-0.5,0.5-1,0.8-1.4,1.2l-0.3,0.3l-0.1,0.1l-0.1,0.1l-0.8,0.5
		l-0.2,0.1l-0.1,0.1l-0.3,0.2l-0.5,0.3l-1,0.6l-3.4,1.8c-1,0.7-1.9,1.4-2.8,2.1l-1.4,1c-0.4,0.3-0.7,0.7-1.1,1.1
		c-0.7,0.7-1.3,1.5-2,2.2c-1.2,1.5-2.3,3.3-3.1,5.1c-0.7,1.7-1.3,3.5-1.7,5.4c-0.4,1.9-0.6,3.9-0.6,5.9c0,2,0,4,0,6s0,3.8,0,5.8
		c0,0.6,0,1.1,0,1.7c0.2-2.5,0.7-5.9,1,0.4c-1.1,1.1,0.8,17.3-0.3,20.4c0.1,6.3,0,27,1.5,20c-0.7,3.5-1,21.9-1.7,10.9
		c0,6.2-0.3,12.2,0.1,16.7l0.4-8c0.2,20.9-0.9,32.3,0.4,46l0.6-7.7c0.1,12.5,0.2,23-1.3,27.9l-0.4-12.8c0,20.8,0.1,33.3,0.9,50.6
		v-6.2c1.5,22,2.7,137.3,4.5,157.6l1.1-9.3l1,17.5c0-1.9-3-7.3-3.3-9.6c0.1,38.8,1,231.7,0.2,266c-0.6,14-1.8,2.5-2,2.3
		c0.4,17,1.2,7.3,1.1,21.8c-0.2,3.9-0.9-0.8-1-3c0.1,6.3-0.2,12.2,0.3,12.7c0.4-7.9,1.8-4.6,2.7-7.9l-0.1,18.6l-0.9-0.8
		c0,4.1,2.4,10.5,2,28.7c-0.4,30.8-0.1,64.2-0.3,95.1c-0.5-0.5-0.8-7-1.2-13.5c0,4.1,0.1,10.5-0.3,14.3c0.9-7.5,0.6,13,1,7.1
		c2.2,22.7,0.2,52,1.7,72c0.9,0.8,7.5,9.1,14.8,18.3c0.1,0.5,0.1,0.9,0.2,1.4c0.1,0.9,0.3,1.9,0.5,2.9c0.2,1,0.5,1.9,0.9,2.9
		l0.5,1.4c0.2,0.5,0.4,0.9,0.6,1.4c0.1,1.1-0.4,0-1.1-1.3c0.3,0.8,0.8,1.6,1.1,2.4s0.8,1.6,1.2,2.3s0.9,1.4,1.4,2.1
		c0.5,0.7,1,1.4,1.5,2c0.5,0.6,1,1.2,1.5,1.8s1,1.1,1.5,1.6l1.5,1.3l1.4,1.1c0.3,0.2,0.6,0.4,0.9,0.4l1,0.4l2.1,0.8l4.1,1.6
		c2.7,1,5.5,2,8.2,3c0.7,0.4,1.1,0.8,1.9,0.8c0.7,0.1,1.3,0.2,1.8,0.3c0.9,0.2,1.5,0.4,2.1,0.6c-0.6-0.2,5.2-0.4,14-0.6
		c4.5-0.1,9.6-0.2,15.4-0.4l11.1-0.3c6.2-0.2,12.5-0.3,17.3-0.4c4.8-0.1,8.2-0.3,8.4-0.3l0.6-1.6c9.5-0.2,2.8,1.8,11.6,1.2
		c3.4-2.3,14.6,0,17.7-1.3c-0.1,0.2,4.2,0.2,4,0.9c1.3-1.2,4.4-0.4,7.2-0.7c1-0.3-0.7-0.3-1.5-0.7l6.2-0.5c2.5,0.3,3.1,1.1,0.4,1.2
		l55.5,0.2c23.7,0.1,47.6,0.2,56.4-0.1c-2.2-0.9-7.6-0.3-9.7-1.8c4.6-0.8,6.8,0.3,8.9-0.6c1.8,2.2,10.2,0.5,13.7,2.8l1.3-1.2
		l2.3,0.8c20.4-1.2,4.7-0.6,22.7-0.2c10.2-0.1,15.2-1.6,20.8-1c-1-0.2-2.4-0.8,0-1c0.5,1.1,7.2-0.7,8.5,0.4
		c2.6-0.1,11.2,0.2,8.3-1.3c1.4,0.8,9.1,1.2,4.5,1.8c2.3,0.2,4.6,0.2,6.9,0.1l-3.3-0.5c8.7,0,13.5,1.2,19.2,0l-3.2-0.7
		c5.2,0,9.6,0,11.6,1.6l-5.4,0.3c7,0.3,14.1,0.2,21.1-0.3l-2.6-0.1c4.6-0.6,18.9-0.8,33.1-1c7.1-0.1,14.2-0.1,20-0.2
		c4.2,0,8.4-0.2,12.6-0.7l-3.8-1.3l7.3-0.6c-0.8-0.1-3.2,2.9-4.1,3.1l21.6,1c10,0.6,22,1.2,33.9,2s23.8,1.8,33.6,2.7
		s17.5,1.8,21,2.4c5.7,1.3,0.8,1.9,0.8,2.1c7,0.4,3.1-0.9,9-0.1c1.6,0.4-0.4,0.8-1.4,0.9c2.6,0.2,5,0.8,5.2,0.3
		c-3.2-0.8-1.7-2-2.9-3.1l7.6,1l-0.4,0.8c1.7,0.2,4.6-1.9,12-0.4l19.4,2.9c3.3,0.5,6.6,0.9,9.8,1.5s6.4,1.1,9.5,1.7
		c-0.3,0.5-3,0.3-5.6,0.2c1.9,0.2,3.9,0.7,5.7,1.2c-2.9-1.4,5.4,0.3,3.1-0.5c4.8-0.3,10,0.7,15.1,1.7l7.4,1.5
		c2.2,0.5,4.4,0.8,6.7,0.9c0,0,0.1-0.1,0.1-0.2c-0.1,0.3-0.1,0.4-0.1,0.4c5.9-2,5.2-0.9,11-2.4c0.5,0.9,0.5,2.3,5.5,1.6
		c3.4-1,7.8-3,11.9-3.3v0.2c4.2-0.4,8.4-1.2,12.4-2.5c1.8-0.5,3.6-1,5.5-1.5c2.1-0.4,4.2-0.7,6.3-0.8l-0.9,0.5
		c3.3,0.1,9.6-1.7,15.5-1.9c-0.6,0.1-1.3,0-1.8-0.3c-0.2-0.2,0.3-0.5,2.1-0.8c6.9-0.2,11.4-1.5,16.4-1.3c1.5-0.5,3.1-1.1,4.7-1.6
		c3-0.3,7-0.7,11.9-1.3l7.9-0.9l9-0.9c6.3-0.6,13.1-1.3,20.2-1.9s14.5-1.3,22-1.8l11.1-0.8c3.7-0.3,7.3-0.5,10.9-0.7l20.4-1.2
		c12.7-0.6,23.2-1.1,29.3-1.3l-0.9,0.2c18.5-0.8,46.7-1.4,75.2-1.7s57.1-0.4,76.3-0.8c5.9,1.1,14.1,0.9,20.3,1.3
		c-3.4-0.5-2.2-1.2,0.4-1.1c18.9,0.5,1.3-0.7,20.4-0.7c5.5-0.1,14.9,0,26.2,0.2s24.5,0.7,37.6,1.2c26.2,1,52.2,2.4,62,3.1
		c10.6-1.1,23.7,0.5,34-0.1l-1.1,0.3c1.4,0,3.6,0,6.4,0.1l10.5,0.4l19.9,0.7l5.4,0.2l5.9,0.2l12.3,0.3l6.2,0.2l3.1,0.1h1.5
		c0.4,0,0.8-0.1,1.3-0.1l9.9-1l9.5-0.9c0.2,0,0.4,0,0.5-0.1l0.3-0.2l0.6-0.3l1.1-0.6l2.1-1.2c2.6-1.6,5.5-3.1,6.3-4.2
		c1.2-1.1,2.2-2,2.8-2.6l-0.9,0.6c0.2-0.3,0.5-0.5,0.7-0.8l0.3-0.3c0.1,0,0.1-0.1,0.2-0.2c0.1-0.1,0.1-0.2,0-0.3c0,0,0,0,0,0
		l3.7-4.2C1479.3,1202.1,1482.7,1199,1483.1,1187z M1354.6,1134.5c-0.6-1.2-1.2-2.4-1.8-3.6c0,0,0.1,0,0.1,0
		C1354.4,1133.5,1355.3,1134.5,1354.6,1134.5z M1352.5,1130c0.2,0.3,0.3,0.6,0.5,0.9c0,0-0.1,0-0.1,0
		C1352.7,1130.6,1352.5,1130.3,1352.5,1130L1352.5,1130z M1351.1,1130.5c0.1,0.3,0.2,0.6,0.4,0.8c-2,0.6-3.5,1-4.4,1.2
		c-1.3,0.3-1.6,0.3-1.3,0.1c0.9-0.5,1.9-0.9,2.9-1.2L1351.1,1130.5z M829.2,341.6c7.5-2.7,13.6-4.3,17.4-5.3s5.6-1.3,5.1-0.9
		c-6.2,1.2-12.3,2.9-18.3,4.9l0.8-0.2c1.2-0.4,2-0.6,2.6-0.7c1.1-0.3,1.1-0.2,0.3,0.2l-3.7,1.5c-0.8,0.3-1.6,0.7-2.4,1l-2.2,1
		c5.9-2.2,12.1-4,18.3-5.2c3.2-1-2.5,0.3-5.1,0.8c10.9-3.3,22.1-5.7,33.5-7.1c9.2-1.3,9.6-1,10.3-0.8c0.7,0.2,1.8,0.3,12.7-0.9
		c28.7-3.1,57.8-5.3,86.8-7.9c29-2.6,58-5.5,87-9c58.6-7,116.9-17.1,174.4-30.2c2.7-0.3-0.4,0.4-3.8,1.3
		c35.2-8.2,66.3-16.2,97.8-25.6l1.6-0.4l0.7-0.2c0.2,0,0.1,0,0.2,0s0.3,0,0.4,0s0.2,0,0.3,0.1c0.1,0.1,0.1,0,0.2,0.1
		c0.1,0.1,0.3,0.3,0.3,0.5c0-0.1,0.2-0.1,0.5,0c0,1.2,0,2.5,0,3.7c0,12.1,0,24.6,0,37.3c0,15.9-0.1,32.4-0.1,48.8
		c-0.2,60.1-0.7,119.4-1.1,141.8c1.4,24,0.3,54,1.3,77.5l-0.3-2.4c0.5,25.3-0.8,168.3-0.3,197.7l0.2-3.9c0.9,25.6-0.7,22.1-1.2,42.3
		c1.6-2.7,2.5,19.3,2.7,27.7l-0.3-0.3c0.1,6,0.5,15.7,0.9,26.4c-0.4,23.2-0.8,45.4-1.2,65.6c-0.8,37.2-1.6,67.4-2,83.6
		c1-8.3,1.1-28.3,2.4-36c0.3,17.1-0.9,25.2-0.4,32.8c-2,6.6-1.5,37.7-4,50.6l0.9,4.9l-1,8.5c-0.2,6.3-0.3,11.7-0.4,16.2
		c-0.1,2.3-0.1,4.4-0.2,6.3c0,1,0,1.9-0.1,2.7c0,0.6,0,0.4,0,0.5v0.1c-0.1,0.4-0.2,0.5-0.3,0.6s-0.2,0.2-0.4,0.2c-0.1,0-0.2,0-0.3,0
		l-0.4,0.1h-0.1l-0.7,0.3l-1.6,0.7c-6.7,3-13.6,5.7-20.6,8c-8.5,2.9-16.1,5.2-23,7s-13.1,3.3-18.8,4.6s-11,2.3-16.1,3.1
		c-4.8,0.8-9.5,1.5-14.4,2c3.5-0.4,9.6-0.7,0.8,0.7c-0.9-0.3-7.3,0.7-14.2,1.5s-14.2,1.6-16.6,1.4c-4.8,0.5-15,1.2-22.8,1.8
		s-12.9,1-7.6,1.3c-5.3-0.2-33.5,0.6-16.7-0.4c-9.5,0.3-18.7,0.4-25.5,0.8h12.2c-16,0.5-28.5,0.5-39.5,0.6s-20.7,0.1-31.2,0.5
		l11.9,0.4c-9.6,0-18.5,0.1-25.9,0s-13.3-0.4-17.2-0.8l19.9-0.2c-32.1,0-51.5-0.2-78.4,0.6h9.6c-8.6,0.3-26.2,0.6-48.4,1.7
		c-11.1,0.6-23.4,1.4-36.3,2.7s-26.3,3.1-39.8,5.8c-6.7,1.3-13.5,3-20.1,4.9c-6.6,1.9-13.1,4.1-19.5,6.7
		c-8.9,3.6-17.4,8.2-24.8,13.6c0-0.3,0-0.7,0-1c-0.2-2.2-0.3-0.9-0.4,1.2c-0.1,0.1-0.2,0.2-0.3,0.2c-0.4-9.7-0.9-21.8-0.6-32.5
		c0.1-19.4,1.4-1.2,1.5-23.8c0.7-119.2,1.7-234.7,1.5-355.2c0.4-2.7,0.3,0.5,0.5,4c-0.4-36.3-0.2-68.6-0.6-101.6
		c0.1-4.8,0.6-9.6,1.3-14.4c-0.4,2.7-0.6-42.9-0.7-89.6c0-23.3,0-46.9,0-64.9c0-18,0-30.4,0-31.1l-1.6-2.3c0-35.7,1.8-10.4,1.4-43.5
		c-1.1-6.5-1.1-20.2-0.9-33.7c0-1.7,0-3.4,0.1-5c0-0.8,0-1.7,0-2.5c0-0.3,0-1,0-1.6c0-0.6,0-1.2,0-1.9c-0.1-2.5-0.3-4.9-0.7-7.4
		c-0.2-1.2-0.5-2.5-0.7-3.7c-0.1-0.6-0.2-1.1-0.4-1.7c1.7-1.2,3.5-2.2,5.4-3.1l-0.4,1.1C821.8,344.9,825.4,343.1,829.2,341.6z
		 M812.3,1154.7l0,7.6c-0.1,0.1-0.2,0.1-0.2,0.2C811.9,1156.5,811.7,1153.9,812.3,1154.7z M813.2,1211.9c-0.2-1.9-0.6-3.8-0.9-5.7
		c0.2-0.4,0.7,0.9,1.3,3.6c0.1,0.6,0.2,1.3,0.4,1.9C813.7,1211.8,813.4,1211.9,813.2,1211.9z M242.9,1038.4
		c0.1-12.4,1.4-0.8,1.5-15.2c0.7-76.1,1.7-149.8,1.5-226.6c0.4-1.7,0.4,0.3,0.5,2.6c-0.4-23.2-0.2-43.8-0.6-64.8
		c0.1-3.1,0.6-6.2,1.3-9.2c-0.4,1.7-0.6-27.4-0.6-57.2c0-14.9,0-30,0-41.4s0-19.3,0.1-19.8l-1.6-1.5c0-22.8,1.8-6.6,1.4-27.7
		c-2.3-8.2,0.2-35-1-42.3c0.2,0.2,0.2-10.2,1-9.5c-1.2-3.2-0.3-10.6-0.6-17.1c-0.3-2.4-0.4,1.7-0.7,3.5l-0.4-14.9
		c0.4-5.8,1.1-7.3,1.2-0.9c0.1-15,0.4-51.8,0.7-93.9c0.1-21,0.2-43.3,0.3-64.8c0-11.8,0.1-23.4,0.1-34.5c0-14.5,0-28.5,0-41.9
		c0.3,0,0.6,0.1,0.9,0.2l0.4,0.1l0.2,0.1h0.1l0.5,0.1l4.6,1.2l11.2,3l7.9,2l9.1,2.3c6.5,1.6,13.7,3.3,21.5,5.3
		c15.8,3.7,34.1,7.9,54.2,12.1c40.2,8.4,87.5,16.6,134.8,23c47.2,6.3,94.3,11,133.7,14.8c19.7,1.9,37.4,3.7,52.3,5.4
		c14.9,1.7,26.8,3.4,35.2,4.8c9.3,1,18.4,2.6,27.5,4.8c4.4,1.1,8.7,2.4,13,4c3.8,1.4,7.4,3.1,10.9,5.2c3,1.9,18.4,6.6,18.4,6.6v0.4
		v1.2c0,2.5,0,5,0.1,7.4c0.1,4.9-0.5,21.6-0.4,26.2l-0.3-3.7c0,3.1-1.1,87.2,0,102.2c0,0.2,0,0.5,0,0.7l0-0.1c0,0.2,0,0.3,0,0.5
		c-0.2,79.8-0.6,178.8-0.3,207.7l0.2-6.2c0.9,40.3-0.7,34.8-1.2,66.5c1.6-4.2,2.5,30.3,2.7,43.5l-0.3-0.5c0.2,13,0.8,36.8,1.3,60.9
		c-0.7,33.7-1.6,69.9-2.4,106.1c-0.8,35.6-1.6,71.3-2.2,104.6c-2,25.1-4,51.6-4.3,77.6c-5-3.4-10.3-6.5-15.7-9.2h0.4
		c-8.7-4.4-17.8-8-27.2-10.6c-8.2-2.4-15.8,3.4-23.2,2.1c-14.8-2.6-29-4.1-46.7-6.3h3.8c-6.2-0.9-15.5-1.7-26-2.2l-33.3-1.7
		c6.3,0.4,11.8,1.3-1.5,1c-25.5-1.3-42.8-0.6-61.3-1.4l-17.7,1.1l-43.9,0.2c-17.9,0.1-38.8,0.1-61.5-0.3
		c-22.7-0.4-47.3-1.2-72.5-3.4s-51-5.6-75.4-11.9c-6.1-1.6-12-10.7-17.9-12.7c-1.5-0.5-2.9-1-4.3-1.5c-1.4-0.5-2.8-1.1-4.2-1.6
		l-2.5-1l-0.4-0.2c-0.1-0.1-0.4-0.1-0.3-0.3v-0.9c0-5.5,0-10.9-0.1-16.2c0-4.6-0.3-9.1-0.9-13.6c0-0.7,0.1-1.3,0.1-2
		c-0.2-1.2-0.3-0.8-0.3,0.2c-0.2-1.7-0.5-3.4-0.7-5.1C242.9,1048.5,242.6,1043.3,242.9,1038.4z M172.5,1146.4
		c-3.3,3.4-6.5,6.9-10,10.2l-1.8,1.8c-0.9,0.9-1.8,1.8-2.7,2.7c-1.9,1.7-3.7,3.5-5.7,5.1l-2.2,2c0-1.2,0.1-2.4,0.1-3.6l0.2,0.2
		c1-23.9-1.5-36.6-0.5-58.5l0.3,2.4c0.6-7.7-0.2-23,0.4-36.9c-0.2,4-0.9,7.4-1.1-0.9c0.6-16,0-27,0.8-38.7l-1-11.2
		c0.2-55.8-1.2-276.3-1.4-332.4l0.2,2.2c-0.1-42.7-0.3-107.9-0.6-173.5c-0.1-32.8-0.3-65.7-0.4-95.8c-0.1-15.1-0.2-29.5-0.3-42.9
		c-0.1-6.7-0.1-13.1-0.2-19.2c0-0.6-0.1-1.1-0.1-1.7c0-0.3,0-0.5,0-0.8c0.1-0.3,0.4-0.4,0.6-0.5c0.4-0.1,0.8-0.1,1.1-0.3
		c0.1,0,0.1,0,0.2-0.1c-0.5,0.4,0.3-0.2,0.7-0.4c0.9-0.6,1.8-1.2,2.6-1.8c1.6-1.2,3.4-2.5,4.9-3.8c3.2-2.6,6.1-5.3,9-8
		c5.6-5.4,10.7-11,15.1-15.8c-2.9,3-4.1,3.8-3.9,3.3c1.1-1.7,2.4-3.3,3.8-4.8c7.5-8.6,11-13.1,12.9-15.6c1-1.2,1.5-1.9,1.8-2.4
		l0.2-0.3c0,0,0-0.1,0-0.1c0,0,0-0.1,0-0.1c0-0.4-0.2-0.5,2.8-4.9c0.5-0.7,1.1-1.6,1.7-2.6c0,1.4,0,2.8,0,4.4
		c0.2,38.3,1.8,57,1.3,78.2c0.2-3.7,0.8-8.9,1-0.2c-1.1,1.7,0.8,27.1-0.3,32c0.1,10,0,42.2,1.5,31.3c-0.7,5.5-1,34.3-1.7,17.1
		c0,9.7-0.3,19.1,0.1,26.1l0.4-12.5c0.2,32.8-0.9,50.7,0.4,72.1l0.6-12.1c0.1,19.6,0.2,36-1.2,43.7l-0.5-20.1
		c0,32.5,0.1,52.2,0.9,79.2v-9.7c0.7,16.4,1.3,66,2,116.9c0,7.1,0,12.7,0.1,16.5l0.1-1.6c0.1,5.9,0.2,11.9,0.2,17.7
		c-0.3,6.5-1,10.1-1.3,22.3c0.7-1.2,1.3,2.5,1.7,7.7c0.5,31.4,1,57.2,1.6,67.5l0.4-5.5c0.1,3.9,0.2,7.8,0.3,11.5
		c-0.8-3.1-1.8-6.4-1.9-8.3c0.1,28.8,0.2,111.6,0.4,196.6l-1.9,18.3l0.3,3.6c0,0,0.6,0.8,1.6,2v9.4l0.1,1.8
		c-1.3,0.7-2.5,1.6-3.5,2.7l-0.7-0.6l-0.7,1.6l-0.7,1.6c-0.8,1.4-1.5,2.8-2.1,4.3c-0.4,1-0.6,1.3-0.9,1c1-1.8,2-3.5,2.8-5.2
		c-2.1,3.8-1.2,0.8-1-0.8c-0.4,0.8-0.8,1.6-1.3,2.3c-0.4,0.7-0.9,1.4-1.4,2c-0.1,0.9,0.6-0.4,1.1-0.9c-0.4,1.1-0.8,2.5-1.3,3.9
		c-0.6,1.4-1.3,2.8-2.2,4c-2.4,3.9-1.4-0.5-4.3,4C184.8,1132.1,178.9,1139.5,172.5,1146.4z M755.7,1209.1c-1.4-0.2-2.8-0.4-4.3-0.7
		s-3-0.5-4.4-0.9c1.7,0.4,3,1.4-0.6,1c-6.7-1.6-11.4-1.7-16.3-3.2l-4.9,0.4c-11.8-1.8-41.1-4.8-70.3-6.9s-58.4-3.4-70.2-3.9l0.9-0.1
		c-18-0.7-45.5-1.9-73.1-2.4s-55.3-0.8-73.9-0.3c-5.7-1-13.7-0.9-19.6-1.2c3.3,0.4,2.2,1.1-0.4,1.1c-18.2-0.2-1.2,0.7-19.7,1
		c-10.6,0.4-36.2,0.3-61.6,0.3s-50.3-0.2-59.8-0.5c-10.1,1.6-22.7,0.7-32.6,1.8l1-0.4c-5.3,0.4-23,0.5-41,0.8l-6.7,0.1h-3.3h-0.7
		h-2.7c-1.3,0-2.5,0-3.8,0.2c0,0.1,0.1,0.1,0.1,0.2c-1.8,0.6-2.3,0.2-2.1-0.4c0.4-0.7,0.7-1.4,0.9-2.2c-1.1,0.6-2.4,0.8-3.6,0.3
		c-0.6-0.2-0.9-0.9-0.7-1.5c0,0,0-0.1,0.1-0.1l0.6-0.1l0.8-1.6c0.4-0.9,0.9-1.7,1.5-2.5c0.4-0.6,0.9-1.2,1.3-1.7l0.8,0.5
		c0.3-0.6,0.7-1.2,1.1-1.8l0.2-0.2l0.1-0.1h0l0.1-0.1c0.4-0.5,0.9-1,1.3-1.4l2.8-2.9c3.6-3.9,7-7.6,8.8-9.7l7.2-8l3.9-4.7l2-2.5
		l2-2.6c5.6-7.2,10.3-15,14-23.2c0.3-0.4,0.6-0.7,0.9-1.1c0.3,0.1,0.7,0.3,0.8,0.4l2.1,0.8c1.4,0.6,2.8,1.1,4.2,1.6
		c1.4,0.5,2.8,1,4.2,1.5c5.6,1.9,11.1,3.7,16.6,5.2c22,6.1,43,9.6,62,12s35.8,3.7,49.7,4.5c13.9,0.9,24.7,1.3,31.5,1.6
		c22.1,1.3,3.9,1.9,3.7,2.1c13.5,0.2,16.4-0.1,18.8-0.3s4.3-0.3,15.7-0.2c6.2,0.3-1.3,0.9-4.8,1c10,0,19.2,0.4,20-0.1
		c-12.5-0.5-7.2-1.9-12.5-2.8c9.8,0.1,19.5,0.2,29.2,0.2l-1.3,0.9c6.5,0,16.5-2.4,45.1-2.1c24.1,0.1,49.1,0,74.1,0.4
		s49.8,1.3,73.2,3.8c-0.8,0.4-10.7-0.2-20.6-0.5c6.3,0.4,16,1.1,21.7,2.1c-5.6-1-0.7-0.7,4.5-0.2s10.7,1.2,6.3,0.4
		c17.1,1,36.5,4.3,53.7,10.3c8.1,2.7,15.9,6.3,23.3,10.7c5.9,3.6,11.3,8.1,15.9,13.2c0.4,0.1,0.8,0.2,1.1,0.3
		c0.5,0.2,1.3,0.5,2.2,0.8c0.7,0.3,1.5,0.6,2.3,1.1l-0.7,10.1l0.2,5.7c0.1,0.2,0.2,0.4,0.3,0.5c-4.1-0.4-8.1-0.6-12.9-2l1.1-0.2
		C760.3,1209.9,758,1209.4,755.7,1209.1z M1391.7,1190c0.1,0.1,0,0.2-0.1,0.2c-1.2,0.1-2.5,0-3.7-0.1c0,0.5,0,1.1-0.1,1.6h-0.5h-0.2
		h-0.1h-0.3c-0.6,0-1.2-0.1-1.8-0.3c-0.6-0.1-1.1-0.3-1.5-0.6c-0.6-0.4-1.1-0.8-5.7-0.8c-3.7,2.2-15.2-0.7-18.5,0.3
		c0.1-0.2-4.4-0.4-4.1-1.1c-1.4,1.2-4.6,0.1-7.5,0.3c-1,0.3,0.7,0.4,1.5,0.8l-6.5,0.2c-2.5-0.5-3.1-1.2-0.4-1.3
		c-8.5-0.5-33.2-1.8-58-2.8s-50-1.8-59.2-1.7c2.3,1,8,0.5,10.2,2c-4.9,0.7-7.2-0.4-9.3,0.4c-1.8-2.2-10.7-0.8-14.3-3l-1.4,1.2
		l-2.4-0.8c-21.4,0.9-4.9,0.5-23.9-0.1c-10.8,0-16,1.6-21.9,1c1,0.2,2.5,0.8,0.1,1c-0.5-1.1-7.6,0.7-9-0.4
		c-2.8,0.1-11.8-0.1-8.8,1.4c-1.5-0.8-9.6-1.1-4.8-1.7c-2.4-0.2-4.9-0.2-7.3,0l3.5,0.4c-9.2,0.2-14.2-1-20.2,0.3l3.4,0.6
		c-5.5,0.1-10.1,0.2-12.2-1.3l5.6-0.5c-7.4-0.1-14.8,0.3-22.2,1h2.7c-2.4,0.4-7.4,0.7-13.6,1.2l-21.2,1.3c-7.5,0.5-14.9,1-21.1,1.5
		c-4.4,0.3-8.8,0.8-13.2,1.6l4.1,1l-7.6,1.2c0.8,0,3.1-3.1,4.1-3.4c-4.2,0.1-12.5,0.4-22.8,0.9c-5.3,0.2-11.1,0.4-17.2,0.8l-18.8,1
		c-6.3,0.3-12.7,0.8-18.7,1.2l-8.8,0.5l-8.2,0.6l-13.7,0.9c-3.8,0.3-6.8,0.5-8.8,0.6c-6.2-0.1-4.3-0.4-10.7,0.1
		c-1.8,0-2.1,1.2-0.6,2c-2.7,0.2-5.5,0.4-8.2,0.7l0.3-0.9c-1.8,0.2-4.4,2.9-12.4,3.3c-13.6,1.1-28.2,3.4-41.9,5.3
		c0.1-0.6,2.9-1.3,5.8-2c-2.1,0.4-4.2,0.6-6.3,0.7c3.4,0.4-5.6,1.5-3,1.5c-4.7,1.9-10.2,2.9-15.6,3.9c-0.5-3.2-1.2-5.9-1.9-7.8
		c-0.1-0.3-0.1-0.5-0.2-0.7c1.2-2.6,2.7-5,4.4-7.3c2.4-3.2,5.2-6.1,8.2-8.7c3.4-2.8,7.1-5.4,10.9-7.6c8.8-4.9,18.1-8.9,27.8-11.7
		c10.7-3.1,21.6-5.6,32.6-7.3c11.4-1.9,23.2-3.4,35.2-4.5c24.1-2.2,49.1-3.2,74.2-3.7c25.1-0.4,50.4-0.3,75.3-0.1s49.3,0.5,72.8,0.4
		s46-0.5,67-1.5s40.6-2.7,58-5c12.4-1.1,24.7-2.9,36.9-5.3c12-2.4,23.9-5.5,35.6-9.3c0.4,0.8,0.7,1.6,0.9,2.3c0.8,0.9-0.1-1-0.3-1.9
		c1.7,2.8,4.7,6.1,6.3,9.7c3.1,5.1-1,1.1,2.7,7c7.4,11.5,15.6,22.5,24.7,32.7l6.6,7.2l-0.2-0.2v0.1l0.1,0.1l0.2,0.3
		c0.1,0.3,0.3,0.5,0.5,0.8c0.3,0.3,0.6,0.6,0.9,0.8c-0.8-0.2-0.8-0.3-1.3-0.4c0.4,0.2,0.9,0.4,1.3,0.6c0,0.1-0.1,0.1,0.1,0.3
		c-1-0.4-2.2-1-3-1.4C1391.3,1189.6,1391.5,1189.8,1391.7,1190z M1445.5,1184.7l-6.5-4.7c-1.9-1.6-3.6-3.1-5.2-4.5l1.4,0.1
		c-2.7-2.1-5.8-4.7-9-7.5l-4.9-4.3c-0.4-0.4-0.8-0.8-1.2-1.1l-1-1l-1.3-1.3c-3.4-3.6-6.6-7-8.2-8.9c-7.6-9-17.2-24.2-25-36.9
		l-0.6-2.5c-0.2-0.8-0.3-1.6-0.4-2.4l-0.4-2.3c-0.1-0.8-0.2-1.5-0.3-2.3l-0.7-1.1c0,0-0.1,0-0.3,0c-0.1-2.8-0.1-5.2-0.2-7.2
		c0-2.4-0.1-4.3-0.2-5.9c0-0.9-0.1-1.6-0.1-2.2c0-1.1-0.2-2.1-0.4-3.2c-0.1-0.4-0.1-0.9-0.2-1.9c0.1-0.9,0.3-1.8,0.4-2.8l0.9,0.8
		l-0.1-10c0.4-12-0.6-17.5,0.3-16.7l-0.1,16.4c0.2-12,0.7-3.6,1.2,1c0.1-5,0.2-9.9,0.5-13.9c-0.3-2.4-0.4,1.8-0.6,3.6
		c-0.3-6.5-1.2-15.5-0.7-23.3c0.1-12.3,1.4-0.8,1.5-15.2c0.7-75.8,1.7-149.2,1.5-225.8c0.4-1.8,0.4,0.3,0.5,2.5
		c-0.4-23.1-0.2-43.6-0.6-64.6c0.1-3.1,0.6-6.2,1.3-9.2c-0.4,1.7-0.6-27.3-0.7-57c0-14.8,0-29.8,0-41.3s0-19.2,0.1-19.7l-1.6-1.5
		c0-22.7,1.8-6.6,1.4-27.6c-2.3-8.2,0.2-34.9-1-42.2c0.2,0.2,0.2-10.1,1-9.5c-1.2-3.1-0.3-10.6-0.6-17.1c-0.3-2.3-0.4,1.7-0.7,3.5
		l-0.4-14.9c0.4-5.8,1.1-7.2,1.2-0.9c0.2-19.4,0.6-75.7,0.9-132.4c0.1-14.2,0.1-28.4,0.2-42c0-3.4,0-6.8,0-10.1c0-1.6,0-3.1,0-4.7
		v-0.1V309c0-0.1,0-0.2,0-0.3c0-0.1,0-0.2,0-0.3c0-0.1,0.6,0.2,0.6,0.2h0.2l0.1,0.1l0.5,0.5l0.2,0.2l0.1,0.1l0.3,0.4l2.4,2.8
		c2.7,3.2,3.5,4.1,4.2,5c0.7,0.9,1.2,1.6,3.4,4.3c1.1,1.4,2.6,3.2,4.8,5.8c2.2,2.6,5.1,5.9,9.1,10.2c4.1,4.2,8.4,8.2,12.9,12
		c2.1,1.7,4.2,3.4,6.3,4.9c0.5,0.4,1,0.8,1.6,1.1l1.6,1.1l0.8,0.5l0.4,0.3l0.2,0.1l-0.1-0.1l-0.1-0.1v-0.1h0.1h0.6
		c0.2,0,0.4,0.1,0.5,0.2c0.1,0.3,0.1,0.7-0.1,1c0-0.1,0.2-0.3,0.4-0.4s0.5-0.2,0.7,0.2c-0.1,0-0.2,0.1-0.3,0.2c0,0,0,0,0,0v0.1
		c0,0.4,0,0.8,0,1.2c0,1.7,0.1,3.9,0.2,6.2c0.2,4.6,0.4,9.4-0.2,10.9c0.1,6.3,0,26.8,1.5,19.9c-0.7,3.5-1,21.8-1.7,10.9
		c0,6.2-0.3,12.2,0.1,16.6l0.4-7.9c0.2,20.8-0.9,32.2,0.4,45.8l0.6-7.7c0.1,12.5,0.2,22.9-1.2,27.8l-0.4-12.8
		c0,20.7,0.1,33.1,0.9,50.4v-6.2c1.5,22,2.7,136.8,4.5,157l1.1-9.3l1,17.4c0-1.9-3-7.3-3.3-9.5c0.1,38.6,1,230.8,0.2,265
		c-0.6,13.9-1.8,2.5-2,2.3c0.4,16.9,1.2,7.3,1.1,21.7c-0.2,3.9-0.9-0.8-1-3c0.1,6.3-0.3,12.1,0.3,12.6c0.4-7.9,1.8-4.5,2.7-7.9
		l-0.1,18.5l-0.9-0.8c0,4.1,2.4,10.5,2,28.6c-0.4,30.6-0.1,63.9-0.3,94.7c-0.5-0.5-0.8-6.9-1.2-13.4c0,4.1,0.1,10.4-0.3,14.2
		c0.9-7.4,0.6,12.9,1,7.1c2.2,22.6,0.2,51.8,1.7,71.7c0.5,0.4,2.3,3,4.9,6.6L1445.5,1184.7z"/>
	<path d="M109.6,675.3c0-0.2,0-0.4,0-0.6C109.5,674.9,109.6,675.1,109.6,675.3z"/>
	<path d="M105.1,361.1c-0.1,0.6-0.1,1.2-0.1,1.5C105.1,362.1,105.1,361.6,105.1,361.1z"/>
</g>
</svg>
