<svg xmlns="http://www.w3.org/2000/svg" viewBox="0 0 1600 1600"><style>path {fill: #000;}</style><path d="M835,670.72c-99.19-42.46-177.9-54.63-355.79,89.55-61,49.42-214,87.39-267.35,181.21C96.3,1144.91,363.49,1344.89,584.05,1208.07c98-60.8,146.41-98.22,298-18.38,172,90.59,388.54,46.67,389.75-138.94,1-145.35-129.09-153-243.24-228C930,758,867.47,684.61,835,670.72Z"/><path d="M435.52,569.23c-17.1-60.93-98.46-51.42-173.92-20.46C198,574.86,117.65,648,144.72,734.37,207.67,935.26,478.08,721,435.52,569.23Z"/><path d="M595.1,578.56c-112.26-79-75.26-180.49,25.9-222s258.26,54.36,140.29,215.29C735.51,607,659.81,624.11,595.1,578.56Z"/><path d="M964,568.22c-43-61.14-2.85-147,66.78-150.26,54.1-2.56,117.89,12,153,57.93C1280.07,601.81,1117.6,786.62,964,568.22Z"/><path d="M1459.92,757.42c-14.33-129.35-291-163.33-264.29,16.23,13.74,92.33,115,86.27,182.53,72.18C1423.58,836.34,1467,821.18,1459.92,757.42Z"/></svg>