<?xml version="1.0" encoding="utf-8"?>
<svg xmlns="http://www.w3.org/2000/svg" viewBox="0 0 1600 1600"><style>path {fill: #000;} .st0 {fill: #fff;}</style>
<path class="st0" d="M1198.5,361.6h-797c-110.5,0-200,89.5-200,200v698.6c0,58.6,47.5,106.1,106.1,106.1h984.8
	c58.6,0,106.1-47.5,106.1-106.1V561.6C1398.5,451.1,1309,361.6,1198.5,361.6z"/>
<path d="M435.5,483.9L435.5,483.9L435.5,483.9L435.5,483.9z"/>
<path d="M551.8,1142.2h0.8C552.4,1142.2,552.1,1142.2,551.8,1142.2z"/>
<path d="M1031.1,1129.4c-0.4,0-0.9-0.1-1.2-0.1L1031.1,1129.4z"/>
<path d="M1048.2,508.7h-0.9C1047.6,508.7,1047.9,508.7,1048.2,508.7z"/>
<path d="M1265.7,948.9c-0.2,6.1-0.9,11.4-1.1-1.5c0.6-24.5,0-41.2,0.8-59.1l-1-17.2c0.1-42.7-0.2-148.2-0.6-253.9l-0.1-19.8
	c0-7.9-0.8-15.8-2.3-23.6c-5.8-30.3-22.3-57.5-46.6-76.6c-5.6-4.4-11.6-8.4-17.9-11.8c-6.1-3.3-12.4-6.1-18.9-8.4
	c-6.2-2.2-12.6-3.9-19.2-5c-6.2-1.1-12.4-1.8-18.7-2l-4.5-0.1h-3.7h-7.2h-13.7l-42.9,0.1l3.4-0.2C941,470.4,673,470.3,538,471.7
	c-20.9-1-49.7-0.8-71.4-1c12.1,0.4,8,1.1-1.5,1.1h-0.8h-0.9h-1.8l-3.3,0.1c-2.2,0.1-4.2,0.3-6.1,0.4s-3.6,0.4-5.3,0.6
	s-3.1,0.5-4.5,0.7s-2.7,0.5-3.9,0.7l-3.2,0.8l-2.7,0.6l-2.2,0.6c-1.7,0.4-3.3,1-4.9,1.6c-0.5,0.2-1,0.4-1.5,0.7
	c-0.5,0.3-1,0.5-1.5,0.7c-0.9,0.4-2.3,1-4.9,2l-2.1,0.9l-2.5,1.2l-3,1.4l-3.5,1.8c-6.8,3.6-13.2,7.9-19.2,12.6
	c-5.2,4.1-10,8.7-14.5,13.5c-0.6,0.7-1.2,1.3-1.8,2c-3,2.9-5.9,6-8.6,9.2l-2.2,2.7c-0.7,0.9-1.4,1.9-2.1,2.8s-1.4,1.9-2.1,2.8
	l-2,2.9c-1.4,1.9-2.6,3.9-3.8,5.9s-2.3,4-3.5,6V547c-4.8,8.8-8.3,18.3-10.4,28.2c-0.5,2.2-0.8,4.5-1.2,6.7s-0.5,4.3-0.7,6.5
	s-0.2,4.3-0.3,6.4c0,1,0,2.1,0,3.1c0,0.9,0,1.7,0,2.6c0.1,13.6,0.3,26.8-0.5,43.5l-0.3-3.6c-0.4,5.9-0.5,14.7-0.5,24.6
	s-0.1,21.1-0.5,31.8c0.2-6.1,1.1-11.4,1.1,1.5c-0.8,24.5,0,41.2-0.8,59.1l1.2,17.2c0.1,21.3,0.7,58.4,1.6,103.3
	c0.4,22.5,0.9,46.9,1.3,72.3c0.2,12.7,0.4,25.7,0.6,38.7c0.1,6.5,0.2,13.1,0.6,19.7s1,13.2,1.5,19.8v0.4c0,1.5,0,3.1,0,4.6
	c0,5,0.1,9.9,0.1,14.7c0.1,5.4,0.5,10.9,1.3,16.2c-0.3-1.4-0.6-2.8-0.8-4.2c0.9,8.7,2.7,17.2,5.3,25.6c9.4,29.7,29.6,54.8,56.5,70.4
	c8.1,4.7,16.6,8.5,25.5,11.2c9.1,2.8,18.5,4.6,28.1,5.3c2.4,0.2,4.8,0.2,7.2,0.3h1.8h4.6h12.2l24,0.1l44.6,0.1
	c27.5,0,49.7,0,60.9-0.1l-6.1-0.2c14.8-0.3,23.3-0.3,29.8-0.2l13.3,0.6c22.8,1.1,46.7,2.2,71.1,3.1s49.5,1.5,74.5,1.9
	c50.1,0.7,100.3,0.8,146.5,0.3s88.2-1.7,121.9-2.9c20.9,0.6,49.7-0.5,71.4-0.8c-12.1-0.1-8-0.9,1.5-1.1h0.8h0.9l1.8-0.1l3.3-0.2
	c2.2-0.2,4.2-0.4,6-0.6s3.6-0.5,5.2-0.8s3.1-0.6,4.5-0.9s2.6-0.6,3.8-0.9l3.2-0.9l2-0.6l-1.9,1.6c-1.7,1.5-2.8,2.5-2.7,2.8
	c-5.3,1.1-10.6,1.8-15.9,2.2l-3.3,0.2c-1,0-2,0-2.8,0c-1.7,0-3.1,0-4,0c1.8,0.2,3.6,0.2,5.4,0.2c1.3,0,2.9-0.1,4.6-0.2
	s3.5-0.2,5.3-0.4c7.3-0.8,14.6-2.3,21.6-4.6c0.5-0.6,1.1-1.2,1.6-1.8c3.2-1.1,5.7-2,7.6-2.8s3.4-1.3,4.4-1.8c1.2-0.5,2.4-1,3.6-1.3
	c1.2-0.3,2.4-0.8,3.5-1.3c3.8-1.8,7.5-3.8,11-6.1c0.9,0-3.8,3.6-11.5,7.7c-1.9,1.1-4.1,2-6.3,3.1c-1.1,0.5-2.3,1-3.5,1.5
	s-2.4,1-3.7,1.5c-2.6,0.9-5.1,1.8-7.8,2.6c-1.3,0.4-2.7,0.8-4,1.1l-4,1c9.2-1.9,18.1-4.8,26.7-8.6c7.6-3.5,13.5-7.2,16.6-9.9
	c7.7-5,7.4-4.7,7.6-4.4c0.1,0.1,0.2,0.2,1.5-0.6c0.6-0.4,1.6-1,2.9-2s2.9-2.3,5.1-4.2c6.4-6.2,12.2-13.1,17.3-20.4
	c5.3-7.9,10-16.2,14-24.8v0.4c4.2-9.2,7.1-18.9,8.8-28.8c0.4-2.2,0.7-4.5,0.9-6.7s0.4-4.3,0.5-6.5s0.2-4.2,0.2-6.3v-3.1
	c0-0.8,0-1.7-0.1-2.6c-0.4-13.6-0.8-26.8-0.3-43.5l0.3,3.6C1265.9,993.5,1265.1,970.2,1265.7,948.9z M1161.5,1128.8
	c-4.4,1-7.7,1.6-10.1,1.9l-3,0.4l-2.1,0.2c-1.1,0.1-1.8,0.2-2.4,0.2h-3.8l-2.5-0.1l-29.9-1.2c-37.6-1-55.8,0.4-76.6-0.7
	c3.6,0.2,9.3,1.1,0.5,1.2c-1.7-1.3-26.4,0.3-31.2-1c-9.7-0.1-41.2-0.6-30.5,1.3c-5.3-1-33.4-1.5-16.7-2.2
	c-9.5-0.1-18.7-0.5-25.5-0.1l12.2,0.6c-32,0.1-49.4-1.2-70.3,0.5l11.8,0.6c-19.1,0.2-35.1,0.5-42.6-1.2l19.6-0.7
	c-15.9,0.2-28.6,0.3-40.6,0.6s-23.5,0.7-36.7,1.4l9.4-0.1c-4.8,0.3-12.7,0.7-22.6,1.2c-34.3-0.1-68.8-0.2-103.7-0.1
	c-2.7-0.4,0.5-0.4,3.9-0.5c-35.4,0.4-66.9,0.2-99.1,0.6c-4.7-0.1-9.4-0.6-14-1.3c2.7,0.4-41.8,0.6-87.4,0.7h-3.3h-0.9l-3.4-0.1
	c-2.2-0.2-4.4-0.3-6.6-0.6c-4.3-0.5-8.5-1.4-12.6-2.6c-3.9-1.1-7.7-2.5-11.4-4.2l-1.3-0.6l-1.3-0.7c-0.8-0.4-1.7-0.8-2.5-1.3
	c-1.6-0.9-3.2-1.8-4.6-2.7c-4.7-3-9.1-6.5-13.1-10.3c-1.7-1.6-3.3-3.2-4.7-5l-2.4-0.3c-2.9-3.4-5.5-7.1-7.6-11
	c-0.7-1.3-1.2-2.6-1.6-4c-0.3-1.3-0.7-2.5-1.3-3.7c-0.7-2-2.3-5.2-4.3-11.1c-0.7-1.4-1.4-2.8-1.9-4.3c-0.3-0.9-0.6-1.8-0.9-2.8
	s-0.5-2.1-0.7-3.2c-0.1-0.6-0.2-1.1-0.3-1.7l-0.2-1.8c-0.2-1.2-0.3-2.4-0.4-3.7s-0.2-2.6-0.2-3.9c0-0.7,0-1.3,0-2s0-1.2,0-2.1
	c0.2-13.2,0.5-26.2-0.1-31.8c0.2,0.2,0.2-15.5,1-14.5c-1.2-4.8-0.3-16.2-0.6-26.2c-0.4-3.6-0.4,2.7-0.7,5.3l-0.4-22.8
	c0.4-8.9,1.1-11.1,1.3-1.4c0.2-29.8,0.6-116.2,0.9-203.2c0.1-43.5,0.2-87.1,0.3-123.9c0-9.2,0-18,0-26.2v-3c0-1,0-2.1,0-2.8
	s0-1.5,0.1-2.3c0-0.4,0-0.8,0-1.1l0.1-1.1c0.2-2.9,0.5-5.7,1-8.5c0.8-4.9,2-9.6,3.7-14.3c1.3-3.5,2.8-7,4.5-10.4
	c-2,2.6-4.3,7.6-6.1,12.7s-3,10.3-4.2,13.2c0.4-5.2,1.6-10.4,3.5-15.3c0.3-1,0.7-1.8,1-2.7s0.6-1.6,0.9-2.4c0.7-1.5,1.2-2.9,1.6-4.4
	c2.1-1.9,5.6-8.3,10.7-14.5c5-6.2,11.6-11.9,16.2-14l2.4-3.2c2-1,4-2,6-2.8c4.9-3,10.2-5.5,15.7-7.3c3.2-1.1,6.4-2,9.7-2.7l3-0.6
	l2-0.3c1.1-0.2,1.8-0.3,2.4-0.3l2.1-0.1l1.7-0.1h2.5l29.9,0.2c37.5-0.2,55.7-1.8,76.5-1.3c-3.6-0.2-9.1-0.8-0.4-1
	c1.7,1.1,26.4-0.8,31.2,0.3c9.7-0.1,41.2,0,30.5-1.5c5.3,0.7,33.4,1,16.7,1.7c9.5,0,18.7,0.3,25.5-0.1l-12.2-0.4
	c32-0.2,49.4,0.9,70.3-0.4l-11.8-0.6c19.1-0.1,35.1-0.2,42.6,1.3l-19.6,0.5c31.7,0,50.8-0.1,77.3-0.9h-9.4
	c33.7-1.5,209.9-2.7,240.9-4.5l-4.8-0.4c1.4,0,4.8,0,9.6,0c-2.3,0.7-4.7,1.3-7.1,1.6l79.5-0.2h7c1.3,0,2.1,0,3.2,0s2,0,3,0.1
	c2,0.2,4.1,0.2,6.1,0.6c1,0.1,2.1,0.2,3.1,0.4l3.1,0.5c8.5,1.7,16.7,4.6,24.3,8.6c4,2.1,7.8,4.5,11.4,7.1c2.1,1.6,4.2,3.2,6.1,5
	c0.9,0.9,1.8,1.7,2.6,2.5c1.8,1.7,3.4,3.5,5,5.4l0.4,0.1c1.8,2.1,3.5,4.2,5.2,6.4c2.4,3.3,4.6,6.8,6.5,10.5c0.4,1.2,0.8,2.3,1.3,3.4
	c0.8,2.2,2.5,5.5,4.5,11.9c0.7,1.5,1.3,3.1,1.8,4.7c0.2,0.8,0.4,1.6,0.7,2.5c0.4,1.7,0.7,3.3,1,5c0.6,3.8,1,7.7,1.1,11.6
	c0,0.4,0,0.8,0,1.3c0,0.7,0,1.3,0,2.2c-0.1,7.9-0.1,15.8,0.1,22c0,18.2,0,35.6,0,51.5c0,36.2-0.1,64.7-0.3,77.9
	c-0.6,21.3-1.8,3.8-2,3.6c0.4,25.9,1.2,11.2,1.1,33.2c-0.2,6-0.9-1.2-1.1-4.6c0.1,9.7-0.3,18.6,0.3,19.4c0.4-12.1,1.8-7,2.7-12.1
	l-0.1,28.4l-0.9-1.3c0,6.3,2.4,16,2,43.9c-0.4,47-0.1,98.1-0.3,145.3c-0.5-0.7-0.8-10.7-1.2-20.6c0,6.3,0.1,16-0.3,21.8
	c0.9-11.4,0.6,19.8,1,10.9c0.5,8.7,0.8,17.9,1,27.5v1.8c0,0.6,0,1.2,0,1.7c0,1,0,2.1,0,3.1s-0.1,2.1-0.2,3.1s-0.1,2.1-0.2,3.1
	c-0.3,2.1-0.5,4.2-0.9,6.2s-0.8,4.1-1.3,6.1c-1,4-2.3,7.9-3.8,11.7c-0.7,1.9-1.6,3.7-2.4,5.5c-0.4,0.9-0.9,1.8-1.3,2.7l-0.7,1.3
	l-0.7,1.3c-1.6,2.9-3.3,5.6-5,8.1c-1,1.2-2.2,2.3-3.3,3.5c-6.1,6.2-13.9,11.5-19.1,13.4c-1,0.9-2,1.8-3,2.7
	c-2.2,0.9-4.4,1.8-6.6,2.4C1173,1125.5,1167.3,1127.4,1161.5,1128.8z"/>
<path d="M568.8,513.2h1.3H568.8z"/>
<path d="M1328.1,1292.8l0.4-0.4C1328.3,1292.5,1328.2,1292.6,1328.1,1292.8z"/>
<path d="M1320.4,1249.4L1320.4,1249.4C1320.4,1249.4,1320.4,1249.3,1320.4,1249.4z"/>
<path d="M1353.4,1238.1c0-0.7,0-1.5,0-2.3C1353.4,1236.6,1353.4,1237.4,1353.4,1238.1z"/>
<path d="M1352.7,1228.5c0-1.5,0.3-1.4,0.5-1.4s0.5-0.1,0.4-1.9c-0.5-2.5-1.9-5.5-2.1-8.4h0.2c-0.2-1.6-0.5-3.1-1-4.7
	c-0.4-1.3-0.9-2.5-1.5-3.8c-1.3-2.5-2.4-5.1-3.2-7.7l0.5,0.5c-0.5-2.3-2.9-6.1-4.6-10c0.4,1.1,0.4,2.3-0.9,0.2
	c-1.9-4.4-4.2-6.7-5.8-10c-0.9-0.7-1.8-1.4-2.7-2l-2.4-2.8c-0.9-1-2-2.2-3.2-3.4c-2.8-2.8-5.8-5.4-8.9-7.7c-3.8-2.8-7.8-5.4-12-7.5
	c-4.6-2.3-9.4-4.2-14.3-5.7c-4.9-1.5-10-2.5-15.1-3c-4.7-0.5-9.5-0.6-14.2-0.3c-6.8,0.4-13.5,1.6-20,3.5l0.6-0.3
	c-7.5,2.2-14.7,5.3-21.4,9.4c-4,2.3-7.8,5-11.3,8c-3.7,3.1-7.2,6.5-10.3,10.2c-6.1,7.2-11.1,15.3-14.6,24.1
	c-2.9,7.2-4.7,14.8-5.3,22.6c-1.4,3.8-1.5,9.3-1.6,13.4c0.3-2.3,1-1.5,0.9,0.3c0.2,6.2,0.6,6.4,0.8,6.6s0.2,0.2,0.4,1.1
	s0.5,2.4,1.1,5.5c1.3,5.5,2.9,10.9,5,16.2c1.5,3.6,3.1,7.1,5,10.5c2,3.6,4.3,7.1,6.8,10.4c2.5,3.3,5.2,6.3,8.2,9.2
	c2.7,2.6,5.6,5.1,8.6,7.4c1.4,1.1,2.8,2,4,2.9s2.5,1.7,3.7,2.4l3.1,1.8l2.5,1.3c1.6,0.5,3.3,1,5,1.7s3.5,1.2,5.2,1.8
	c3.3,1.2,6.8,2,10.3,2.4l-0.7,0.1c1.7,0.3,5.4,0.9,10.2,1.3c5.4,0.5,10.9,0.4,16.3-0.2c5.5-0.6,11-1.7,16.2-3.4
	c3.5-1.1,6.8-2.4,10.1-4l-1,0.3c1.5-0.8,2.6-1.5,3.5-1.9c0.7-0.3,1.4-0.6,2.2-0.9l2-0.7c1-0.4,2-0.8,2.9-1.3
	c-0.6-0.3,0.3-1.3,1.5-2.5s2.8-2.5,3.6-3.3l0.1,0.2c0.6-0.6,1.5-1.3,2.4-2.2s2-2,3-3.1s2.1-2.3,3.1-3.5l1.5-1.7
	c0.5-0.6,0.9-1.1,1.4-1.7l0.3,0.6l1.5-2c-0.1,0.4-0.4,0.9-0.7,1.2c0.6-0.5,1.5-0.7,1.1-1.4c0.7-0.3,0.6,0.7,1.5,0.3
	c0.3-0.6,0.2-1.7,1-2l0.1,0.1c1.7-0.8,0.9-2.7,2.4-3.5l0.1,0.3c0.7-0.2,0.9-1.4,1.9-1.9c-0.3,0.1-0.9,0-0.6-0.5
	c1.1-0.6,1.1-1.6,2.1-1.9l-0.2-1.1c2.2-3.3,4.1-6.8,5.7-10.4c1-2.2,1.8-4.6,2.5-6.6s1.2-3.6,1.4-4.6l0.1,0.2c1.1-3.9,2-7.9,2.7-11.9
	c0.6-3.9,0.8-7.9,0.5-11.8c0.6,0.2,1.2,0.4,1.8,0.5c0,1.4,0,2.7-0.2,4.1c0.4-0.4,0.7-3.9,0.3-5.8l-1-0.2c-0.6-4.2,0.6-1,0.1-5.2
	c0.4-0.2,0.7,0.7,1,2c0.2,1.6,0.4,3.2,0.5,4.8c0-1.5,0.1-3.1,0.1-4.4C1353.5,1230.4,1353.2,1229.4,1352.7,1228.5z M1315.8,1213.7
	c0.8-0.1,0.8,0.4,0.8,0.8C1316.4,1214.2,1316.1,1214,1315.8,1213.7z M1295,1286.6c-0.4,0-0.1-0.2,0.2-0.6c-0.8,0.7-1.7,1.2-2.5,1.7
	s-1.7,0.9-2.6,1.4l-2.6,1.2c-0.9,0.4-1.7,0.8-2.6,1.2c-0.6,0.1-1.3,0-1.8-0.3c0.4,0.2-4.5,1.9-9.8,2.5c-1.3,0.2-2.7,0.2-3.9,0.3
	s-2.4,0-3.5,0s-1.9-0.1-2.5-0.2s-1-0.1-1-0.2l-0.3,1.1c-2.1-0.2-2.3-0.6-2.5-0.9s-0.4-0.6-2.2-0.8c-0.5,0.3-1.1,0.4-1.7,0.3
	c-0.7-0.1-1.4-0.3-2.1-0.6c-0.7-0.2-1.4-0.6-2-0.8c-0.5-0.2-1-0.3-1.5-0.2c0.1-0.1-1.6-0.8-1.3-1.2c-0.8,0.7-1.8-0.6-2.9-0.8
	c-0.5,0.1,0.2,0.4,0.4,0.8c-0.9-0.2-1.7-0.6-2.5-0.9c-0.8-0.7-0.8-1.3,0.2-0.9c-2.7-1.5-5.2-3.3-7.6-5.2c-1.7-1.4-3.4-2.9-4.9-4.6
	c-1.6-1.8-3.1-3.7-4.5-5.6c-2.6-3.7-4.8-7.8-6.3-12.1c-1-2.8-1.8-5.7-2.5-8.6c-0.6,1.1,0.4,3-0.5,4.2c-0.2-0.3-0.4-0.7-0.6-1.1
	c-0.1-0.3-0.1-0.7-0.2-1c-0.1-0.6-0.1-1-0.6-1.3c0.8-0.6,0.8-1.6,0.7-2.7s-0.1-2.3,0.8-3.2l-1.1-0.4l0.6-1c-0.7-4-0.7-4.5-0.7-4.8
	s0.2-0.6,0.7-4.1c0.4-4-0.6-6.2,0.6-8.3c-0.1,0.3-1,1.1-1,0c0.5,0,0.5-0.7,0.6-1.5s0.2-1.6,0.7-1.7c0.2-1,1.7-4.2-0.1-3.6
	c0.4-0.2,1.1-0.9,1.5-1.4s0.8-0.7,0.7,0.3c0.6-0.7,1-1.6,1.2-2.5l-0.9,1c0.2-0.4,0.3-0.8,0.5-1.1s0.4-0.6,0.6-0.9
	c0.4-0.6,0.8-1.1,1.1-1.6c0.4-0.4,0.6-0.9,0.9-1.4c0.3-0.5,0.4-1.1,0.5-1.7l-1.2,0.8c1.1-1.8,2.1-3.2,3.7-3.1l-0.9,1.9
	c1.7-2.2,3.3-4.4,4.8-6.8l-0.8,0.7c0.7-1.8,4.5-6.2,9.2-9.8c2.2-1.7,4.5-3.3,6.8-4.7c1.1-0.6,2-1.2,2.8-1.7c0.6-0.4,1.2-0.8,1.8-1.3
	l-1.9-0.5c0.9-0.6,1.8-1.3,2.8-1.8c-0.4,0.1-0.4,3.3-0.7,3.6c2.8-0.9,5.7-1.6,8.7-2.1c4.7-0.7,9.5-0.9,14.3-0.4
	c4.7,0.5,9.4,1.5,13.9,3.2c2.8,1,5.5,2.3,8.1,4c1.8,1.7-0.5,1.6-0.6,1.8c0.7,0.3,1.4,0.5,2.2,0.5c0.3,0,0.6-0.1,1.7,0.7
	c0.5,0.5-0.6,0.6-1,0.5c1,0.5,1.6,1.4,2,1c-0.9-1.1,0.4-1.8,0.4-2.8c0.9,0.7,1.8,1.3,2.7,2.1l-0.7,0.5c0.3,0.2,1,0.1,2,0.2
	c0.5,0.1,1.1,0.3,1.6,0.5c0.7,0.3,1.2,0.8,1.7,1.4c2.1,2.1,4.1,4.4,6,6.7c-0.1,0.1-0.2,0.2-0.3,0.3c0.2-0.2,0.9,0.8,1.5,2
	c0.4,0.8,0.8,1.6,1,2.4l0.9-0.3l0.2,0.3c-0.2,0.5-1.1,0.5-0.6,1.1h0.1c0.4,0.6,0.7,1.2,1,1.9c-0.1,0.1-0.2,0.2-0.3,0.2
	c0.1,0,0.3,0,0.4,0l0,0c0.3,0.1,0,0.4,0.3,0.6s0.2-0.2,0.5-0.3c0,0,0.1,0.1,0.1,0.1l0.3,0.5c-0.2,0.3-0.7,0.4-0.8,0.2
	c0,0.4,0.1,1.3,0.3,2.3s0.3,2.2,0.3,3.5c0.1,1.9,0.3,3.9,0.6,5.8c0.7-0.3,0.2-0.8,1.2-1.1c0.6,0.4-0.2,0.7,0.5,0.9
	c-1.6,0.3-0.3,1.1-2,1.5l0.9,0.1l-0.6,0.3c1,2.1,0.5,0.5,0.3,2.3c0.1,1.1,1.4,1.7,0.9,2.3c0-0.1,0.6-0.3,0.8,0
	c-0.8,0,0.5,0.8-0.3,0.9c0.1,0.3-0.1,1.2,1,1c-0.6,0.1-0.9,0.9-1.3,0.4c-0.1,0.3-0.3,0.5,0,0.7l0.3-0.3c0,1-0.9,1.3,0,2.1l0.5-0.3
	c0,0.6,0,1-1.1,1.1l-0.2-0.6c-0.2,0.8-0.1,1.6,0.3,2.3l0.1-0.3c0.4,0.6,0.6,2.2,0.8,3.9c0,0.1,0,0.3,0,0.4c-0.1,0.8-0.3,1.6-0.6,2.4
	c0.2,0.5,0.3-0.3,0.5-0.6c0.1,0.5,0.1,1,0.2,1.6c-0.1,0-0.2-0.1-0.3-0.2c-0.1,0.4-0.3,1.3-0.7,2.3c-0.2,0.5-0.3,1.1-0.6,1.8
	s-0.5,1.2-0.7,1.9s-0.6,1.2-0.8,1.8c-0.2,0.6-0.5,1.1-0.8,1.6c-0.4,0.7-0.8,1.4-1.4,2c-0.8,0.3-1.2-0.6-1.3-0.7
	c-0.1,0.8,0.6,0.8,0.2,1.3c-0.2,0.1-0.6-0.4-0.6-0.5c-0.1,0.3-0.5,0.4-0.1,0.6c0.4-0.1,1.3,0.6,1.9,0.8l-0.6,0.7l-0.5-0.4
	c-0.1,0.2,1.3,1.4,0.5,2c-0.5,0.5-1,1.1-1.4,1.8c-0.5,0.6-0.9,1.2-1.4,1.8c-0.2-0.3-0.3-0.6-0.3-1c-0.1,0.1-0.2,0.4-0.6,0.4
	c0.8,0.2,0,0.8,0.4,0.8c0.6,1.9-1.5,2-1.3,3.4l0.3,0.3C1306.3,1277.8,1301,1282.7,1295,1286.6z"/>
<path d="M1250.2,1190.1L1250.2,1190.1C1250.1,1190.1,1250.2,1190.1,1250.2,1190.1C1250.2,1190.1,1250.2,1190.1,1250.2,1190.1z"/>
<path d="M334.9,1189.6c1,1,2.6,1.2,4.2,1.5C337.9,1190,336.4,1189.4,334.9,1189.6z"/>
<path d="M339,1191L339,1191z"/>
<path d="M329.1,1147.8c0.8,0,1.6,0,2.4-0.1L329.1,1147.8z"/>
<path d="M416.7,1213.9c-1-3.7-2.3-7.3-4-10.8l0.3,1.1c-0.9-1.6-1.5-2.8-2-3.7c-0.3-0.8-0.6-1.6-0.8-2.4c-0.2-0.7-0.3-1.4-0.6-2.2
	c-0.3-1.1-0.7-2.2-1.3-3.2c-0.5,0.7-1.7-0.2-3-1.4c-1.2-1.2-2.4-2.5-3.5-3.8l0.3-0.1c-1.8-2-3.7-3.8-5.7-5.6
	c-1.1-0.9-2.2-1.8-3.3-2.8c0.3-0.3,0.6-0.5,0.7-0.6c0.3,0.3,0.6,0.7,0.6,0.8c0.2-0.4-0.3-1.1-0.8-1.2l-0.7,0.6
	c-1-0.5,0.2-0.6-0.6-1.2c0.5-0.6,1.3-0.1,2,0.5c-0.5-0.6-0.7-1.5-1.5-1.1c-0.3-0.7,0.7-0.6,0.3-1.5c-0.6-0.3-1.7-0.2-1.9-1l0.1-0.1
	c-0.8-1.7-2.7-0.9-3.5-2.4l0.3-0.1c-0.2-0.7-1.4-0.9-1.9-1.9c0.1,0.3,0,0.9-0.5,0.6c-0.6-1.1-1.6-1.1-1.9-2.1l-1.1,0.2
	c-3.3-2.2-6.8-4.1-10.4-5.7c-1.9-0.8-3.8-1.6-5.5-2.2c-1.5-0.8-3.1-1.5-4.7-2.2c-5.2-2.2-10.8-3.5-16.4-3.8
	c-1.1-0.6-2.2-1.2-3.4-1.7l-3.5-1.5c-0.4,0-0.7,0.1-1.1,0.2c0,0-0.6,1.4-1.3,3.6c-0.8-0.2-1.7-0.3-2.5-0.4c0.5,0.3,0.4,0.8-0.1,0.8
	c-3,0-0.2,0.5-3.2,0.9c-1,0.2-2,0.3-3.1,0.4c0.2-0.6,0.3-1.2,0.5-1.8c0.6-2.1,1.1-4.2,1.5-6.4c1.4-0.1,2.9,0,4.3,0.2
	c-0.5-0.5-4.2-0.8-6.1-0.2l-0.2,1.3c-4.4,0.8-1.1-0.7-5.4-0.1c-0.2-0.5,0.7-0.9,2.1-1.3c1.7-0.3,3.4-0.6,5.1-0.7c-1.6,0-3.2,0-4.6,0
	c-1.1-0.1-2.2,0.3-3.1,1c-1.5,0-1.5-0.3-1.5-0.6s-0.2-0.6-2-0.5c-2.6,0.7-5.7,2.4-8.8,2.7v-0.2c-1.7,0.2-3.3,0.7-4.8,1.3
	c-1.3,0.5-2.6,1.2-3.9,1.9c-2.5,1.5-5.1,2.8-7.9,3.8l0.5-0.6c-2.4,0.6-6.1,3.5-10,5.4c1.1-0.5,2.4-0.5,0.3,1c-1,0.5-2,1.1-2.9,1.7
	c-0.9,0.6-1.7,1.2-2.4,1.8c-1.4,1.2-2.9,2.2-4.4,3.1c-0.6,1-1.3,2-1.9,3l-2.6,2.6c-1,1-2,2.2-3.2,3.5c-2.6,3-4.9,6.2-7.1,9.6
	c-8,12.6-12.8,27.1-13.7,42c-0.3,4.6-0.2,9.2,0.2,13.8c0.6,6.5,1.9,13,3.9,19.2l-0.3-0.6c1.1,3.3,2.3,6.5,3.7,9.7
	c0.7,1.8,1.6,3.5,2.6,5.3s2,3.6,3.1,5.4c4.8,7.7,10.7,14.7,17.5,20.6c6.9,5.9,14.6,10.7,22.9,14.2c6.9,2.9,14.1,4.8,21.6,5.7
	c3.7,1.3,9,1.6,13,1.8c-2.2-0.3-1.4-0.8,0.3-0.8c6,0,6.2-0.3,6.4-0.5s0.2-0.2,1-0.4s2.4-0.4,5.4-0.9c5.4-1,10.8-2.5,16-4.3
	c3.6-1.3,7.1-2.8,10.5-4.6c3.7-1.9,7.2-4,10.6-6.4c3.4-2.4,6.6-4.9,9.6-7.7c2.8-2.6,5.4-5.3,7.8-8.2c1.1-1.3,2.1-2.7,3.1-3.9
	s1.8-2.5,2.6-3.6s1.4-2.2,2-3.1l1.5-2.4c0.6-1.6,1.2-3.3,1.9-5s1.4-3.5,2-5.3c0.3-0.9,0.6-1.8,1-2.7s0.6-1.8,0.8-2.7
	c0.5-1.7,0.9-3.4,1.1-5.2l0.1,0.7c0.3-1.8,1.2-5.5,1.8-10.4c0.7-5.6,0.9-11.3,0.6-17C419.1,1225.3,418.2,1219.5,416.7,1213.9z
	 M383.9,1246.5c-0.4,0.2-0.6,0.4-0.7,2.1c0.4,0.4,0.6,1,0.6,1.7c0,0.7-0.2,1.4-0.4,2.1c-0.2,0.7-0.5,1.4-0.6,2c-0.2,0.5-0.2,1,0,1.5
	c-0.1-0.1-0.7,1.6-1.2,1.3c0.9,0.9-0.3,1.8-0.4,2.9c0.1,0.5,0.4-0.2,0.8-0.3c-0.1,0.9-0.4,1.7-0.6,2.5c-0.7,0.8-1.3,0.8-1-0.3
	c-2.2,4.7-5,9-8.4,12.9c-1.6,1.8-3.3,3.4-5.1,5c-3.5,3-7.4,5.5-11.6,7.5c-2.8,1.3-5.7,2.4-8.6,3.4c1.1,0.4,3.1-0.7,4.2,0
	c-0.3,0.3-0.7,0.5-1.1,0.7c-0.3,0.1-0.7,0.2-1,0.3c-0.5,0-1,0.3-1.3,0.6c-0.6-0.7-1.6-0.5-2.8-0.3s-2.4,0.2-3.2-0.4l-0.4,1l-1-0.4
	c-1.7,0.5-3.3,0.8-5,0.9c-0.4,0-0.6-0.1-4.4-0.4c-4.3-0.2-6.6,0.6-8.9-0.4c0.4,0.1,1.2,0.9,0,0.8c0-0.4-0.8-0.4-1.6-0.5
	s-1.7-0.2-1.8-0.7c-0.6-0.1-1.7-0.5-2.6-0.7s-1.5-0.2-1.2,0.6c-0.5-0.5-1-1-1.6-1.4c-0.5-0.4-0.8-0.7,0.2-0.6
	c-0.8-0.5-1.7-0.9-2.7-1.2l1.1,0.9c-0.4-0.2-0.8-0.4-1.2-0.5l-1-0.6c-0.6-0.4-1.2-0.8-1.7-1.1c-0.5-0.4-1-0.7-1.6-0.9
	c-0.5-0.3-1.1-0.5-1.7-0.6l0.9,1.2c-1.9-1.2-3.5-2.3-3.5-3.7l2,1.1c-3-2.1-4.6-3.6-7.2-5.3l0.8,0.8c-1.8-0.9-6.5-5.1-10-10.2
	c-1.7-2.4-3.2-4.9-4.6-7.5c-0.6-1.1-1.1-2.2-1.6-3c-0.3-0.7-0.7-1.3-1.1-1.9l-0.4,2c-0.6-1-1.1-2-1.6-3c0.1,0.4,2.8,0.6,3.1,0.9
	c-2.3-7.8-2.8-16.1-1.5-24.1c0.8-4.8,2.2-9.5,4.3-13.9c1.3-2.8,2.9-5.4,4.8-7.7c1.9-1.7,1.7,0.6,1.8,0.7c0.6-1.3,0.6-1.7,0.6-2
	s0-0.6,0.8-1.6c0.6-0.4,0.6,0.6,0.5,1c0.6-0.9,1.5-1.4,1.2-1.8c-1.2,0.8-1.9-0.5-2.9-0.5c0.8-0.8,1.5-1.7,2.3-2.4l0.5,0.7
	c0.3-0.2,0.1-1,0.3-1.9c0.1-0.5,0.3-1,0.5-1.5c0.2-0.4,0.5-0.8,0.9-1.1c0.5,0.2,1,0.1,1.4-0.2c-0.3-0.1-0.6-0.2-0.9-0.2l0.1-0.1
	l0.6-0.4c0.2,0.1,0.2,0.4,0.2,0.7c0.2-0.1,0.5-0.2,0.7-0.2c-0.1-0.3-0.2-0.2-0.4-0.2c0-0.3,0-0.5,0.1-0.8l0.4-0.3
	c0.4-0.1,0.7,0.8,1.2,0.4c2.9-1.9,5.9-3.1,8.7-4.9c0.2,0.2,0.1,0.2,0.1,0.4c0.7-0.7,1.6-1.1,2.2-1.8c0.3,0.2,0.6,0.4,0.8,0.7
	c-0.2-0.2,0.9-0.9,2-1.5c0.8-0.4,1.6-0.8,2.5-1l-0.4-1.1c0.9-0.4,0.8,1.2,1.5,0.6c-0.2-1.7,1.5-0.3,1.5-1.3c0,0.1,0.5,0,0.6,0.6
	c-0.1-0.9,0.4-0.3,0.6-0.7c0-0.3-0.1-0.2-0.3-0.5c0.2-0.2,0.4-0.3,0.5-0.5c0.3,0.2,0.5,0.7,0.3,0.9c0.4,0,1.3-0.1,2.3-0.3
	s2.2-0.3,3.5-0.3c1.9-0.1,3.9-0.3,5.8-0.6c-0.3-0.7-0.8-0.2-1.1-1.2c0.5-0.6,0.7,0.2,0.9-0.5c0.3,1.6,1.1,0.3,1.5,2l0.1-0.9l0.3,0.6
	c2.1-1,0.5-0.5,2.4-0.3c0.8-0.1,1.3-0.7,1.7-0.9c0.1,0.1,0.2,0.3,0.3,0.4c0.4,0.6,0.8,1.1,1.4,1.6l-0.2,0.9c0.6,0,1.1,0,1.7,0
	c0.7,0.2,1.5,0.3,2.2,0.2c0.5,0,0.7,0,0.5,0.4c-0.9-0.2-1.8-0.3-2.7-0.5c2,0.5,0.5,0.8-0.3,1.2c0.8,0.1,1.5,0.4,2.2,0.7
	c0.4-0.3-0.2-0.4-0.5-0.6c0.5-0.1,1.2-0.2,1.9-0.3c0.7-0.1,1.4,0,2,0.3c2,0.5-0.2,1.4,2,2.1c2.9,0.9,5.7,2.1,8.3,3.6
	c2.6,1.4,5.1,3.1,7.5,4.9c2.4,1.8,4.6,3.8,6.6,6c2.1,2.2,4,4.5,5.8,7c-0.1,0.4-0.3,0.1-0.6-0.1c2.2,2.7,4.1,5.7,5.6,8.8
	c0,0.6-0.2,1.3-0.6,1.8c0.1-0.1,0.2,0.1,0.5,0.5s0.5,1.1,0.9,1.9s0.6,1.8,1,2.8s0.6,2.2,0.9,3.4s0.4,2.4,0.6,3.6s0.2,2.2,0.3,3.2
	s0.1,1.7,0,2.3c0,0.3,0,0.7-0.1,1l1.4,0.3C384.7,1246.1,384.2,1246.3,383.9,1246.5L383.9,1246.5z"/>
<path d="M280.9,1257.1L280.9,1257.1C280.9,1257.2,280.9,1257.2,280.9,1257.1z"/>
<polygon points="296.2,1200.6 296.2,1200.6 296.2,1200.6 "/>
<path d="M394.8,1178.3l-0.4-0.4C394.5,1178.1,394.6,1178.3,394.8,1178.3z"/>
<path d="M1047.9,1344.6h2.1C1049.2,1344.6,1048.5,1344.6,1047.9,1344.6z"/>
<path d="M367.7,1341h1.4C368.6,1341,368.2,1341,367.7,1341z"/>
<path d="M776.1,279.3l0.1,0.1C776.2,279.3,776.1,279.3,776.1,279.3z"/>
<path d="M969.2,173.4c0,0.5,0,1.1,0.2,1.6C969.3,174.6,969.2,174,969.2,173.4z"/>
<path d="M638.2,179.6c0-0.5,0-1.1-0.2-1.6C638,178.4,638.1,179,638.2,179.6z"/>
<path d="M697.3,117.8c0.5,0,1,0,1.5-0.2L697.3,117.8z"/>
<path class="st0" d="M271.9,1366.3h162.5c0,52.5-36.4,95.1-81.3,95.1S271.9,1418.8,271.9,1366.3z"/>
<path d="M238.7,1370.8c-0.1-0.8-0.2-1.6-0.5-2.3C238.4,1369.2,238.6,1370,238.7,1370.8z"/>
<path d="M347.7,1446.2h0.1C347.8,1446.1,347.7,1446.1,347.7,1446.2z"/>
<path class="st0" d="M1165.6,1366.3h162.5c0,52.5-36.4,95.1-81.3,95.1S1165.6,1418.8,1165.6,1366.3z"/>
<path d="M1132.7,1370.8c-0.1-0.8-0.3-1.6-0.6-2.4L1132.7,1370.8z"/>
<path d="M1426.7,560.6c-0.2-5.1,0-10.4-0.5-15.8c-0.1-1.4-0.2-2.7-0.3-4.1s-0.2-2.8-0.3-4.1c-0.3-2.8-0.6-5.6-0.9-8.4
	c-0.1-1.4-0.4-2.8-0.6-4.3s-0.5-2.9-0.7-4.3l-0.7-4.3c-0.3-1.4-0.6-2.9-0.9-4.4c-0.3-1.5-0.6-2.9-0.9-4.4l-0.5-2.2l-0.6-2.2
	c-0.8-2.9-1.6-5.9-2.4-8.9s-1.9-5.9-2.8-8.9c-0.4-1.5-1-3-1.6-4.5s-1.1-3-1.7-4.4c-4.7-12.1-10.4-23.8-17-34.9
	c-1.7-2.8-3.4-5.6-5.3-8.4l-5.7-8.2c-2-2.7-4.1-5.3-6.2-7.9s-4.4-5.1-6.6-7.6c-8.9-9.9-18.7-19.1-29.1-27.4
	c-29.5-23.3-64.3-39-101.4-45.5l-4.1-0.7c-1.4-0.2-2.7-0.5-4.1-0.6l-8-1l-2-0.2l-2-0.1l-3.9-0.3l-3.8-0.3l-1.9-0.1h-1.9
	c-10.5-0.3-17.9-0.1-25.4,0c-14.8,0.1-26.7,0.3-34.7,0.5l8.6,0.2c-55.9,1.9-48.3-0.6-92.3-1c5.8,2.4-42.1,4.1-60.4,4.5l0.7-0.5
	c-13.8,0.3-36.2,1.1-61,1.9c-24.5,0.7-51.1,1.5-73.7,1.7l0.4-0.8l0.7-0.5h-0.5l0.2-0.4c1.8-4,3.7-7.8,5.5-11.4
	c3.6-7.1,6.8-13,8.5-15.7c0.5-3,1.5-5.8,3-8.5c1.4-2.6,2.6-5.3,3.5-8.1l0.1,0.7c1-2.7,5.7-11.1,10.6-19.4l7-11.9
	c2.1-3.5,3.7-6.4,4.4-7.9l-0.7,0.7c1.9-5.6,3.3-3.9,6.1-7.6c-2.1-0.5-0.5-5.3,0.3-7l0.4,0.3c0.9-2,2.1-6.3,3.7-10
	c1.6-0.3,3.1-1,4.3-2c1.4-1,2.7-2.1,4.8-2.5l-0.2,0.6c1-0.1,2-0.5,2.8-1.2c1.1-0.8,2.3-1.4,3.5-1.8c-0.2,0-0.4,0-0.6,0
	c-0.2-0.2-0.3-0.5-0.4-0.7c0.1-0.2,0.3-0.4,0.5-0.5c1.2-0.4,2.4-1.1,3.4-1.9c0.9-0.7,1.9-1.3,3-1.6c0.3-0.8,0.5-1.6,0.8-2.3
	c0.5-0.4,1-0.9,1.7-1.5s1.3-1.3,2-2.1s1.5-1.6,2.2-2.6s1.5-2,2.2-3.2c3.3-5.1,5.8-10.7,7.3-16.6c0.3-1.6,0.7-3.1,1-4.6
	s0.4-3.1,0.5-4.6c0-0.5,0-1,0.1-1.5c0.5-0.5,1-1,1.5-1.5l-0.3-0.7l-1-0.2v-0.6c0-1.4,0-2.8-0.2-4.1c0-0.3,0-0.5-0.1-0.8
	c3,0.2,5.1,0.4,5.7,0.4c0.1,1,0,1.9-0.3,2.8c0.8-0.3,1.1-2.8,0.6-4.1l-1.9-0.1c-0.9-2.8,1.1-0.8,0.6-3.6c0.7-0.2,1.3,0.4,1.7,1.3
	c0.4,1.1,0.6,2.2,0.7,3.4c0-1.1,0.3-2.2,0.3-3.1c0.1-0.9-0.4-1.7-1.2-2c0.3-2.1,1.9,0,2.2-2.6c-0.7-1.8-2.7-3.7-2.4-5.9h0.3
	c0.2-2.7-1.1-4.3-2.3-5.9s-2.4-2.9-2.7-5.3l0.7,0.2c-0.1-1.1-0.6-2.2-1.3-3.1c-0.9-1.2-1.6-2.5-2-3.9c0.2,0.9-0.4,2.1-1.4,0.7
	c-0.5-1.4-1.2-2.7-2.1-3.8c-0.8-1-1.4-2.1-1.8-3.3c-0.9-0.3-1.8-0.5-2.7-0.7c-0.5-0.5-1-1.2-1.7-1.9s-1.5-1.4-2.3-2.2
	s-1.8-1.6-2.9-2.4s-2.2-1.6-3.5-2.5c-5.6-3.7-11.8-6.4-18.3-8c-1.7-0.4-3.4-0.8-5.1-1s-3.4-0.4-5.1-0.6s-3.3-0.1-4.9-0.1
	c-1.5,0-3,0.1-4.5,0.2c-1.5,0.1-2.8,0.2-4.1,0.5s-2.5,0.4-3.6,0.7l-1.6,0.3l-1.4,0.4l-2.4,0.7l0.4-0.3c-4.9,1.5-9.7,3.6-14.1,6.3
	c-5.4,3.2-10.2,7.3-14.2,12c-4.1,4.7-7.4,10.1-9.7,15.9c-1.9,4.8-3,9.9-3.2,15c-0.9,1.3-1.5,2.7-1.7,4.2c-0.2,1.6-0.3,3.2-0.6,4.5
	c0.7-1.5,1.7-1,1.6,0.2c0,4.1,0.4,4.2,0.7,4.3c0.2,0.1,0.4,0.1,0.6,0.7c0.4,1.2,0.7,2.3,1,3.6c0.3,1.1,0.7,2.7,1.2,4.4l0.9,2.9
	c0.3,1,0.7,2.1,1.1,3.2c0.9,2.4,1.9,4.7,3,7c0.6,1.2,1.3,2.4,2,3.5c0.7,1.2,1.4,2.4,2.2,3.5c1.5,2.2,3.2,4.4,5,6.4
	c1.7,1.9,3.5,3.6,5.4,5.3l0.6,0.5l-1.1,2.3c-0.6,0.1-0.3-0.3-0.3-0.8c-1,2.4-2.1,4.7-3.1,6.9s-2.1,4.3-3,6.5c-0.7,0.6-1.5,1-2.4,1.1
	c0.6-0.1-2.3,5.8-5.5,11.8c-1.6,3-3.3,5.9-4.5,8.2c-0.7,1.3-1.5,2.6-2.3,3.8l1.5,1.2c-2.6,4.5-2.7,0.2-4.7,4.6
	c1.5,3-4.3,6.7-3.9,8.8c-0.2-0.1-1.5,1.8-2.2,1.3c1,1.4-1,2.2-1.4,3.7c0.1,0.7,0.6-0.1,1.2-0.2l-1.3,3.1c-1.2,0.9-2.1,0.7-1.5-0.6
	c-1.8,2.5-6,8.5-11.2,15.4c-2.6,3.4-5.4,7.1-8.2,10.7l-2.2,2.4c-0.3,0.4-0.7,0.9-1.1,1.3l-0.3,0.3H816l-0.2,0
	c-0.4-0.1-0.8-0.3-1.1-0.6c-0.1,0-0.1,0,0,0.3c0.6,1.2,0.3,0.4,1.5,2.2c0.2,0.6,0.1,0.5,0,0.5s-0.2-0.1,0,0.5
	c-0.4-0.7-0.6-1.1-0.8-1.4c-0.1-0.2-0.2-0.3-0.3-0.4c-0.1-0.1-0.2-0.2-0.2-0.4c-0.3-0.5-0.4-1-0.6-1.5c0.1,0.6,0.2,1.2,0.3,1.8
	c-0.2-0.4-0.3-0.7-0.4-1c-0.7,1.1-0.9,1.3-1,1.2c-0.1-0.1-0.1-0.2-0.2-0.2c-0.2-0.2-0.5-0.3-0.7-0.4c-0.2,0-0.5,0.2-0.7,0.5
	c-0.3,0.2-0.5,0.4-0.7,0.7c-0.1,0.2-0.3,0.4-0.4,0.5c-0.1,0.1-0.2,0-0.2-0.2c-0.1,0.5-0.3,1-0.6,1.5c0.3-0.7,0.1-0.5-0.2-0.3
	s-0.5,0.4-0.2-0.4c-0.2,0.1-0.6-0.4-1.8,1.5c0.5-1,0.4-1.6,1.3-2.2c-0.1-0.1,0.1-0.5-0.4-0.2c-0.1,0.2-0.2,0.4-0.3,0.6
	c-0.2,0-0.3-0.2-0.3-0.4c-0.2-0.1-0.3-0.2-0.5-0.2c-0.5,0-1,0.1-1.5,0.4c-0.1,0.2-0.2,0.4-0.3,0.6c-0.2,0-0.4-0.1-0.5-0.1H805l0,0
	l-0.1-0.1l-0.3-0.4c-0.2-0.2-0.3-0.5-0.4-0.7c-0.5-0.9-0.5-2,0-2.9l2.3,2c-2.3-3.2-5-6.1-8-8.6l0.8,1.2c-2.4-1.5-7.6-7.5-12.7-13.6
	s-9.9-12.1-12-13.6l-0.1,2.5l-3-2.8c0.2,0.4,4.1-0.4,4.6-0.1c-2.4-3.7-9.3-14.7-15.7-25.9s-12.6-22.8-14-26.5
	c-0.8-3.2,1.6-1.6,1.8-1.6c-2.2-3.2-2-0.8-3.4-3.7c-0.2-0.9,1-0.4,1.4,0c-0.8-1.2-1-2.6-1.6-2.4c0.4,1.8-1.5,2-2.1,3.2l-1.3-2.8
	c1-1,1.9-2,2.8-3c4.1-4.7,7.4-10.1,9.7-15.9c1.9-4.8,3-9.9,3.2-15c0.9-1.3,1.5-2.7,1.7-4.2c0.2-1.6,0.3-3.2,0.6-4.5
	c-0.7,1.5-1.7,1-1.6-0.2c0-4.1-0.4-4.2-0.7-4.3c-0.2-0.1-0.4-0.1-0.6-0.7c-0.4-1.2-0.7-2.3-1-3.6c-0.3-1.1-0.7-2.7-1.2-4.4l-0.9-2.9
	c-0.3-1-0.7-2.1-1.1-3.2c-0.9-2.4-1.9-4.7-3-7c-0.6-1.2-1.3-2.4-2-3.5c-0.7-1.2-1.4-2.4-2.2-3.5c-1.5-2.2-3.2-4.4-5-6.4
	c-1.7-1.9-3.5-3.6-5.4-5.3l-2.6-2.2l-2.4-1.8l-2-1.5l-1.6-1.1c-1.2,0-2.5-0.2-3.6-0.6c-1.2-0.3-2.4-0.7-3.6-1.1l-1.8-0.6
	c-0.6-0.2-1.2-0.3-1.8-0.4c-1.1-0.3-2.3-0.3-3.5-0.3l0.5-0.4c-0.6,0-1.5-0.2-2.7-0.3s-2.6-0.4-4.2-0.6s-3.3-0.3-5.2-0.4h-2.7
	c0.1-0.8,0.1-1.3,0.1-1.6c0.9-0.1,1.8,0,2.7,0.3c-0.3-0.7-2.6-1-3.8-0.5l-0.1,1.7c-0.3,0.1-0.5,0.1-0.6,0.2h-0.7
	c-0.7-0.2-0.1-1.1-2.1-0.7c-0.2-0.7,0.4-1.2,1.2-1.6c1-0.3,2.1-0.6,3.2-0.6c-1,0-2.1-0.3-3-0.3c-0.8-0.1-1.6,0.3-1.9,1
	c-2-0.3,0-1.7-2.5-1.9c-1.7,0.6-3.5,2.5-5.6,2.2v-0.2c-2.5-0.1-4.1,1.1-5.5,2.2s-2.8,2.3-5,2.6l0.2-0.6c-1.1,0.1-2.1,0.6-3,1.2
	c-1.1,0.8-2.4,1.4-3.7,1.9c0.8-0.2,1.9,0.3,0.6,1.3c-1.3,0.4-2.5,1.1-3.6,2c-0.9,0.7-2,1.3-3.1,1.7c-0.3,0.8-0.5,1.6-0.8,2.5
	c-0.5,0.4-1.1,1-1.8,1.6s-1.3,1.4-2.1,2.2s-1.5,1.7-2.3,2.8s-1.5,2.1-2.3,3.3c-3.5,5.3-6,11.1-7.5,17.3c-0.4,1.6-0.8,3.2-1,4.8
	s-0.4,3.2-0.5,4.8s-0.1,3.1-0.1,4.6c0,1.4,0,2.9,0.2,4.3c0,0.2,0,0.4,0,0.6c-1.8-0.1-3.1-0.2-3.5-0.2c-0.1-1,0-1.9,0.3-2.8
	c-0.8,0.3-1.1,2.8-0.6,4l1.9,0.1c0.9,2.8-1.1,0.8-0.6,3.6c-0.7,0.2-1.3-0.4-1.7-1.3c-0.4-1.1-0.6-2.2-0.7-3.4c0,1.1-0.3,2.2-0.3,3.1
	c-0.1,0.9,0.4,1.7,1.2,2c-0.3,2.1-1.9,0-2.2,2.6c0.7,1.8,2.7,3.7,2.4,5.9h-0.3c-0.2,2.7,1.1,4.3,2.3,5.9s2.4,2.9,2.7,5.3l-0.7-0.2
	c0.1,1.1,0.6,2.2,1.3,3.1c0.9,1.2,1.6,2.5,2,3.9c-0.2-0.9,0.4-2.1,1.4-0.7c0.5,1.4,1.2,2.7,2.1,3.8c0.8,1,1.4,2.1,1.8,3.3
	c0.9,0.3,1.8,0.5,2.7,0.7c0.5,0.5,1,1.2,1.7,1.9s1.5,1.4,2.3,2.2s1.8,1.6,2.9,2.4s2.2,1.6,3.5,2.5c5.6,3.7,11.8,6.4,18.3,8
	c1.7,0.4,3.4,0.8,5.1,1s3.4,0.4,5.1,0.6c1.2,0.1,2.3,0.1,3.4,0.1c4,6.3,11.4,17.8,18.4,29.5c8.1,13.4,15.6,27.2,18.5,32.8l-0.4-0.4
	c3.2,6,7.4,14.5,11.7,23.8c2.1,4.6,4.3,9.5,6.3,14.4c0.2,0.6,0.5,1.2,0.7,1.8c-6.8-0.1-12.7-0.1-17.3-0.2
	c-31.2-0.6-70.8-1.7-113-2.6s-87.1-1.6-128.8-1l-54-4.6l-7.9,0.3c-4.1,2.4-8,5.1-11.8,8c-1.4,1.1-2.9,2.2-4.3,3.5h-2.4
	c-3.7-0.1-7.5-0.2-11.7-0.3h-6.7h-3.4c-1.1,0-2.3,0.1-3.5,0.2l-7.1,0.5c-2.4,0.2-4.8,0.5-7.2,0.8c-4.8,0.5-9.6,1.4-14.5,2.2
	c-5.5,1-10.9,2.4-16.3,3.8c0.8-0.8,1.5-1.6,2.3-2.3c1.1-1.1,2.2-2.2,3.2-3.2l3.1-2.9l2.9-2.7c0.9-0.9,1.8-1.7,2.7-2.4
	c1.7-1.5,3.2-2.8,4.5-4c2.5-2.3,4-3.8,3.9-4.3c4-0.5,7.9-0.8,11.7-1.2s7.4-0.4,10.7-0.6c1.6-0.1,3.2-0.1,4.6-0.1h4
	c2.4,0,4.3,0.1,5.5,0.1c-2.5-0.3-5-0.5-7.5-0.5l-3-0.1h-1.6l-1.7,0c-2.3,0.1-4.9,0.2-7.5,0.3s-5.3,0.4-8,0.6s-5.5,0.5-8.1,0.9
	c-5.3,0.9-10.4,1.6-14.4,2.7l-2.3,2.7c-4.7,1-8.2,2-11.1,2.8s-4.9,1.3-6.5,1.7c-1.7,0.5-3.5,0.9-5.3,1.2c-1.8,0.2-3.5,0.5-5.2,1.1
	c-1.5,0.5-3.5,1.1-6.2,2.1c-1.4,0.5-2.9,1-4.6,1.7s-3.6,1.5-5.8,2.5c-0.6-0.2,0.8-1.3,3.9-2.9c1.9-1,3.8-1.9,5.8-2.7
	c2.3-1,4.9-2.1,7.8-3.1s6.1-2.1,9.4-3.2s6.9-2,10.6-2.9c1.8-0.5,3.7-0.9,5.6-1.3l5.7-1.2c1.9-0.4,3.8-0.7,5.7-1l5.7-0.9
	c-3.4,0.5-6.8,1-10.2,1.5l-10,1.9c-6.5,1.5-12.8,2.9-18.4,4.7c-5.1,1.5-10.1,3.3-15,5.4c-3.5,1.5-6.8,3.3-10,5.3
	c-1.5,0.6-2.8,1.2-3.9,1.7l-2.9,1.3c-1.1,0.5-2.2,0.9-3.4,1.3c-1.4,0.4-1.4,0.1-1.5-0.2s-0.4-0.5-2.4,0.4c-1,0.4-2.4,1.1-4.4,2.1
	s-4.8,2.4-8.1,4.5c-10.4,7.1-20.1,15.1-29.1,24c-9.4,9.4-18.3,19.3-26.6,29.7v-0.5c-8.6,11-15.9,23.1-21.7,35.8
	c-0.7,1.4-1.3,2.9-2,4.3l-1.7,4.3c-1.1,2.8-2.3,5.6-3.2,8.4s-1.9,5.5-2.8,8.3l-2.4,8.2c-0.8,2.7-1.4,5.5-2.1,8.2s-1.4,5.5-1.8,8.3
	s-1.1,5.5-1.6,8.4s-0.9,5.7-1.3,8.6c-1.8,12.4-2.9,24.8-3.4,37.3l-0.2-5.9c-0.1,1.2-0.1,2.5-0.2,3.8s-0.2,2.8-0.2,4.2
	c0,3,0,6.1,0.1,9.5c0,0.9,0,1.6,0.1,2.4s0.1,1.5,0.1,2.3c0.1,1.6,0.1,3.2,0.2,4.8c0.1,3.3,0.3,6.7,0.4,10.3
	c0.6,14.2,1.3,30,1.6,45.2c-0.1-8.7,0.4-16.2,1.3,2.1c0.3,17.4,0.8,32.1,1.2,45.6s0.7,25.8,0.6,38.5l1.5,24.5
	c0.5,30.3,1.1,83,0.8,147c-0.1,32-0.5,66.7-1.2,102.9s-1.7,73.7-2.6,111.3c-0.4,18.8-0.9,37.6-1.3,56.2s-0.7,37-1,55.1
	s-0.7,35.9-1,53.2c-0.1,10.8,1.1,21.5,3.5,32c2.4,10.2,6,20,10.6,29.4c1.1,2.3,2.4,4.5,3.6,6.7s2.6,4.3,3.9,6.4s2.8,4.1,4.3,6.1
	s2.9,4,4.5,5.8c6.1,7.4,12.9,14.1,20.4,20c5.1,4,10.5,7.7,16.2,10.9c-0.5,0.8-1.6-0.6-1.5,2.3c1,2.5,3.2,5.6,3.3,8.5h-0.3
	c0.2,1.6,0.5,3.2,1.1,4.6c0.6,1.3,1.2,2.6,2,3.8c0.7,1.2,1.4,2.4,2,3.6c0.7,1.3,1.1,2.7,1.4,4.2l-0.7-0.5c0.1,0.7,0.3,1.4,0.5,2
	c0.3,0.8,0.7,1.6,1.2,2.4s0.9,1.8,1.3,2.8c0.5,0.9,0.8,1.9,1.1,2.9c-0.3-1.2,0.1-2.4,1.4-0.2c0.6,2,1.5,3.8,2.6,5.6
	c0.9,1.5,1.6,3.1,2.2,4.7c1,0.8,1.9,1.5,2.8,2.3c3.6,5.6,7.7,10.8,12.2,15.7c1.4,1.6,3.1,3.2,4.7,4.8l2.6,2.4l1.3,1.2l1.4,1.2
	c3.8,3.3,7.8,6.3,12,9c4.2,2.7,8.6,5.2,13.2,7.3c2.2,1,4.4,2,6.6,2.7c1.1,0.4,2.1,0.8,3.2,1.2l3.2,1c6.3,1.9,12.9,3.1,19.5,3.7
	l-0.6,0.1c7.5,0.6,15.1,0.4,22.6-0.8c1.1-0.1,2.1-0.4,3.2-0.6s2.2-0.4,3.2-0.7c2.2-0.6,4.4-1.1,6.5-1.8c4.4-1.4,8.7-3.1,12.8-5.1
	c4.1-2,8-4.3,11.8-6.9l2.7-2l1.3-1l1.3-1l2.5-2l2.3-2.1c5.3-4.8,10.1-10.2,14.2-16.1c2.7-2.5,5.5-6.7,7.5-9.9
	c-1.3,1.7-1.4,0.8-0.5-0.6c0.9-1.4,1.7-2.9,2.5-4.5c0.3-0.7,0.3-0.8,0.3-1s-0.1-0.5,2.3-5.8c2.7-6.5,5.1-13.2,7-19.9
	c0-0.2,0.1-0.3,0.1-0.5c19.5-0.2,39.9-0.6,61-1l49.7-1.1c16.9-0.4,34.1-0.8,51.5-1.5c34.8-1.2,70.4-3.3,106-5.3
	c17.8-1,35.6-1.9,53.4-2.6s35.4-1.2,52.9-1.5s34.8-0.4,51.8-0.3l25.3,0.1l24.9,0.2c32.8,0.3,64.2,0.8,93.4,1.4l80.1,1.9
	c12.8,0.9,27.8,1.6,43.1,2.2c0.1,0.3,0.1,0.6,0.1,0.9h-0.2c0.5,3,1.6,5.9,3.3,8.4c0.7,1.2,1.4,2.3,2,3.6c0.7,1.3,1.2,2.7,1.5,4.1
	l-0.7-0.5c0.1,0.7,0.3,1.4,0.6,2c0.3,0.7,0.8,1.5,1.2,2.4s0.9,1.8,1.3,2.7c0.5,0.9,0.8,1.9,1.2,2.9c-0.3-1.1,0-2.3,1.3-0.2
	c0.7,1.9,1.5,3.8,2.6,5.5c0.9,1.5,1.6,3.1,2.2,4.7c0.9,0.8,1.8,1.5,2.7,2.3c3.6,5.5,7.6,10.7,11.9,15.5c6.4,7.1,13.6,13.4,21.5,18.8
	c4.1,2.8,8.4,5.3,12.9,7.5c2.2,1,4.3,2.1,6.5,2.9c1.1,0.4,2.1,0.9,3.2,1.3l3.1,1.1c6.3,2.1,12.8,3.6,19.4,4.4l-0.7,0.1
	c7.6,0.9,15.3,1,22.9,0.2c9.2-1,18.3-3.4,26.9-7c4.3-1.9,8.5-4,12.6-6.4l2.9-1.8l1.4-0.9l1.4-1l2.7-2l2.6-2c5.9-4.7,11.3-10.1,16-16
	c1.8-1.3,3.4-2.8,4.8-4.5c1.5-1.8,3-3.6,4.3-5.2c-1.7,1.6-1.9,0.6-0.8-0.8c1.1-1.5,2.1-3,3-4.6c0.4-0.7,0.4-0.9,0.3-1
	s-0.1-0.3,0.2-1.1c0.2-0.4,0.4-1,0.8-1.8c0.3-0.6,0.6-1.3,1-2c0.5-0.9,1-1.8,1.6-2.6c1.4-2.9,4.3-6.8,5.7-12.1
	c1-2.9,2.2-5.7,3.5-8.5c0.3-0.8,0.7-1.5,1-2.3s0.3-1.6,0.5-2.4c0.4-1.6,0.7-3.2,1.1-4.9c0.1-0.4,0.2-0.9,0.4-1.3
	c0.2-0.4,0.3-0.9,0.5-1.3c0.3-0.9,0.6-1.8,1-2.7c0.7-1.8,1.3-3.7,1.7-5.6c0-0.2,0.1-0.3,0.1-0.5l2.2-1.1c2.9-1.6,5.9-3.2,8.8-5.1
	c27.1-17.1,46.9-43.7,55.5-74.6c2.4-8.7,3.9-17.6,4.4-26.5c0.2-2.3,0.2-4.6,0.2-6.9v-1.7v-1.3c0-0.9,0-1.9,0-2.8
	c0-3.7-0.1-7.5-0.1-11.3c-0.2-15.1-0.4-30.7-0.6-46.6c-0.4-25.2-1-51.1-1.8-77.1c0.3-18-0.3-46.9,0.3-73.6
	c-0.2,8.7-0.9,16.2-1.1-2.1c0.6-34.8,0-58.6,0.8-84.1l-1-24.5c0-34.7,0-98.6-0.2-175c0.3-18,0.9-36.7,1.5-55.4
	c1-29.3,2.1-58.5,2.2-84.2l0.3,5.2c0.1-6.9,0.4-17.8,0.8-31.7c0.2-7,0.4-14.7,0.6-23c0.1-2.1,0.1-4.2,0.2-6.4c0-1.1,0.1-2.2,0.1-3.3
	c0-0.5,0-1.1,0-1.7v-0.8L1426.7,560.6z M413.7,1398c-0.3,0.5-0.4,1-0.4,1.6c-0.9,0.1-1.3,1.2-1.9,2.4s-1.2,2.4-2.3,2.8l0.5,0.9
	l-1,0.7c-0.4,1.1-0.8,2-1,2.6l-0.6,1.5c-0.1,0.4-0.3,0.8-0.5,1.1c-0.1,0.2-0.2,0.3-0.6,0.8c-0.2,0.3-0.5,0.6-0.8,1.1s-0.8,1.2-1.4,2
	c-1.3,2-2.1,3.6-2.8,4.9c-0.6,1.2-1.5,2.3-2.5,3.2c0.3-0.3,1.4-0.7,0.7,0.4c-0.7-0.4-1.8,2.8-2.9,2.7c-0.4,0.5-1.3,1.3-1.9,2.1
	s-1,1.3-0.1,1.3c-0.7,0.2-1.4,0.5-2,0.9c-0.6,0.3-1,0.4-0.4-0.4c-0.9,0.6-1.7,1.2-2.4,2l1.4-0.7c-1.2,1-2.6,1.9-4,2.7
	c-1.1,0.6-2.1,1.4-2.9,2.4l1.5-0.4c-0.5,0.3-1,0.6-1.4,0.9c-0.4,0.2-0.9,0.5-1.3,0.6c-0.7,0.4-1.5,0.4-2.3,0.2
	c0.7-0.4,1.3-0.9,1.9-1.4c-3.3,1.8-5.4,2.8-8.1,4.4c0.4-0.1,0.7-0.2,1.1-0.3c-4.2,2.4-8.8,4-13.5,4.8c-2.9,0.5-5.8,0.9-8.7,1.1
	c-1.3,0-2.4,0.1-3.4,0.2c-0.7,0-1.5,0.1-2.2,0.2l1.6,1.2c-1.1,0.1-2.2,0.3-3.4,0.3c0.4,0.1,1.7-2.4,2.1-2.5
	c-3.1-0.4-6.2-1.2-9.2-2.2c-4.7-1.6-9.2-3.8-13.3-6.6c-4.1-2.8-7.9-6.1-11.2-9.8c-1.3-1.4-2.5-3-3.5-4.6c-0.7-1-1.4-2.1-1.9-3.2
	c-0.9-2.6,1.3-1.6,1.4-1.7c-2-2.3-1.7-0.3-3-2.7c-0.2-0.8,0.9-0.4,1.2-0.2c-0.7-0.9-0.8-2.1-1.3-1.8c0.3,1.5-1.3,1.9-1.8,3l-1.5-3.1
	l0.9-0.4c-0.2-0.3-0.9-0.4-1.8-0.8c-1.2-0.5-2.1-1.6-2.4-2.9c-1.4-4.1-3-8.3-4-12.6l2.4,0.2c1.8,0.1,3.6,0.1,5.3,0.2l2.6,0.1h32.8
	l-4.8,0.2c23.2,0,49.4-0.1,77.9-0.3c-0.3,1-0.6,1.8-0.8,2.4c0.5-0.6,1-1.3,1.2-2l0.2-0.4h1C414,1397.3,413.8,1397.7,413.7,1398z
	 M1294.5,1402.7c-0.2,0.1-0.5,0.1-0.7,0l-0.3-0.2l0,0v0.1c-0.2,0-0.3-0.1-0.5-0.2l0.5,0.2v0.3l-0.1,0.7c-0.1,0.4-0.1,0.8-0.2,1.1
	c-0.1,0.7-0.2,1.2-0.3,1.5c0,0.4-0.1,0.8-0.3,1.1c-0.1,0.2-0.2,0.2-0.5,0.7c-0.2,0.2-0.3,0.6-0.6,1.1s-0.6,1.1-1,1.9
	c-0.7,1.7-1.2,3.4-1.6,5.1c-0.3,1.3-0.9,2.4-1.8,3.3c0.2-0.3,1.3-0.6,0.9,0.6c-0.9-0.6-1.2,3-2.4,2.7c-0.3,0.5-1.1,1.4-1.5,2.2
	s-0.7,1.4,0.2,1.5c-0.7,0.1-1.3,0.4-1.9,0.8c-0.6,0.3-1,0.3-0.5-0.6c-0.8,0.7-1.7,1.3-2,2.1l1.2-0.7c-1,1.1-2.2,2-3.4,2.8
	c-1,0.6-1.9,1.6-2.4,2.7l1.4-0.4c-0.4,0.3-0.8,0.7-1.2,1c-0.4,0.3-0.8,0.5-1.2,0.7c-0.7,0.4-1.5,0.4-2.2,0.1
	c0.6-0.5,1.1-1.1,1.6-1.6c-2.9,2-4.7,3.1-7.1,5c0.3-0.1,0.7-0.2,1-0.4c-1.4,1.4-6.7,4.5-12.6,6c-2.8,0.8-5.6,1.3-8.4,1.7
	c-1.3,0.1-2.4,0.3-3.3,0.4c-0.7,0.1-1.5,0.2-2.2,0.4l1.6,1.2c-1.1,0.2-2.2,0.4-3.3,0.5c0.4,0.1,1.7-2.6,2.1-2.8
	c-3.1-0.3-6.2-0.8-9.2-1.7c-4.8-1.3-9.3-3.4-13.5-6c-4.3-2.7-8.1-5.9-11.5-9.6c-1.3-1.4-2.6-2.9-3.7-4.5c-0.8-1-1.4-2-2-3.1
	c-1-2.5,1.2-1.5,1.3-1.6c-2-2.3-1.7-0.4-3-2.7c-0.2-0.7,0.8-0.4,1.2-0.2c-0.7-0.9-0.8-2.1-1.4-1.9c0.3,1.5-1.2,1.8-1.7,2.9l-1.6-3.2
	l0.9-0.4c-0.2-0.3-0.9-0.5-1.8-0.9c-1.2-0.6-2.1-1.7-2.3-3c-0.2-0.7-0.5-1.4-0.8-2.1s-0.5-1.4-0.7-2.2c-0.6-1.4-0.9-2.9-1.4-4.4
	c-0.2-0.9-0.5-1.7-0.7-2.6c15.8,1,31.3,2.2,47.4,2c0.4,0.6-0.1,0.5-0.6,0.8c5.3-0.6,10.1-0.4,15-1c0.9,0.4,1.7,1.1,2.1,2
	c-0.4-0.6,6.3-0.8,13.2-1c3.4-0.1,6.9-0.1,9.6-0.1c1.5,0,3,0,4.6,0.1l0.3-2.4c5.3,0,1.5,2.7,6.4,2.2c0.9-1.7,3-1.6,5-1.3h0.4h0.2
	c0.1,0,0,0,0,0v0.1c0,0.1,0,0.1,0.1,0.2c0.1,0,0.1-0.1,0.2-0.5c0,0.5,0,1-0.1,1.4c0.4-1.8,0.2-0.4,0.4-0.9c0.1-0.4,0.2-0.7,0.2-1.1
	c0.2-0.2,0.4-0.4,0.6-0.7c-0.1,0.7-0.3,1.3-0.7,1.9c0.2,0.3,0.3,0.6,0.2,1l0.7-0.5l-0.8,0.7l-0.1,0.1l0,0l0,0v0.1l-0.1,0.1l-0.2,0.2
	c-0.1,0.1-0.2,0.2-0.2,0.2s0,0.1,0.1,0.2c1.1,0.1,0.4,0,2.2-0.2c0.5,0.1,0.3,0.2,0.2,0.3s-0.2,0.1,0.3,0.2
	C1295.7,1402.4,1295.1,1402.5,1294.5,1402.7L1294.5,1402.7z M1374,971.8c-0.2,14.8-0.7,29.9-1.2,45.2c-0.5,15.3-1.3,30.7-2,46.2
	s-1.5,30.9-2.3,46.3s-1.4,30.5-2,45.4c-1.1,29.8-1.7,58.4-2.1,84.5c-0.1,6.5-0.2,12.9-0.3,19.1c0,0.8,0,1.6,0,2.3c0,0.4,0,0.7,0,0.9
	v0.8c-0.1,1,0,2.1-0.2,3.1s-0.2,2-0.3,3s-0.3,2-0.4,2.9c-1.1,7.2-3.3,14.2-6.4,20.8c-1.4,2.9-3,5.7-4.7,8.4
	c-1.6,2.4-3.3,4.7-5.2,6.9c-3,3.6-6.3,6.9-9.9,9.9c3.5-2,8.7-6.6,12.9-11.9c4.4-5.2,7.7-11,10.2-13.9c-0.2,0.5-0.3,1-0.6,1.5
	s-0.4,0.9-0.6,1.4c-0.4,0.9-0.8,1.8-1.2,2.6s-0.8,1.6-1.2,2.4l-1.3,2.2c-0.4,0.7-0.9,1.3-1.3,2s-0.8,1.2-1.3,1.8
	c-0.9,1.1-1.7,2.2-2.5,3.2c-3.3,3.9-6.1,6.6-8.5,9.5c-1.7,0.5-4.4,2.2-7.8,4.2c-3.9,2.4-8,4.6-12.2,6.4c-4.6,2-9.4,3.4-14.3,4.3
	c-4,0.8-8.1,0.9-12.2,0.3c-2,0.8-4.1,1.4-6.2,1.9l-12-0.7c-53.1,2.4-59.1,2.9-63.7,3c-4.1,0.1-7-0.1-42.4,1.1l-1.2-0.8l-0.8,0.4
	c0,0,0,0.2-0.1,0.5l-10.1,0.3c-27.2,1.2-47.3,2.5-64.4,3.5c-16.3,1-29.8,1.7-44.2,1.9c2.2,0,4.4,0.1,6.6,0.2
	c-127.2-0.6-252.2-1.2-380.5-1.3c-10.5-0.4-22.8-0.8-36.3-1.2c-15.5-0.5-32.5-0.8-50.3-1.1s-36.4-0.3-54.9-0.4
	c-37.1-0.2-74-0.1-104.5,0.3c-15.2,0.2-28.8,0.4-40,0.7s-19.9,0.6-25.4,0.9l3,0.2H359c2.9-0.9,5.8-1.6,8.8-2l-43.8,0.2l-15.4,0.1h-2
	H305c-1,0-2.1,0-3.2-0.1l-3.2-0.2c-1.1-0.1-2.2-0.3-3.3-0.4c-9.4-1.2-18.4-4-26.8-8.3c-19.2-9.9-33.8-26.9-40.6-47.5
	c-0.1-0.9-0.3-2.1-0.8-4c-0.2-1.5-0.8-3.5-1.2-6.2c-0.6-3.5-1-7.1-1.2-10.7c-0.2-0.9-0.3-1.9-0.4-3c0-0.3-0.1-0.5-0.1-0.9l-0.1-1.1
	c0-0.8-0.1-1.6-0.1-2.4c-0.1-3.3-0.2-7.1-0.3-11.3c-0.1-8.2,0-17.7,0.1-27.1c0.2-18.8,0.5-37.3-0.1-45.2c0.1-1.1,0.1-2.2,0.1-3.3
	c0-2,0.1-4.8,0.1-7.4c0.1-5.4,0.3-10.6,0.7-9.9c-1.2-6.9-0.3-23.1-0.6-37.2c-0.3-5.1-0.4,3.8-0.7,7.6l-0.4-32.4
	c0.4-12.7,1.1-15.8,1.2-2c0.1-42.4,0.5-165.2,0.9-289c0.1-61.8,0.2-123.9,0.3-176.2c0-13.1,0-25.5,0-37.2c0-5.8,0-11.5,0-17v-6
	c0-0.7,0-1.3,0-1.9c0.1-2.3,0.1-4.6,0.2-6.8c0.3-8,1.1-15.9,2.5-23.7c0.3-1.7,0.6-3.4,0.9-5s0.7-3.2,1.1-4.6s0.6-2.9,1-4.2
	s0.7-2.6,1.1-3.8c-0.5,1.2-1,2.6-1.5,4.2s-0.9,3.4-1.4,5.3c-1.1,3.8-1.8,8.1-2.6,12.4c-0.6,4.3-1.4,8.6-1.7,12.4
	c-0.2,1.9-0.5,3.7-0.7,5.3s-0.3,3-0.6,4.2c0-1.3,0-2.7,0-3.9s0.1-2.5,0.2-3.7c0.1-2.3,0.2-4.6,0.4-6.6s0.5-4,0.7-5.8
	c0.1-0.9,0.2-1.8,0.4-2.6s0.3-1.7,0.5-2.4c1.1-6.3,2.4-11.1,3.1-15.8c0.7-1.3,1.3-2.7,1.8-4.1c0.3-0.9,0.7-1.9,1.1-2.9
	c0.4-1,0.8-2.2,1.3-3.3c0.9-2.4,1.8-5,3-7.7l1.7-4.2c0.3-0.7,0.6-1.4,0.9-2.1s0.7-1.4,1-2.1c0.7-1.5,1.4-2.9,2-4.4s1.5-2.9,2.3-4.3
	s1.5-2.8,2.3-4.2l0.5-0.8c2-3.1,4.1-6.2,6.3-9.2c7-9.5,14.8-18.4,23.2-26.5c8.1-7.8,16.2-14.6,23.6-20.6c0.3-1.1,0.6-2.3,1-3.4
	c1.2-0.9,2.2-1.6,3.1-2.2l2.8-1.8c1.5-1,2.4-1.6,3.3-2.1l3-1.6l2.4-1.3l1.6-0.9c0.6-0.3,1.2-0.6,2-1l5.1-2.6c2-1,4.5-2,7.3-3.3
	c1.4-0.7,3-1.2,4.6-1.9s3.4-1.4,5.3-2l6.2-2l1.7-0.6l1.7-0.5l3.6-1c10.2-2.8,20.7-4.9,31.2-6l6.8-0.7l6.4-0.3c1.1,0,2-0.1,3.2-0.1
	l3.4-0.1l6.5-0.1l2.5,0c8.7,3.5,21.6,6.4,40,7.9l-1.8,1.5l21.8-0.5c26.1,0.4,38.2-1.4,36.4,0l-35.8,0.3c26.2,0.1,7.9,1.1-2.1,2
	c11,0,21.6,0,30.3,0.4c5.2-0.6-3.8-0.5-7.9-0.8c14.1-0.7,33.8-2.3,51-1.8c26.9-0.2,1.7,2.2,33.1,2l123.3-0.9
	c20.5-0.2,40.9-0.2,61.3-0.6c10.2-0.2,20.4-0.4,30.6-0.4s20.4,0.1,30.6,0.2l122.7,1.4c41.1,0.5,82.5,1,124.2,1.3
	c3.8,0.6-0.7,0.5-5.6,0.7c25.2,0,49,0.1,72.2,0.3l34.5,0.2h17.1h8.5l7.1,0.2c2.6,0.3,4.7,0.7,6.5,1l2.4,0.5c0.7,0.2,1.3,0.4,1.9,0.5
	c2.3,0.7,3.7,1.3,5.2,1.8c-0.4-0.1,0.1-0.1,1.3,0s3.1,0.5,5.7,0.9l2.1,0.3l2.2,0.5l5.1,1.2c1.8,0.5,3.8,1.1,5.8,1.6
	c1,0.3,2.1,0.5,3.2,0.9l3.3,1.1c10.4,3.6,20.3,8.2,29.8,13.9l2,1.1l1.9,1.3l3.9,2.5c1.3,0.8,2.6,1.8,3.9,2.8s2.6,1.8,3.9,2.8l3.8,3
	c0.6,0.5,1.3,1,1.9,1.5l1.8,1.6l3.7,3.2l3.6,3.4c1.2,1.1,2.4,2.2,3.5,3.5l3.3,3.6c1.1,1.2,2.1,2.5,3.2,3.7l1.6,1.9
	c0.5,0.6,1,1.2,1.5,1.9l2.9,3.9c1,1.2,2,2.5,2.9,3.8l2.9,3.8l2.6,3.9c6.4,9.5,11.7,19.6,15.9,30.3c3,7.7,5.4,15.6,7.3,23.7
	c0.6,3,1.1,5.4,1.4,7.1s0.4,2.8,0.4,3l2.9,2.3c0.2,1.3,0.4,2.5,0.5,3.6s0.2,2.2,0.3,3.3c0.2,2.1,0.4,3.9,0.4,5.5s0,3,0.1,4.3
	s-0.1,2.3-0.1,3.2c0,0.5,0,1,0,1.4s0,0.9-0.1,1.3c0,0.8-0.1,1.5-0.2,2.1c-0.1,1.2-0.3,2-0.4,2.8c-0.5,3.1-1,5.8,0.1,28.7
	c2,9,2.6,28,3.1,46.8s0.9,37.3,2,45.2c-0.2-0.4,0.6,22.1-0.4,20.7c1.8,6.9,1.3,23.1,2.3,37.2c0.6,5.1,0.3-3.8,0.6-7.6l1.7,32.4
	c0,12.7-0.7,15.8-1.4,2c0.6,21.2,1.9,62.5,2.3,114C1374.4,913.9,1374.6,942.2,1374,971.8z"/>
<path d="M1241.4,1445.4L1241.4,1445.4C1241.5,1445.4,1241.5,1445.4,1241.4,1445.4z"/>
<path d="M1293.5,1402.5L1293.5,1402.5C1293.5,1402.5,1293.5,1402.5,1293.5,1402.5z"/>
<path d="M1114.7,1063.1L1114.7,1063.1z"/>
<path d="M1158.1,929.5c-0.9-2.2-1.9-4.3-3.1-6.3c-0.6-1-1.2-2-1.9-3c-0.7-1-1.3-2-2-3l-2-2.9l-1.1-1.5c-0.4-0.5-0.9-1-1.3-1.5
	c-0.9-1-1.8-2.1-2.8-3.1s-2.2-2-3.4-3.1c-5.6-4.6-12-8.1-19-10.2c-1-0.3-2-0.6-3-0.8s-2.1-0.4-3.1-0.6c-1.1-0.2-2.1-0.4-3.2-0.5
	c-1.1-0.1-2.2-0.1-3.3-0.2l-1.7-0.1h-0.4h-2.9h-4.4l-18.9,0.2c-26.4,0.3-57.4,1-88.5,1.9l-88.5,2.5c-26.4,0.7-48.3,1-60.8,1.2l2-0.1
	c-38.4,0.7-96.9,0.9-155.8,0.3l-86.1-1c-27.1-0.3-51.8-0.4-71.7-0.3c-6.1-0.4-13.4-0.6-20.8-0.7l-11-0.1l-5.3-0.1h-0.7h-0.9
	l-1.9,0.1l-1.8,0.1l-0.9,0l-0.9,0.1c0.6-0.1,1.2-0.2,1.8-0.2h1.5c0.9,0,1.6,0,2.1,0c1,0,1.3,0.1,1,0.2c-0.8,0.2-1.6,0.3-2.5,0.3
	c-1.7,0.1-3.3,0.3-5,0.6c-1.6,0.2-3.3,0.6-4.9,1.1c-1.5,0.5-2.9,0.8-4.1,1.3c-2.2,0.8-4.3,1.8-6.3,3l-2.5,1.5
	c-0.7,0.4-1.3,0.9-1.9,1.3c-1.1,0.8-2,1.5-2.8,2.1c-1.2,1-2.3,2-3.3,3.2c-0.3,0.4-0.6,0.8-3,3.6c-0.3,0.3-0.6,0.7-1,1.2l-1.1,1.5
	c-0.8,1.1-1.8,2.3-2.7,4c-0.5,0.8-1,1.7-1.6,2.6s-1,2-1.6,3.1c-1.2,2.5-2.3,5.1-3.2,7.7c-0.5,1.7-1.1,3.6-1.6,5.7
	c-0.2,1-0.4,2.1-0.7,3.2c-0.1,0.5-0.2,1.1-0.3,1.7s-0.1,1.2-0.2,1.7c-0.1,1.2-0.3,2.4-0.4,3.6s-0.1,2.5-0.2,3.8l-0.1,2
	c0,0.5,0,1.1,0,1.6c0,1.1,0,2.2,0,3.4c0.1,9.2,0.1,19.8,0.2,31.5s0.1,24.3,0.2,37.4c0,1.6,0,3.3,0,4.9v1.9v0.8c0,1,0.1,2.1,0.1,3.1
	c0.1,2.1,0.3,4.1,0.7,6.2c0.1,1,0.3,2.1,0.6,3.1l0.7,3.1c2.2,8.3,6.1,16.1,11.5,22.8c0.7,0.9,1.4,1.7,2.2,2.5
	c0.8,0.8,1.5,1.6,2.3,2.4l2.5,2.2c0.4,0.4,0.8,0.8,1.3,1.1l1.4,1c0.9,0.7,1.8,1.3,2.8,2l3,1.7c0.5,0.3,1,0.6,1.5,0.8l1.6,0.7
	c1.1,0.4,2.1,0.9,3.2,1.3l3.3,1c0.6,0.2,1.1,0.3,1.7,0.5l1.7,0.3c1.1,0.2,2.3,0.4,3.4,0.6l3.4,0.2l1.7,0.1h1.3h2.5h4.9l36.7-0.2
	c22.7-0.2,41.1-0.2,51.2-0.2c21.7-1.2,48.7-0.7,69.9-1.4l-2.1,0.2c11.4-0.2,49.3-0.3,87.7-0.2l54.7,0.3c16.2,0.1,29.2,0.2,35.8,0.2
	l-3.5-0.2c23.1-0.4,19.9,0.6,38.1,1.1c-2.4-1,17.4-1.4,24.9-1.3l-0.3,0.2c11.4,0,37.2-0.6,56-0.5l-0.7,0.6
	c7.8-0.2,19.1-0.1,29.8,0.1l26.5,0.5c12.9,0.4,29.2,1.1,46.7,1.8c14.6,0.6,30,1.1,44.7,1.3c-2.8,2.6,1.9,3.4,1.9,3.4
	c3.3-0.4,5.2-0.6,6.3-0.7h0.9h0.8c0.4,0,0.7,0,1,0c0.9,0.1,1.9,0,2.8-0.1c1.2-0.1,2.3-0.3,3.5-0.6l1.8-0.4l1.4,0.2
	c-0.8,0.3-1.8,0.6-2.9,0.9c-1.5,0.4-3,0.8-4.5,1l-2.6,0.4l-2.4,0.3l-3.8,0.5c-2.6,0.3-3.2,0.5-0.9,0.3l3.4-0.3l1.6-0.1l2.2-0.2
	c1.6-0.2,3.2-0.3,4.6-0.6s2.8-0.7,4-1c0.6-0.2,1.2-0.3,1.7-0.5l1-0.4c3,0.4,6,0.9,9,1.4l3.3-0.1c1.7-1.4,3.4-2.9,4.9-4.6
	c3.1-3.2,5.6-6.9,7.3-10.9c0.3-0.9,0.6-1.8,0.8-2.7c1.2-1.5,2.3-3.1,3.4-4.8c3.3-5.3,6-10.9,8-16.8v0.2c2-6,3.1-12.3,3.3-18.7
	c0-1.4,0-2.8,0-4.2v-0.5v-0.4v-0.8c0-0.5-0.1-1-0.1-1.6c-0.1-2.1-0.3-4.1-0.4-6.1c-0.5-8-1-15.8-0.8-25.6l0.2,2.1
	c0.1-3.5,0-8.6,0.2-14.5s0.5-12.4,1.3-18.7c-0.4,3.6-1.2,6.7-0.6-0.9c0.4-3.6,0.8-6.9,1.2-10c0.2-1.6,0.3-3.1,0.5-4.6
	c0.1-1.9,0.2-3.8,0.2-5.7C1161.3,943.7,1160.2,936.4,1158.1,929.5z M1070.7,1064.3c-34.2,1-67.8,1.7-101.5,2.3l-102.1,1.7
	c-1.6-0.2,0.3-0.2,2.3-0.3c-10.4,0.2-20.2,0.4-29.8,0.6s-19,0.2-28.4,0.4c-2.8-0.1-5.5-0.3-8.3-0.7c1.6,0.2-24.6,0.5-51.3,0.6
	l-19.8,0.1h-17.4c-10.3,0-17.3-0.1-17.8-0.1l-1.3,0.9c-20.5-0.1-6-1.1-24.9-1c-7.4,1.3-31.5-0.4-38,0.2c0.1-0.1-9.1-0.2-8.5-0.7
	c-2.8,0.7-9.5,0.1-15.4,0.2c-2.1,0.2,1.5,0.2,3.1,0.5l-13.4,0.1c-5.2-0.3-6.5-0.8-0.8-0.8l-47.1-0.9l-34.5-0.7l-18.7-0.3h-2.4h-1.2
	l-0.6-0.1c-0.4-0.1-0.8-0.1-1.2-0.1s-0.8-0.2-1.2-0.2c-1.6-0.4-3.1-0.9-4.6-1.7c-3.2-1.9-5.9-4.5-8-7.6c-2.2-3.5-3.7-7.3-4.5-11.3
	l-0.3-1.5c-0.1-0.5-0.1-1-0.2-1.5l-0.2-1.5c0-0.5,0-1,0-1.6s0-1,0-1.5c0-0.1,0-0.3,0-0.5v-0.6v-1.1c0-1.5,0-3,0-4.4
	c0.1-5.8,0.1-11.5,0.2-16.9c0.2-21.6,0.3-39.2,0.2-48.6c-0.7,4.8-0.3,16.5-1.4,20.9c-0.6-10,0.3-14.7-0.3-19.1
	c0.5-1.7,0.8-3.4,0.8-5.2c0.1-1.2,0.1-2.5,0.2-3.9v-1v-0.5v-0.4c0-0.5,0.1-1,0.1-1.5s0-1,0.1-1.5s0.2-1,0.2-1.5
	c0.1-0.5,0.2-1,0.3-1.5c0.1-0.5,0.3-0.9,0.4-1.4s0.2-0.9,0.4-1.3s0.4-0.8,0.5-1.2c0.3-0.7,0.7-1.3,1.1-1.8l-0.2-2.1
	c0.3-0.5,0.7-0.9,1-1.3c0.3-0.4,0.6-0.8,1-1.2c0.5-0.7,0.8-1.4,1.2-2s0.8-1.2,1.2-1.7c0.7-0.9,1.4-1.7,2.2-2.5l0.9-0.9
	c0.3-0.2,0.6-0.5,0.9-0.7l0.7-0.6l0.6-0.4c0.4-0.2,0.7-0.5,1-0.7l0.7-0.3l0.8-0.4c0.2-0.1,0.5-0.2,0.8-0.2c0.3,0,0.8-0.2,1.4-0.3
	c0.4,0,0.8-0.1,1.2-0.2c0.3-0.1,0.5-0.1,0.8-0.1c0.3,0,0.6,0,0.9,0h0.3h1.6h2.7h6.5c22-0.3,32.7-1.6,44.9-1.3
	c-2.1-0.1-5.3-0.5-0.2-0.8c1,0.8,15.5-0.8,18.4,0c5.7-0.2,24.2-0.3,17.9-1.3c3.1,0.5,19.7,0.4,9.8,1c5.6-0.1,11,0,15-0.3l-7.2-0.2
	c18.8-0.4,29,0.2,41.3-0.9l-7-0.3c11.2-0.2,20.6-0.4,25.1,0.4l-11.5,0.5c18.6-0.3,29.9-0.5,45.4-1.2h-5.5c9.9-0.6,40.7-1.3,71.4-1.7
	s61.1-0.7,70.2-1.2l-8.4-0.8l15.7-0.5c-1.7,0-6.5,1.8-8.5,2c35-0.2,208,3.1,238.9,3.6c12.5,0.6,2.2,1.5,2.1,1.7
	c15.2-0.2,6.6-0.9,19.5-0.8c3.5,0.2-0.7,0.8-2.7,0.9c5.7-0.1,10.9,0.3,11.4-0.2c-7.1-0.4-4.1-1.5-7.1-2.3l8.3,0.1h4.2h1
	c0.3,0,0.4,0,0.7,0.1c0.4,0,0.8,0.1,1.2,0.1l-0.5,0.7c0.3,0,0.6,0,0.8,0c0.3,0,0.6,0,1,0l1.3-0.1l1.6,0.1c0.7,0.1,1.3,0.2,1.9,0.4
	c0.4,0.1,0.7,0.2,1.1,0.3l1.2,0.6c0.9,0.5,1.8,1,2.6,1.6c0.5,0.4,0.9,0.8,1.4,1.2l0.7,0.6c0.2,0.2,0.5,0.5,0.7,0.8
	c0.4,0.5,0.8,0.9,1.2,1.3s0.7,1,1.1,1.5l0.6,0.7l0.5,0.8c0.3,0.5,0.7,1,1.1,1.6c2.8,4.6,4.7,9.7,5.7,15c0.2,0.7,0.2,1.4,0.3,2.1
	l0.1,1.1c0,0.4,0.1,0.7,0.1,1.1l0.4,5.4c0.5,7.2,0.9,14.4,1.2,21.6s0.3,14.2,0.2,21.2c-0.3-0.4-0.4-6.3-0.7-12.1
	c0,3.7,0.1,9.4-0.2,12.8c0.7-6.7,0.2,11.7,0.6,6.4c0.3,5.1,0.3,10.5,0.3,16.2c0,2.8,0,5.7-0.1,8.5c0,0.4,0,0.6,0,0.9l-0.1,0.9
	l-0.1,1.8c-0.1,1.2-0.4,2.3-0.5,3.4c-0.8,4.3-2.4,8.5-4.6,12.3c-1.4,2.4-3,4.6-4.9,6.6c-3,0.1-6.2,0.2-9.3,0.2
	c2.8,0.2,5.6,0.4,8.6,0.4c-0.4,0.4-0.8,0.8-1.2,1.2l0.7-0.8l-9,0.5c-10.8,0-15.8,1.2-15,0.3l14.8-0.5c-10.8,0.2-3.3-0.5,0.9-1.2
	c-4.5,0.1-8.9,0.2-12.5,0.1c-2.1,0.4,1.6,0.3,3.2,0.4c-5.8,0.5-14,1.6-21,1.5C1073.3,1065.4,1083.7,1063.9,1070.7,1064.3z"/>
<path d="M549,927.5h0.8H549z"/>
<path d="M830.8,922.5h-0.6C830.4,922.5,830.6,922.5,830.8,922.5z"/>
<path d="M468.5,583h-0.1H468.5L468.5,583z"/>
<path d="M476,551.5c1-0.1,2-0.2,3.1-0.4L476,551.5z"/>
<path d="M748.5,638.4c-0.1-1.6-0.2-3.4-0.3-5.4c-0.2-4-0.4-8.5-0.6-13.6s-0.3-10.5-0.2-16.1s0.2-11.5,0.5-17.3l0.1-2.2v-1.1v-0.3
	c0-0.1,0-0.3,0-0.4v-1c-0.1-1.3-0.2-2.6-0.5-3.8c-0.8-3.7-2.5-7.1-4.8-10.1c-1.5-1.8-3.2-3.4-5.1-4.8c-3.6-2.5-7.7-4.2-12-4.9
	l-1.5-0.2c-0.5-0.1-1-0.1-1.5-0.1l-1.4-0.1h-1l-3.7-0.1c-9.8-0.2-17.7-0.5-22-0.7c-9.3,0.7-21-0.1-30.1,0.4l0.9-0.2
	c-9.8,0.2-65.3-1.3-76.7-1.1l1.5,0.2c-9.9,0.5-8.6-0.6-16.4-1c1,1.1-7.5,1.6-10.7,1.7l0.1-0.2c-4.9,0.1-16,1-24.1,1l0.3-0.6
	c-6.8,0.6-19.4,0.2-24.3,0.2c-10.5-0.3-26.2-1.5-40.4-1.1c0.7-1.1,1.3-2.2,1.7-3.4c2.4-0.2,4.8-0.4,5.5-0.4c-0.6-0.3-5.3,0-7.9,0.5
	l-0.4,0.9c-0.8,0.1-1.1,0.2-2.1,0.2l-1.8,0.2c-0.5,0.1-1,0.1-1.4,0c-0.5-0.1-0.9-0.1-1.4,0c-0.6,0.1-1.2,0.2-1.7,0.3l-0.6,0.2
	l-1-0.2c1.2-0.5,2.3-0.9,3.6-1.2c0.8-0.2,1.7-0.4,2.7-0.5l1.5-0.2c0.5,0,1.1-0.1,1.3-0.1l3.4-0.4c-1,0.1-2,0.1-3,0.2l-2.1,0.1
	c-0.8,0-1.7,0.1-2.5,0.3c-2,0.3-3.9,0.8-5.8,1.6h-0.2l-1.4,0.2c0,0-0.2,0.3-0.6,0.9c-1.1,0.4-1.7,0.7-2.1,0.7s-0.4,0-0.4-0.1
	s-0.1-0.2-0.7,0c-0.4,0.2-0.9,0.4-1.3,0.6c-0.8,0.4-1.6,0.8-2.3,1.3c-2.9,2.3-5.4,5-7.4,8.2c-2.2,3.5-3.8,7.3-4.7,11.4l-0.1-0.2
	c-0.2,1.2-0.4,2.4-0.5,3.6c0,0.6-0.1,1.2-0.1,1.7v1c0,1,0.1,2,0.2,3c0.2,1.9,0.4,3.6,0.6,5.4c0.5,3.6,0.7,7.3,0.7,11l-0.2-0.9
	c-0.2,3,0.5,8.9,0.3,14.3c0.1-1.5,0.4-2.9,0.6,0.4c-0.1,6.2,0,10.4-0.8,15l0.2,4.3c-0.1,0.7-0.1,1.4-0.2,2.2c0,0.4-0.1,0.8-0.1,1.2
	c0,0.2,0,0.4,0,0.7v0.2v1c0,4.2,1,8.3,2.9,12c4,8.1,12.8,14.2,22.7,15.5c1.2,0.2,2.5,0.3,3.8,0.3h0.9h1.6h4.5l9.4,0l19.8-0.1
	l64.3-0.5l-0.8,0.1c33-0.3,100.9-0.6,135-1.7c2.6,0.3,5.8,0.4,9,0.4h4.7h1.9h0.9c1.2,0,2.4-0.1,3.5-0.3c-2.5,0.3-3.4,0-3.1-0.1
	c0.4-0.1,0.8-0.2,1.2-0.2l2.4-0.4c2.7-0.5,5.2-1.3,7.7-2.5c0.9-0.5,1.7-0.9,2.3-1.3s1.1-0.7,1.5-1c0.7-0.4,1.3-1,1.9-1.7
	c0.2-0.2,0.3-0.4,1.7-1.9c0.3-0.4,0.8-0.8,1.2-1.4c0.6-0.7,1.1-1.5,1.6-2.2c1.6-2.5,2.8-5.3,3.5-8.2c0.2-1.2,0.4-2.4,0.5-3.6
	c0-0.7,0-1.3,0-2C748.6,639.2,748.6,638.8,748.5,638.4z M724.8,582.4L724.8,582.4z M725.9,630.6c-0.7,0.8-0.9,3.2-1.1,5.7l-0.2,1.9
	c0,0.3-0.1,0.6-0.1,1v0.2l0,0l0,0c-0.1,0-0.2-0.1-0.2-0.1l-0.3-0.1c0.1,0,0,0.2-0.2,0.4c-0.1,0.2-0.3,0.3-0.4,0.4
	c-0.3,0.2-0.4,0.3-0.5,0.3s-0.2,0-0.5,0c-0.2,0-0.5,0-0.7,0c0.2,0-2,0-4-0.1c-9.5,0-14.2,1-19.4,0.7c0.9,0.1,2.5,0.5,0.2,0.6
	c-0.4-0.7-6.7,0.4-7.9-0.2c-2.5,0.1-10.4-0.1-7.7,0.8c-1.3-0.5-8.5-0.7-4.2-1c-2.1-0.1-4.3-0.1-6.5,0l3.1,0.3
	c-8.1,0.1-12.5-0.7-17.8,0.2l3,0.4c-4.8,0-8.9,0.1-10.8-0.8l5-0.3c-8,0-12.9,0-19.5,0.5h2.4c-8.5,0.9-53.1,1.5-61,2.7l3.6,0.7
	l-6.8,0.6c0.7,0,2.8-1.9,3.7-2.1l-51.8,0.2c-22.3,0.1-44.5,0.2-51.1-0.1c-1.3-0.1-2.2-0.2-2.1-0.4c-0.1-0.1-0.1-0.3,0-0.4
	c0,0,0,0,0,0c-0.1-0.2,1.3-0.5,1.3-0.5h-1.1c-0.1,0-0.2,0-0.3,0c-0.2,0-0.3,0.1-0.5,0.1c-0.2,0-0.3,0.1-0.5,0.2
	c-0.2,0.1-0.5,0.2-1.4-0.2c-0.4-0.3,0.3-0.5,0.6-0.5c-0.8-0.2-1.1-0.8-1.4-0.5c0.2,0.3,0.3,0.7,0.2,1c-0.1,0.3-0.2,0.7-0.1,1
	c-0.8-0.4-1.5-0.9-2.1-1.6l0.5-0.3c-0.1-0.1-0.3-0.1-0.4-0.2l-0.4-0.1l-0.4-0.1c-0.2-0.1-0.3-0.1-0.4-0.2c-0.1-0.1-0.3-0.2-0.4-0.4
	c0-0.1-0.1-0.2-0.1-0.3c-0.1-0.1-0.1-0.2-0.1-0.3v-0.2c0-0.1,0-0.2,0-0.3c0-0.4,0-0.8,0-1.3c-0.2-6-0.6-12.2-0.5-18.4
	s0.2-12.4,0.4-18.4c0.3,0.2,0.4,2.7,0.5,5.2c0-1.8,0.1-3.7,0.3-5.5c-0.6,2.9-0.2-5-0.5-2.8c-0.4-4.8-0.5-9.5-0.2-14.3V583v-0.1
	l3.4,0.1c-1.1-0.2-2.2-0.4-3.4-0.6l0,0v-0.1c0-0.1,0-0.2,0.1-0.2l3.7-0.1c4.6,0.3,6.8-0.5,6.5,0.1H469c4.7,0.1,1.4,0.5-0.4,0.9
	c2,0,3.8,0.1,5.4,0.3c0.9-0.3-0.7-0.3-1.4-0.4c2.5-0.3,6-0.9,9.1-0.7c4.8,0,0.3,1,5.9,1c29.4,0.2,57.9,0.4,87.7-0.2
	c0.7,0.2-0.1,0.2-1,0.4c9-0.4,16.9-0.4,25.1-0.8c1.2,0.1,2.4,0.3,3.6,0.8c-0.7-0.2,10.6-0.5,22.1-0.8l16-0.3
	c4.4-0.1,7.5-0.1,7.7-0.1l0.6-1c8.8-0.1,2.6,1.1,10.7,0.7c3.2-1.4,13.5-0.1,16.4-0.8c-0.1,0.1,3.9,0.1,3.7,0.5
	c1.2-0.8,4.1-0.2,6.6-0.5c0.9-0.2-0.7-0.2-1.3-0.4l5.8-0.3c2.2,0.2,2.8,0.6,0.4,0.7l20.3-0.1h7.2h2.8h0.3c0.4,0,0.7,0.1,1.1,0.1
	c0.6,0.1,1.1,0.4,1.5,0.8c0.2,0.1,0.2,0.3,0.3,0.3s0,0.1,0.2,0l0,0v0.8c0,1.4,0.1,2.8,0.2,4.1c0.1,2.7,0.2,5.4,0.3,8.1
	c0.2,5.3,0.2,10.4,0.1,15c-0.2,9.3-0.7,16.9-0.8,20.9c0.6-2.1,0.6-7.1,1.4-9C726.2,626.7,725.5,628.7,725.9,630.6L725.9,630.6z"/>
<path d="M698.3,640.9h-0.2H698.3z"/>
<path d="M577.1,643.2h0.2C577.3,643.2,577.2,643.2,577.1,643.2z"/>
<path d="M1129.7,700.6c0-0.9,0.1-1.8,0.1-2.8c-0.4,1.4-0.7,2.8-0.8,4.2c-0.3,1.6-0.4,3.5-0.7,5.2c0.5-1.4,0.9-2.8,1.1-4.3
	C1129.5,702.2,1129.6,701.4,1129.7,700.6z"/>
<path d="M1128.2,707.4L1128.2,707.4c0,0,0-0.1,0-0.1V707.4z"/>
<path d="M1161,688.1c0,1.3,0,2.5,0.2,3.8C1161.1,690.7,1161.1,689.4,1161,688.1z"/>
<path d="M1161,688.1c-0.1-2.5-0.2-5.1-0.3-7.2c0-1.7-0.4-3.3-1-4.9c-0.2-2.4,0.1-2.3,0.3-2.3s0.5-0.2,0.1-3c-0.9-4-2.8-9.1-3.6-13.8
	h0.2c-0.5-2.5-1.2-5-2.1-7.5c-0.7-2.1-1.6-4.1-2.6-6.1c-1.8-3.9-3.7-7.5-5.6-12.4l0.7,0.9c-1-2.4-2.1-4.7-3.4-6.9l-2.4-4.2
	c-0.8-1.5-1.7-2.9-2.5-4.4c0.9,1.7,1.3,3.4-0.9,0.1c-0.9-1.6-1.8-3.1-2.8-4.5c-0.9-1.4-1.8-2.7-2.7-3.8s-1.8-2.3-2.6-3.4
	s-1.6-2.3-2.4-3.4c-1.4-1.2-2.7-2.4-4.1-3.5l-4-4.2c-1.6-1.6-3.4-3.3-5.4-5.2l-3.2-2.8c-1.1-1-2.3-2-3.5-2.9l-3.8-3l-4.2-3
	c-6.2-4.2-12.7-8-19.5-11.2c-7.3-3.5-15-6.3-22.8-8.5c-7.8-2.2-15.8-3.7-23.8-4.5c-7.4-0.8-14.9-0.9-22.4-0.6
	c-10.7,0.6-21.3,2.3-31.6,5.2l1-0.4l-3.8,1.1l-2,0.6l-2,0.7l-4.1,1.4c-1.4,0.5-2.8,1.1-4.2,1.7c-2.9,1.1-5.8,2.5-8.8,3.9
	c-1.5,0.7-3,1.5-4.5,2.3s-3,1.6-4.6,2.5c-3.1,1.7-6.1,3.7-9.2,5.7l-4.5,3.2c-1.5,1.1-3,2.3-4.5,3.4c-6,4.8-11.6,10.1-16.7,15.8
	c-10.1,11.2-18.3,24-24.4,37.8c-1.5,3.2-2.6,6.5-3.8,9.7c-1,3.2-2.1,6.3-2.9,9.4c-0.4,1.5-0.8,3-1.2,4.5s-0.6,2.9-0.9,4.3
	c-0.2,0.7-0.3,1.4-0.4,2.1s-0.2,1.4-0.3,2.1c-0.2,1.4-0.4,2.7-0.6,4c-1.7,6.2-2.3,15.1-2.5,21.8c0.4-3.7,0.9-2.4,0.8,0.5
	c0.1,5.1,0.1,7.7,0.3,9.1s0.2,1.6,0.3,1.7c0.3,0.6,0.4,1.2,0.4,1.8c0.2,1.4,0.6,4,1.3,9.1c1.7,9.2,4.1,18.2,7.2,27
	c2.3,6,4.9,12,7.9,17.7c3.3,6.1,6.9,12,11,17.7c4.1,5.6,8.6,10.8,13.4,15.8c1.2,1.2,2.4,2.3,3.6,3.5c0.6,0.6,1.2,1.2,1.8,1.7
	l1.8,1.6c1.2,1,2.3,2.1,3.5,3.1l3.5,2.8c1.1,1,2.3,1.8,3.4,2.6l3.3,2.4c2.2,1.5,4.2,2.8,6.1,4.1l5.3,3.2l4.1,2.3
	c2.6,1.1,5.4,2.1,8.3,3.3l4.3,1.7l2.2,0.8c0.7,0.3,1.5,0.5,2.2,0.8l4.5,1.5c1.5,0.4,3,0.8,4.5,1.2l2.2,0.6c0.7,0.2,1.5,0.3,2.2,0.5
	c1.4,0.3,2.8,0.5,4.2,0.8h-1.1c2.9,0.6,9.2,1.8,17.3,2.6c9.3,0.9,18.6,0.9,27.9,0c9.4-0.9,18.8-2.8,27.8-5.6l5.7-1.9
	c1.8-0.7,3.4-1.3,4.8-1.9c0.7-0.3,1.4-0.6,2.1-0.8l1.8-0.8l2.9-1.4l-1.8,0.6l6-3.1c1.5-0.8,2.6-1.2,3.7-1.7l3.3-1.4
	c0.6-0.3,1.3-0.6,2.1-1s1.7-0.9,2.7-1.5c-0.9-0.2,0.8-1.8,3-3.7s5-4.1,6.4-5.4v0.3c1.1-1,2.6-2.2,4.2-3.7l1.6-1.6l2.1-1.3
	c0.4-0.4,0.8-0.8,1.1-1.2c0,0,0-0.2,0-0.6l0.4-0.5c1.8-1.9,3.7-3.9,5.4-5.9l2.6-3l1.2-1.5c0.2,1.3,0.5,2.6,1,3.8
	c-2,2.1-4.1,4.1-4.8,4.7c1.1-0.7,2.1-1.6,3-2.5c0.7-0.7,1.4-1.4,2.1-2.1s1.2-1.5,1.7-2l-0.3-1c4.3-5.5,1.6-0.8,5.8-6.2
	c0.4,0.1-0.4,1.4-1.6,3.2s-3.2,4.1-5.1,6.2c1.7-1.8,3.4-3.6,4.9-5.2c1.1-1.2,2.1-2.6,2.7-4.1c1.6-1.8,1.7-1.5,1.8-1.4s0.4,0.2,2.2-2
	c2.2-3.4,4.6-8.2,7.3-12.1l0.1,0.1c1.4-2.1,2.7-4.4,3.8-6.7c1-2,1.8-4,2.6-6.1c1.5-4,2.8-7.8,4.8-12.6l-0.1,1.1
	c1-2.4,1.8-4.8,2.5-7.2c0.4-1.5,0.8-3.1,1.3-4.7s0.8-3.3,1.3-4.8c-0.6,1.8-1.4,3.3-0.7-0.6c0.5-1.7,0.9-3.4,1.2-5.2
	c0.3-1.6,0.6-3.1,0.8-4.6s0.4-2.9,0.6-4.2s0.5-2.7,0.7-4.1c-0.1-1.8-0.2-3.6-0.3-5.4l0.2-5.8c0-1.2,0-2.5,0-3.8c0-0.2,0-0.4,0-0.5
	c0-1,0-2,0-3c0-0.6-0.1-1.2-0.2-1.8c-0.1-0.8-0.1-1.7-0.2-2.5c-0.1-1.5-0.2-3-0.4-4.5c-0.1-0.5-0.1-1.1-0.2-1.7
	c0.2,0.6,0.3,1.4,0.5,2.3C1160.5,682.3,1160.8,685.3,1161,688.1z M1105.4,761.6c-8.5,10.9-18.9,20.3-30.7,27.6
	c-0.7,0.1,0-0.3,0.6-0.8c-6.6,4.3-13.6,8-20.9,10.8c-1.1,0.3-2.3,0.3-3.5,0.1c0.2,0-0.3,0.2-1.3,0.6s-2.5,0.8-4.4,1.4
	c-0.9,0.3-2,0.5-3.1,0.8s-2.3,0.6-3.5,0.8c-2.5,0.4-5.1,1-7.8,1.3s-5.4,0.6-8,0.8c-1.3,0.1-2.5,0.1-3.7,0.1s-2.3,0.1-3.3,0
	c-2.1-0.1-3.8-0.1-5.1-0.2s-2-0.2-2.1-0.2l-0.6,1.2c-1-0.1-1.9-0.2-2.5-0.2c-0.5-0.1-1-0.2-1.5-0.3c-0.4-0.1-0.9-0.3-1.2-0.6
	c-0.3-0.3-0.7-0.4-1.1-0.5c-0.6-0.2-1.7-0.3-3.6-0.6c-1.1,0.3-2.3,0.3-3.4,0.1c-1.5-0.3-3-0.6-4.4-1c-1.5-0.4-3-1-4.3-1.3
	c-1-0.3-2-0.5-3.1-0.6c0.1-0.1-3.5-1.4-3-1.8c-1.4,0.6-3.7-1.2-6-1.8c-0.9-0.1,0.5,0.5,1,1c-1.8-0.5-3.4-1.2-5.1-1.9
	c-0.9-0.6-1.4-1-1.4-1.3s0.5-0.2,1.5,0.3c-5.7-2.8-11.2-6.1-16.3-9.8l-2.6-2l-2.7-2.2l-1.4-1.1c-0.5-0.4-0.9-0.8-1.3-1.2l-2.7-2.4
	c-3.7-3.5-7.2-7.2-10.4-11.1c-6.2-7.6-11.4-15.9-15.4-24.9c-2.7-6-4.9-12.1-6.6-18.4c-0.2,2.1,1.5,6.5,1.2,8.5
	c-0.4-0.8-0.8-1.6-1.1-2.5c-0.2-0.8-0.4-1.4-0.5-2c-0.2-1-0.5-2-1.1-2.9c0.6-1,0.2-3.2-0.2-5.5s-0.7-5-0.1-6.6l-1-1l0.3-2.1
	c-1.4-8.8-1.2-9.8-1.3-10.6s0-1.3,0.5-9.2c0.5-8.9,0.1-13.5,1.7-18.3c-0.2,0.6-0.7,1.5-0.8,1.1l0.3-1.4c0.1-0.3,0.2-0.7,0.3-1.1
	c1.1-4.3,2.4-8.5,4.1-12.6c2.4-6.2,5.3-12.1,8.6-17.9c-0.4,0.4-0.7,0.8-1,1.2c0.4-0.6,0.7-1.3,1-1.9c0.5-0.9,0.9-1.8,1.3-2.7
	c0.2-0.3,0.4-0.6,0.7-0.9c1-1.4,2-2.6,3.2-3.8l-1.4,2.3c0.7-1,1.3-1.9,1.9-2.8c0.3-0.2,0.6-0.4,0.9-0.6v-0.7
	c0.4-0.6,0.8-1.2,1.2-1.7l0.5-0.3c5.4-7.2,6.2-7.8,6.8-8.4s0.9-0.9,6.9-6.2c6.8-6,9.9-9.3,14.4-11.7c-0.8,0.4-2.4,0.8-0.6-0.5
	c0.4,0.2,1.7-0.8,3.1-1.7s2.9-1.9,3.6-1.8l1-0.6l1.3-0.6c0.9-0.5,1.9-1,2.7-1.4c1.6-0.9,2.8-1.6,1.3-1.6c1.4-0.2,2.7-0.6,4-1
	c0.4-0.2,0.8-0.2,1.3-0.2c0.1,0.1-0.2,0.2-1,0.7c2-0.6,3.9-1.4,5.8-2.2l-2.9,0.7l2.6-1c0.8-0.3,1.6-0.5,2.4-0.7
	c1.5-0.4,2.9-0.8,4.2-1.1s2.5-0.6,3.7-1c1.2-0.3,2.4-0.7,3.5-1.2l-2.9,0.2l3.3-0.7c0.9-0.2,1.9-0.4,2.9-0.5c1.4-0.2,2.8-0.2,4.2,0.2
	l-4.7,1.1c7.5-1.3,12.1-1.7,18.5-2.4h-2.3c4-0.8,17-1.2,29.6,1.3c5.9,1.1,11.8,2.6,17.5,4.6c1.3,0.4,2.4,0.9,3.5,1.3
	c0.5,0.2,1.1,0.4,1.5,0.5c2,0.9,3.8,1.8,5.4,2.7c-0.2,0-0.4,0-0.7,0c2,1.1,5.4,2.8,9.4,5.4c3.8,3-0.2,1.5-0.3,1.6
	c1.4,0.8,2.2,1.2,2.8,1.5c0.4,0.2,0.8,0.4,1.2,0.5c0.6,0.2,1,0.3,3.2,2c1.1,1-0.6,0.3-1.4,0c2,1.3,3.5,3,3.9,2.7
	c-1.4-1.3-1.2-1.8-1-2.4l1.7,1.3c1,0.7,1.8,1.5,2.8,2.3s1.9,1.6,2.8,2.5l2.8,2.7c3.9,3.7,7.5,7.7,10.8,12c1.7,2.1,3.2,4.4,4.8,6.6
	l2.2,3.4c0.3,0.6,0.7,1.1,1,1.7s0.7,1.1,1,1.7c1.3,2.1,2.4,4.3,3.4,6.4c0,0.1,0.1,0.2,0.1,0.2c0-0.1,0-0.1,0-0.1
	c1.1,2.3,2.1,4.5,3,6.6c2.5,6,4.3,12.1,5.6,18.5c0.7,5.2-1.1,1.2-1.2,1.2c0.4,1.5,0.7,2.5,0.9,3.1c0.1,0.4,0.3,0.8,0.5,1.2
	c0.3,0.5,0.5,1,0.9,3.6c0,1.5-0.7-0.2-0.9-1c0.4,2.3,0.4,4.5,0.8,4.7c-0.1-3,1.1-1.9,1.6-3.2l0.4,3.5c0.2,1.2,0.2,2.4,0.3,3.5
	l-0.7-0.3c0.3,1.2,0.6,2.3,1.1,3.4c0.3,1,0.5,2,0.6,3.1c0.1,0.6,0.2,1.3,0.2,2s0,1.5-0.1,2.4c0,0.4,0,0.7,0,1.1
	c0,0.1-0.1,0.1-0.1,0.2c-0.6,0.8-1.1,1.6-1.5,2.4c-0.5,1-1,2-1.4,3.1l-0.6-0.4c-0.1,1.2-0.1,2.5-0.2,3.7c-0.3,1.6-0.5,3.2-0.6,4.9
	c-0.1,1-0.2,1.5-0.5,1.3l0.3-1.5l0.2-1.5l0.4-3c-0.8,4.4-0.7,1.3-0.9-0.5c-0.3,1.8-0.6,3.6-1,5.1c0.1,0.9,0.4-0.6,0.6-1.3
	c0,1.2-0.1,2.7-0.2,4.2c-0.1,0.8-0.1,1.5-0.3,2.3c-0.1,0.7-0.3,1.5-0.6,2.2c-0.5,2.2-0.8,2.2-1.1,2.3s-0.6,0.3-1.3,2.8
	C1120.4,738.4,1114,750.7,1105.4,761.6L1105.4,761.6z"/>
<path d="M908.6,670.3c0-0.1,0-0.1,0.1-0.2L908.6,670.3z"/>
<path d="M1122.8,791.3c-0.9,0.9-1.8,1.8-2.6,2.7L1122.8,791.3z"/>
<path d="M1069.1,593.4l-0.2-0.1C1069,593.3,1069,593.4,1069.1,593.4z"/>
<path d="M957.5,600.3l0.2-0.1L957.5,600.3z"/>
</svg>
